%TF.GenerationSoftware,KiCad,Pcbnew,9.0.1*%
%TF.CreationDate,2026-05-31T13:24:01+05:30*%
%TF.ProjectId,8051DevBoardV2,38303531-4465-4764-926f-61726456322e,rev?*%
%TF.SameCoordinates,PX2e4f780PY569a690*%
%TF.FileFunction,Legend,Bot*%
%TF.FilePolarity,Positive*%
%FSLAX46Y46*%
G04 Gerber Fmt 4.6, Leading zero omitted, Abs format (unit mm)*
G04 Created by KiCad (PCBNEW 9.0.1) date 2026-05-31 13:24:01*
%MOMM*%
%LPD*%
G01*
G04 APERTURE LIST*
%ADD10C,0.125000*%
%ADD11C,0.200000*%
%ADD12C,0.120000*%
%ADD13C,0.560000*%
%ADD14C,0.150000*%
G04 APERTURE END LIST*
D10*
X5901904Y-30653595D02*
X5901904Y-29853595D01*
X5901904Y-29853595D02*
X5597142Y-29853595D01*
X5597142Y-29853595D02*
X5520952Y-29891690D01*
X5520952Y-29891690D02*
X5482857Y-29929785D01*
X5482857Y-29929785D02*
X5444761Y-30005976D01*
X5444761Y-30005976D02*
X5444761Y-30120261D01*
X5444761Y-30120261D02*
X5482857Y-30196452D01*
X5482857Y-30196452D02*
X5520952Y-30234547D01*
X5520952Y-30234547D02*
X5597142Y-30272642D01*
X5597142Y-30272642D02*
X5901904Y-30272642D01*
X4949523Y-29853595D02*
X4873333Y-29853595D01*
X4873333Y-29853595D02*
X4797142Y-29891690D01*
X4797142Y-29891690D02*
X4759047Y-29929785D01*
X4759047Y-29929785D02*
X4720952Y-30005976D01*
X4720952Y-30005976D02*
X4682857Y-30158357D01*
X4682857Y-30158357D02*
X4682857Y-30348833D01*
X4682857Y-30348833D02*
X4720952Y-30501214D01*
X4720952Y-30501214D02*
X4759047Y-30577404D01*
X4759047Y-30577404D02*
X4797142Y-30615500D01*
X4797142Y-30615500D02*
X4873333Y-30653595D01*
X4873333Y-30653595D02*
X4949523Y-30653595D01*
X4949523Y-30653595D02*
X5025714Y-30615500D01*
X5025714Y-30615500D02*
X5063809Y-30577404D01*
X5063809Y-30577404D02*
X5101904Y-30501214D01*
X5101904Y-30501214D02*
X5140000Y-30348833D01*
X5140000Y-30348833D02*
X5140000Y-30158357D01*
X5140000Y-30158357D02*
X5101904Y-30005976D01*
X5101904Y-30005976D02*
X5063809Y-29929785D01*
X5063809Y-29929785D02*
X5025714Y-29891690D01*
X5025714Y-29891690D02*
X4949523Y-29853595D01*
X4339999Y-30577404D02*
X4301904Y-30615500D01*
X4301904Y-30615500D02*
X4339999Y-30653595D01*
X4339999Y-30653595D02*
X4378095Y-30615500D01*
X4378095Y-30615500D02*
X4339999Y-30577404D01*
X4339999Y-30577404D02*
X4339999Y-30653595D01*
X3616190Y-29853595D02*
X3768571Y-29853595D01*
X3768571Y-29853595D02*
X3844762Y-29891690D01*
X3844762Y-29891690D02*
X3882857Y-29929785D01*
X3882857Y-29929785D02*
X3959047Y-30044071D01*
X3959047Y-30044071D02*
X3997143Y-30196452D01*
X3997143Y-30196452D02*
X3997143Y-30501214D01*
X3997143Y-30501214D02*
X3959047Y-30577404D01*
X3959047Y-30577404D02*
X3920952Y-30615500D01*
X3920952Y-30615500D02*
X3844762Y-30653595D01*
X3844762Y-30653595D02*
X3692381Y-30653595D01*
X3692381Y-30653595D02*
X3616190Y-30615500D01*
X3616190Y-30615500D02*
X3578095Y-30577404D01*
X3578095Y-30577404D02*
X3540000Y-30501214D01*
X3540000Y-30501214D02*
X3540000Y-30310738D01*
X3540000Y-30310738D02*
X3578095Y-30234547D01*
X3578095Y-30234547D02*
X3616190Y-30196452D01*
X3616190Y-30196452D02*
X3692381Y-30158357D01*
X3692381Y-30158357D02*
X3844762Y-30158357D01*
X3844762Y-30158357D02*
X3920952Y-30196452D01*
X3920952Y-30196452D02*
X3959047Y-30234547D01*
X3959047Y-30234547D02*
X3997143Y-30310738D01*
X5211428Y-12853595D02*
X5211428Y-12053595D01*
X5211428Y-12053595D02*
X4982857Y-12053595D01*
X4982857Y-12053595D02*
X4925714Y-12091690D01*
X4925714Y-12091690D02*
X4897143Y-12129785D01*
X4897143Y-12129785D02*
X4868571Y-12205976D01*
X4868571Y-12205976D02*
X4868571Y-12320261D01*
X4868571Y-12320261D02*
X4897143Y-12396452D01*
X4897143Y-12396452D02*
X4925714Y-12434547D01*
X4925714Y-12434547D02*
X4982857Y-12472642D01*
X4982857Y-12472642D02*
X5211428Y-12472642D01*
X4640000Y-12129785D02*
X4611428Y-12091690D01*
X4611428Y-12091690D02*
X4554286Y-12053595D01*
X4554286Y-12053595D02*
X4411428Y-12053595D01*
X4411428Y-12053595D02*
X4354286Y-12091690D01*
X4354286Y-12091690D02*
X4325714Y-12129785D01*
X4325714Y-12129785D02*
X4297143Y-12205976D01*
X4297143Y-12205976D02*
X4297143Y-12282166D01*
X4297143Y-12282166D02*
X4325714Y-12396452D01*
X4325714Y-12396452D02*
X4668571Y-12853595D01*
X4668571Y-12853595D02*
X4297143Y-12853595D01*
X4039999Y-12777404D02*
X4011428Y-12815500D01*
X4011428Y-12815500D02*
X4039999Y-12853595D01*
X4039999Y-12853595D02*
X4068571Y-12815500D01*
X4068571Y-12815500D02*
X4039999Y-12777404D01*
X4039999Y-12777404D02*
X4039999Y-12853595D01*
X3811428Y-12053595D02*
X3440000Y-12053595D01*
X3440000Y-12053595D02*
X3640000Y-12358357D01*
X3640000Y-12358357D02*
X3554285Y-12358357D01*
X3554285Y-12358357D02*
X3497143Y-12396452D01*
X3497143Y-12396452D02*
X3468571Y-12434547D01*
X3468571Y-12434547D02*
X3440000Y-12510738D01*
X3440000Y-12510738D02*
X3440000Y-12701214D01*
X3440000Y-12701214D02*
X3468571Y-12777404D01*
X3468571Y-12777404D02*
X3497143Y-12815500D01*
X3497143Y-12815500D02*
X3554285Y-12853595D01*
X3554285Y-12853595D02*
X3725714Y-12853595D01*
X3725714Y-12853595D02*
X3782857Y-12815500D01*
X3782857Y-12815500D02*
X3811428Y-12777404D01*
X5901904Y-35853595D02*
X5901904Y-35053595D01*
X5901904Y-35053595D02*
X5597142Y-35053595D01*
X5597142Y-35053595D02*
X5520952Y-35091690D01*
X5520952Y-35091690D02*
X5482857Y-35129785D01*
X5482857Y-35129785D02*
X5444761Y-35205976D01*
X5444761Y-35205976D02*
X5444761Y-35320261D01*
X5444761Y-35320261D02*
X5482857Y-35396452D01*
X5482857Y-35396452D02*
X5520952Y-35434547D01*
X5520952Y-35434547D02*
X5597142Y-35472642D01*
X5597142Y-35472642D02*
X5901904Y-35472642D01*
X4949523Y-35053595D02*
X4873333Y-35053595D01*
X4873333Y-35053595D02*
X4797142Y-35091690D01*
X4797142Y-35091690D02*
X4759047Y-35129785D01*
X4759047Y-35129785D02*
X4720952Y-35205976D01*
X4720952Y-35205976D02*
X4682857Y-35358357D01*
X4682857Y-35358357D02*
X4682857Y-35548833D01*
X4682857Y-35548833D02*
X4720952Y-35701214D01*
X4720952Y-35701214D02*
X4759047Y-35777404D01*
X4759047Y-35777404D02*
X4797142Y-35815500D01*
X4797142Y-35815500D02*
X4873333Y-35853595D01*
X4873333Y-35853595D02*
X4949523Y-35853595D01*
X4949523Y-35853595D02*
X5025714Y-35815500D01*
X5025714Y-35815500D02*
X5063809Y-35777404D01*
X5063809Y-35777404D02*
X5101904Y-35701214D01*
X5101904Y-35701214D02*
X5140000Y-35548833D01*
X5140000Y-35548833D02*
X5140000Y-35358357D01*
X5140000Y-35358357D02*
X5101904Y-35205976D01*
X5101904Y-35205976D02*
X5063809Y-35129785D01*
X5063809Y-35129785D02*
X5025714Y-35091690D01*
X5025714Y-35091690D02*
X4949523Y-35053595D01*
X4339999Y-35777404D02*
X4301904Y-35815500D01*
X4301904Y-35815500D02*
X4339999Y-35853595D01*
X4339999Y-35853595D02*
X4378095Y-35815500D01*
X4378095Y-35815500D02*
X4339999Y-35777404D01*
X4339999Y-35777404D02*
X4339999Y-35853595D01*
X3616190Y-35320261D02*
X3616190Y-35853595D01*
X3806666Y-35015500D02*
X3997143Y-35586928D01*
X3997143Y-35586928D02*
X3501904Y-35586928D01*
X17901904Y-33253595D02*
X17901904Y-32453595D01*
X17901904Y-32453595D02*
X17597142Y-32453595D01*
X17597142Y-32453595D02*
X17520952Y-32491690D01*
X17520952Y-32491690D02*
X17482857Y-32529785D01*
X17482857Y-32529785D02*
X17444761Y-32605976D01*
X17444761Y-32605976D02*
X17444761Y-32720261D01*
X17444761Y-32720261D02*
X17482857Y-32796452D01*
X17482857Y-32796452D02*
X17520952Y-32834547D01*
X17520952Y-32834547D02*
X17597142Y-32872642D01*
X17597142Y-32872642D02*
X17901904Y-32872642D01*
X16682857Y-33253595D02*
X17140000Y-33253595D01*
X16911428Y-33253595D02*
X16911428Y-32453595D01*
X16911428Y-32453595D02*
X16987619Y-32567880D01*
X16987619Y-32567880D02*
X17063809Y-32644071D01*
X17063809Y-32644071D02*
X17140000Y-32682166D01*
X16339999Y-33177404D02*
X16301904Y-33215500D01*
X16301904Y-33215500D02*
X16339999Y-33253595D01*
X16339999Y-33253595D02*
X16378095Y-33215500D01*
X16378095Y-33215500D02*
X16339999Y-33177404D01*
X16339999Y-33177404D02*
X16339999Y-33253595D01*
X15578095Y-32453595D02*
X15959047Y-32453595D01*
X15959047Y-32453595D02*
X15997143Y-32834547D01*
X15997143Y-32834547D02*
X15959047Y-32796452D01*
X15959047Y-32796452D02*
X15882857Y-32758357D01*
X15882857Y-32758357D02*
X15692381Y-32758357D01*
X15692381Y-32758357D02*
X15616190Y-32796452D01*
X15616190Y-32796452D02*
X15578095Y-32834547D01*
X15578095Y-32834547D02*
X15540000Y-32910738D01*
X15540000Y-32910738D02*
X15540000Y-33101214D01*
X15540000Y-33101214D02*
X15578095Y-33177404D01*
X15578095Y-33177404D02*
X15616190Y-33215500D01*
X15616190Y-33215500D02*
X15692381Y-33253595D01*
X15692381Y-33253595D02*
X15882857Y-33253595D01*
X15882857Y-33253595D02*
X15959047Y-33215500D01*
X15959047Y-33215500D02*
X15997143Y-33177404D01*
X17901904Y-15653595D02*
X17901904Y-14853595D01*
X17901904Y-14853595D02*
X17597142Y-14853595D01*
X17597142Y-14853595D02*
X17520952Y-14891690D01*
X17520952Y-14891690D02*
X17482857Y-14929785D01*
X17482857Y-14929785D02*
X17444761Y-15005976D01*
X17444761Y-15005976D02*
X17444761Y-15120261D01*
X17444761Y-15120261D02*
X17482857Y-15196452D01*
X17482857Y-15196452D02*
X17520952Y-15234547D01*
X17520952Y-15234547D02*
X17597142Y-15272642D01*
X17597142Y-15272642D02*
X17901904Y-15272642D01*
X17178095Y-14853595D02*
X16682857Y-14853595D01*
X16682857Y-14853595D02*
X16949523Y-15158357D01*
X16949523Y-15158357D02*
X16835238Y-15158357D01*
X16835238Y-15158357D02*
X16759047Y-15196452D01*
X16759047Y-15196452D02*
X16720952Y-15234547D01*
X16720952Y-15234547D02*
X16682857Y-15310738D01*
X16682857Y-15310738D02*
X16682857Y-15501214D01*
X16682857Y-15501214D02*
X16720952Y-15577404D01*
X16720952Y-15577404D02*
X16759047Y-15615500D01*
X16759047Y-15615500D02*
X16835238Y-15653595D01*
X16835238Y-15653595D02*
X17063809Y-15653595D01*
X17063809Y-15653595D02*
X17140000Y-15615500D01*
X17140000Y-15615500D02*
X17178095Y-15577404D01*
X16339999Y-15577404D02*
X16301904Y-15615500D01*
X16301904Y-15615500D02*
X16339999Y-15653595D01*
X16339999Y-15653595D02*
X16378095Y-15615500D01*
X16378095Y-15615500D02*
X16339999Y-15577404D01*
X16339999Y-15577404D02*
X16339999Y-15653595D01*
X15616190Y-15120261D02*
X15616190Y-15653595D01*
X15806666Y-14815500D02*
X15997143Y-15386928D01*
X15997143Y-15386928D02*
X15501904Y-15386928D01*
X17901904Y-20053595D02*
X17901904Y-19253595D01*
X17901904Y-19253595D02*
X17597142Y-19253595D01*
X17597142Y-19253595D02*
X17520952Y-19291690D01*
X17520952Y-19291690D02*
X17482857Y-19329785D01*
X17482857Y-19329785D02*
X17444761Y-19405976D01*
X17444761Y-19405976D02*
X17444761Y-19520261D01*
X17444761Y-19520261D02*
X17482857Y-19596452D01*
X17482857Y-19596452D02*
X17520952Y-19634547D01*
X17520952Y-19634547D02*
X17597142Y-19672642D01*
X17597142Y-19672642D02*
X17901904Y-19672642D01*
X17178095Y-19253595D02*
X16682857Y-19253595D01*
X16682857Y-19253595D02*
X16949523Y-19558357D01*
X16949523Y-19558357D02*
X16835238Y-19558357D01*
X16835238Y-19558357D02*
X16759047Y-19596452D01*
X16759047Y-19596452D02*
X16720952Y-19634547D01*
X16720952Y-19634547D02*
X16682857Y-19710738D01*
X16682857Y-19710738D02*
X16682857Y-19901214D01*
X16682857Y-19901214D02*
X16720952Y-19977404D01*
X16720952Y-19977404D02*
X16759047Y-20015500D01*
X16759047Y-20015500D02*
X16835238Y-20053595D01*
X16835238Y-20053595D02*
X17063809Y-20053595D01*
X17063809Y-20053595D02*
X17140000Y-20015500D01*
X17140000Y-20015500D02*
X17178095Y-19977404D01*
X16339999Y-19977404D02*
X16301904Y-20015500D01*
X16301904Y-20015500D02*
X16339999Y-20053595D01*
X16339999Y-20053595D02*
X16378095Y-20015500D01*
X16378095Y-20015500D02*
X16339999Y-19977404D01*
X16339999Y-19977404D02*
X16339999Y-20053595D01*
X15997143Y-19329785D02*
X15959047Y-19291690D01*
X15959047Y-19291690D02*
X15882857Y-19253595D01*
X15882857Y-19253595D02*
X15692381Y-19253595D01*
X15692381Y-19253595D02*
X15616190Y-19291690D01*
X15616190Y-19291690D02*
X15578095Y-19329785D01*
X15578095Y-19329785D02*
X15540000Y-19405976D01*
X15540000Y-19405976D02*
X15540000Y-19482166D01*
X15540000Y-19482166D02*
X15578095Y-19596452D01*
X15578095Y-19596452D02*
X16035238Y-20053595D01*
X16035238Y-20053595D02*
X15540000Y-20053595D01*
X17701904Y-38253595D02*
X17701904Y-37453595D01*
X17701904Y-37453595D02*
X17397142Y-37453595D01*
X17397142Y-37453595D02*
X17320952Y-37491690D01*
X17320952Y-37491690D02*
X17282857Y-37529785D01*
X17282857Y-37529785D02*
X17244761Y-37605976D01*
X17244761Y-37605976D02*
X17244761Y-37720261D01*
X17244761Y-37720261D02*
X17282857Y-37796452D01*
X17282857Y-37796452D02*
X17320952Y-37834547D01*
X17320952Y-37834547D02*
X17397142Y-37872642D01*
X17397142Y-37872642D02*
X17701904Y-37872642D01*
X16482857Y-38253595D02*
X16940000Y-38253595D01*
X16711428Y-38253595D02*
X16711428Y-37453595D01*
X16711428Y-37453595D02*
X16787619Y-37567880D01*
X16787619Y-37567880D02*
X16863809Y-37644071D01*
X16863809Y-37644071D02*
X16940000Y-37682166D01*
X16139999Y-38177404D02*
X16101904Y-38215500D01*
X16101904Y-38215500D02*
X16139999Y-38253595D01*
X16139999Y-38253595D02*
X16178095Y-38215500D01*
X16178095Y-38215500D02*
X16139999Y-38177404D01*
X16139999Y-38177404D02*
X16139999Y-38253595D01*
X15835238Y-37453595D02*
X15340000Y-37453595D01*
X15340000Y-37453595D02*
X15606666Y-37758357D01*
X15606666Y-37758357D02*
X15492381Y-37758357D01*
X15492381Y-37758357D02*
X15416190Y-37796452D01*
X15416190Y-37796452D02*
X15378095Y-37834547D01*
X15378095Y-37834547D02*
X15340000Y-37910738D01*
X15340000Y-37910738D02*
X15340000Y-38101214D01*
X15340000Y-38101214D02*
X15378095Y-38177404D01*
X15378095Y-38177404D02*
X15416190Y-38215500D01*
X15416190Y-38215500D02*
X15492381Y-38253595D01*
X15492381Y-38253595D02*
X15720952Y-38253595D01*
X15720952Y-38253595D02*
X15797143Y-38215500D01*
X15797143Y-38215500D02*
X15835238Y-38177404D01*
X17901904Y-25253595D02*
X17901904Y-24453595D01*
X17901904Y-24453595D02*
X17597142Y-24453595D01*
X17597142Y-24453595D02*
X17520952Y-24491690D01*
X17520952Y-24491690D02*
X17482857Y-24529785D01*
X17482857Y-24529785D02*
X17444761Y-24605976D01*
X17444761Y-24605976D02*
X17444761Y-24720261D01*
X17444761Y-24720261D02*
X17482857Y-24796452D01*
X17482857Y-24796452D02*
X17520952Y-24834547D01*
X17520952Y-24834547D02*
X17597142Y-24872642D01*
X17597142Y-24872642D02*
X17901904Y-24872642D01*
X17178095Y-24453595D02*
X16682857Y-24453595D01*
X16682857Y-24453595D02*
X16949523Y-24758357D01*
X16949523Y-24758357D02*
X16835238Y-24758357D01*
X16835238Y-24758357D02*
X16759047Y-24796452D01*
X16759047Y-24796452D02*
X16720952Y-24834547D01*
X16720952Y-24834547D02*
X16682857Y-24910738D01*
X16682857Y-24910738D02*
X16682857Y-25101214D01*
X16682857Y-25101214D02*
X16720952Y-25177404D01*
X16720952Y-25177404D02*
X16759047Y-25215500D01*
X16759047Y-25215500D02*
X16835238Y-25253595D01*
X16835238Y-25253595D02*
X17063809Y-25253595D01*
X17063809Y-25253595D02*
X17140000Y-25215500D01*
X17140000Y-25215500D02*
X17178095Y-25177404D01*
X16339999Y-25177404D02*
X16301904Y-25215500D01*
X16301904Y-25215500D02*
X16339999Y-25253595D01*
X16339999Y-25253595D02*
X16378095Y-25215500D01*
X16378095Y-25215500D02*
X16339999Y-25177404D01*
X16339999Y-25177404D02*
X16339999Y-25253595D01*
X15806666Y-24453595D02*
X15730476Y-24453595D01*
X15730476Y-24453595D02*
X15654285Y-24491690D01*
X15654285Y-24491690D02*
X15616190Y-24529785D01*
X15616190Y-24529785D02*
X15578095Y-24605976D01*
X15578095Y-24605976D02*
X15540000Y-24758357D01*
X15540000Y-24758357D02*
X15540000Y-24948833D01*
X15540000Y-24948833D02*
X15578095Y-25101214D01*
X15578095Y-25101214D02*
X15616190Y-25177404D01*
X15616190Y-25177404D02*
X15654285Y-25215500D01*
X15654285Y-25215500D02*
X15730476Y-25253595D01*
X15730476Y-25253595D02*
X15806666Y-25253595D01*
X15806666Y-25253595D02*
X15882857Y-25215500D01*
X15882857Y-25215500D02*
X15920952Y-25177404D01*
X15920952Y-25177404D02*
X15959047Y-25101214D01*
X15959047Y-25101214D02*
X15997143Y-24948833D01*
X15997143Y-24948833D02*
X15997143Y-24758357D01*
X15997143Y-24758357D02*
X15959047Y-24605976D01*
X15959047Y-24605976D02*
X15920952Y-24529785D01*
X15920952Y-24529785D02*
X15882857Y-24491690D01*
X15882857Y-24491690D02*
X15806666Y-24453595D01*
X5701904Y-23053595D02*
X5701904Y-22253595D01*
X5701904Y-22253595D02*
X5397142Y-22253595D01*
X5397142Y-22253595D02*
X5320952Y-22291690D01*
X5320952Y-22291690D02*
X5282857Y-22329785D01*
X5282857Y-22329785D02*
X5244761Y-22405976D01*
X5244761Y-22405976D02*
X5244761Y-22520261D01*
X5244761Y-22520261D02*
X5282857Y-22596452D01*
X5282857Y-22596452D02*
X5320952Y-22634547D01*
X5320952Y-22634547D02*
X5397142Y-22672642D01*
X5397142Y-22672642D02*
X5701904Y-22672642D01*
X4940000Y-22329785D02*
X4901904Y-22291690D01*
X4901904Y-22291690D02*
X4825714Y-22253595D01*
X4825714Y-22253595D02*
X4635238Y-22253595D01*
X4635238Y-22253595D02*
X4559047Y-22291690D01*
X4559047Y-22291690D02*
X4520952Y-22329785D01*
X4520952Y-22329785D02*
X4482857Y-22405976D01*
X4482857Y-22405976D02*
X4482857Y-22482166D01*
X4482857Y-22482166D02*
X4520952Y-22596452D01*
X4520952Y-22596452D02*
X4978095Y-23053595D01*
X4978095Y-23053595D02*
X4482857Y-23053595D01*
X4139999Y-22977404D02*
X4101904Y-23015500D01*
X4101904Y-23015500D02*
X4139999Y-23053595D01*
X4139999Y-23053595D02*
X4178095Y-23015500D01*
X4178095Y-23015500D02*
X4139999Y-22977404D01*
X4139999Y-22977404D02*
X4139999Y-23053595D01*
X3416190Y-22253595D02*
X3568571Y-22253595D01*
X3568571Y-22253595D02*
X3644762Y-22291690D01*
X3644762Y-22291690D02*
X3682857Y-22329785D01*
X3682857Y-22329785D02*
X3759047Y-22444071D01*
X3759047Y-22444071D02*
X3797143Y-22596452D01*
X3797143Y-22596452D02*
X3797143Y-22901214D01*
X3797143Y-22901214D02*
X3759047Y-22977404D01*
X3759047Y-22977404D02*
X3720952Y-23015500D01*
X3720952Y-23015500D02*
X3644762Y-23053595D01*
X3644762Y-23053595D02*
X3492381Y-23053595D01*
X3492381Y-23053595D02*
X3416190Y-23015500D01*
X3416190Y-23015500D02*
X3378095Y-22977404D01*
X3378095Y-22977404D02*
X3340000Y-22901214D01*
X3340000Y-22901214D02*
X3340000Y-22710738D01*
X3340000Y-22710738D02*
X3378095Y-22634547D01*
X3378095Y-22634547D02*
X3416190Y-22596452D01*
X3416190Y-22596452D02*
X3492381Y-22558357D01*
X3492381Y-22558357D02*
X3644762Y-22558357D01*
X3644762Y-22558357D02*
X3720952Y-22596452D01*
X3720952Y-22596452D02*
X3759047Y-22634547D01*
X3759047Y-22634547D02*
X3797143Y-22710738D01*
X17701904Y-40853595D02*
X17701904Y-40053595D01*
X17701904Y-40053595D02*
X17397142Y-40053595D01*
X17397142Y-40053595D02*
X17320952Y-40091690D01*
X17320952Y-40091690D02*
X17282857Y-40129785D01*
X17282857Y-40129785D02*
X17244761Y-40205976D01*
X17244761Y-40205976D02*
X17244761Y-40320261D01*
X17244761Y-40320261D02*
X17282857Y-40396452D01*
X17282857Y-40396452D02*
X17320952Y-40434547D01*
X17320952Y-40434547D02*
X17397142Y-40472642D01*
X17397142Y-40472642D02*
X17701904Y-40472642D01*
X16482857Y-40853595D02*
X16940000Y-40853595D01*
X16711428Y-40853595D02*
X16711428Y-40053595D01*
X16711428Y-40053595D02*
X16787619Y-40167880D01*
X16787619Y-40167880D02*
X16863809Y-40244071D01*
X16863809Y-40244071D02*
X16940000Y-40282166D01*
X16139999Y-40777404D02*
X16101904Y-40815500D01*
X16101904Y-40815500D02*
X16139999Y-40853595D01*
X16139999Y-40853595D02*
X16178095Y-40815500D01*
X16178095Y-40815500D02*
X16139999Y-40777404D01*
X16139999Y-40777404D02*
X16139999Y-40853595D01*
X15797143Y-40129785D02*
X15759047Y-40091690D01*
X15759047Y-40091690D02*
X15682857Y-40053595D01*
X15682857Y-40053595D02*
X15492381Y-40053595D01*
X15492381Y-40053595D02*
X15416190Y-40091690D01*
X15416190Y-40091690D02*
X15378095Y-40129785D01*
X15378095Y-40129785D02*
X15340000Y-40205976D01*
X15340000Y-40205976D02*
X15340000Y-40282166D01*
X15340000Y-40282166D02*
X15378095Y-40396452D01*
X15378095Y-40396452D02*
X15835238Y-40853595D01*
X15835238Y-40853595D02*
X15340000Y-40853595D01*
X5901904Y-43253595D02*
X5901904Y-42453595D01*
X5901904Y-42453595D02*
X5597142Y-42453595D01*
X5597142Y-42453595D02*
X5520952Y-42491690D01*
X5520952Y-42491690D02*
X5482857Y-42529785D01*
X5482857Y-42529785D02*
X5444761Y-42605976D01*
X5444761Y-42605976D02*
X5444761Y-42720261D01*
X5444761Y-42720261D02*
X5482857Y-42796452D01*
X5482857Y-42796452D02*
X5520952Y-42834547D01*
X5520952Y-42834547D02*
X5597142Y-42872642D01*
X5597142Y-42872642D02*
X5901904Y-42872642D01*
X4949523Y-42453595D02*
X4873333Y-42453595D01*
X4873333Y-42453595D02*
X4797142Y-42491690D01*
X4797142Y-42491690D02*
X4759047Y-42529785D01*
X4759047Y-42529785D02*
X4720952Y-42605976D01*
X4720952Y-42605976D02*
X4682857Y-42758357D01*
X4682857Y-42758357D02*
X4682857Y-42948833D01*
X4682857Y-42948833D02*
X4720952Y-43101214D01*
X4720952Y-43101214D02*
X4759047Y-43177404D01*
X4759047Y-43177404D02*
X4797142Y-43215500D01*
X4797142Y-43215500D02*
X4873333Y-43253595D01*
X4873333Y-43253595D02*
X4949523Y-43253595D01*
X4949523Y-43253595D02*
X5025714Y-43215500D01*
X5025714Y-43215500D02*
X5063809Y-43177404D01*
X5063809Y-43177404D02*
X5101904Y-43101214D01*
X5101904Y-43101214D02*
X5140000Y-42948833D01*
X5140000Y-42948833D02*
X5140000Y-42758357D01*
X5140000Y-42758357D02*
X5101904Y-42605976D01*
X5101904Y-42605976D02*
X5063809Y-42529785D01*
X5063809Y-42529785D02*
X5025714Y-42491690D01*
X5025714Y-42491690D02*
X4949523Y-42453595D01*
X4339999Y-43177404D02*
X4301904Y-43215500D01*
X4301904Y-43215500D02*
X4339999Y-43253595D01*
X4339999Y-43253595D02*
X4378095Y-43215500D01*
X4378095Y-43215500D02*
X4339999Y-43177404D01*
X4339999Y-43177404D02*
X4339999Y-43253595D01*
X3540000Y-43253595D02*
X3997143Y-43253595D01*
X3768571Y-43253595D02*
X3768571Y-42453595D01*
X3768571Y-42453595D02*
X3844762Y-42567880D01*
X3844762Y-42567880D02*
X3920952Y-42644071D01*
X3920952Y-42644071D02*
X3997143Y-42682166D01*
X17901904Y-23053595D02*
X17901904Y-22253595D01*
X17901904Y-22253595D02*
X17597142Y-22253595D01*
X17597142Y-22253595D02*
X17520952Y-22291690D01*
X17520952Y-22291690D02*
X17482857Y-22329785D01*
X17482857Y-22329785D02*
X17444761Y-22405976D01*
X17444761Y-22405976D02*
X17444761Y-22520261D01*
X17444761Y-22520261D02*
X17482857Y-22596452D01*
X17482857Y-22596452D02*
X17520952Y-22634547D01*
X17520952Y-22634547D02*
X17597142Y-22672642D01*
X17597142Y-22672642D02*
X17901904Y-22672642D01*
X17178095Y-22253595D02*
X16682857Y-22253595D01*
X16682857Y-22253595D02*
X16949523Y-22558357D01*
X16949523Y-22558357D02*
X16835238Y-22558357D01*
X16835238Y-22558357D02*
X16759047Y-22596452D01*
X16759047Y-22596452D02*
X16720952Y-22634547D01*
X16720952Y-22634547D02*
X16682857Y-22710738D01*
X16682857Y-22710738D02*
X16682857Y-22901214D01*
X16682857Y-22901214D02*
X16720952Y-22977404D01*
X16720952Y-22977404D02*
X16759047Y-23015500D01*
X16759047Y-23015500D02*
X16835238Y-23053595D01*
X16835238Y-23053595D02*
X17063809Y-23053595D01*
X17063809Y-23053595D02*
X17140000Y-23015500D01*
X17140000Y-23015500D02*
X17178095Y-22977404D01*
X16339999Y-22977404D02*
X16301904Y-23015500D01*
X16301904Y-23015500D02*
X16339999Y-23053595D01*
X16339999Y-23053595D02*
X16378095Y-23015500D01*
X16378095Y-23015500D02*
X16339999Y-22977404D01*
X16339999Y-22977404D02*
X16339999Y-23053595D01*
X15540000Y-23053595D02*
X15997143Y-23053595D01*
X15768571Y-23053595D02*
X15768571Y-22253595D01*
X15768571Y-22253595D02*
X15844762Y-22367880D01*
X15844762Y-22367880D02*
X15920952Y-22444071D01*
X15920952Y-22444071D02*
X15997143Y-22482166D01*
X5901904Y-38253595D02*
X5901904Y-37453595D01*
X5901904Y-37453595D02*
X5597142Y-37453595D01*
X5597142Y-37453595D02*
X5520952Y-37491690D01*
X5520952Y-37491690D02*
X5482857Y-37529785D01*
X5482857Y-37529785D02*
X5444761Y-37605976D01*
X5444761Y-37605976D02*
X5444761Y-37720261D01*
X5444761Y-37720261D02*
X5482857Y-37796452D01*
X5482857Y-37796452D02*
X5520952Y-37834547D01*
X5520952Y-37834547D02*
X5597142Y-37872642D01*
X5597142Y-37872642D02*
X5901904Y-37872642D01*
X4949523Y-37453595D02*
X4873333Y-37453595D01*
X4873333Y-37453595D02*
X4797142Y-37491690D01*
X4797142Y-37491690D02*
X4759047Y-37529785D01*
X4759047Y-37529785D02*
X4720952Y-37605976D01*
X4720952Y-37605976D02*
X4682857Y-37758357D01*
X4682857Y-37758357D02*
X4682857Y-37948833D01*
X4682857Y-37948833D02*
X4720952Y-38101214D01*
X4720952Y-38101214D02*
X4759047Y-38177404D01*
X4759047Y-38177404D02*
X4797142Y-38215500D01*
X4797142Y-38215500D02*
X4873333Y-38253595D01*
X4873333Y-38253595D02*
X4949523Y-38253595D01*
X4949523Y-38253595D02*
X5025714Y-38215500D01*
X5025714Y-38215500D02*
X5063809Y-38177404D01*
X5063809Y-38177404D02*
X5101904Y-38101214D01*
X5101904Y-38101214D02*
X5140000Y-37948833D01*
X5140000Y-37948833D02*
X5140000Y-37758357D01*
X5140000Y-37758357D02*
X5101904Y-37605976D01*
X5101904Y-37605976D02*
X5063809Y-37529785D01*
X5063809Y-37529785D02*
X5025714Y-37491690D01*
X5025714Y-37491690D02*
X4949523Y-37453595D01*
X4339999Y-38177404D02*
X4301904Y-38215500D01*
X4301904Y-38215500D02*
X4339999Y-38253595D01*
X4339999Y-38253595D02*
X4378095Y-38215500D01*
X4378095Y-38215500D02*
X4339999Y-38177404D01*
X4339999Y-38177404D02*
X4339999Y-38253595D01*
X4035238Y-37453595D02*
X3540000Y-37453595D01*
X3540000Y-37453595D02*
X3806666Y-37758357D01*
X3806666Y-37758357D02*
X3692381Y-37758357D01*
X3692381Y-37758357D02*
X3616190Y-37796452D01*
X3616190Y-37796452D02*
X3578095Y-37834547D01*
X3578095Y-37834547D02*
X3540000Y-37910738D01*
X3540000Y-37910738D02*
X3540000Y-38101214D01*
X3540000Y-38101214D02*
X3578095Y-38177404D01*
X3578095Y-38177404D02*
X3616190Y-38215500D01*
X3616190Y-38215500D02*
X3692381Y-38253595D01*
X3692381Y-38253595D02*
X3920952Y-38253595D01*
X3920952Y-38253595D02*
X3997143Y-38215500D01*
X3997143Y-38215500D02*
X4035238Y-38177404D01*
X17901904Y-28253595D02*
X17901904Y-27453595D01*
X17901904Y-27453595D02*
X17597142Y-27453595D01*
X17597142Y-27453595D02*
X17520952Y-27491690D01*
X17520952Y-27491690D02*
X17482857Y-27529785D01*
X17482857Y-27529785D02*
X17444761Y-27605976D01*
X17444761Y-27605976D02*
X17444761Y-27720261D01*
X17444761Y-27720261D02*
X17482857Y-27796452D01*
X17482857Y-27796452D02*
X17520952Y-27834547D01*
X17520952Y-27834547D02*
X17597142Y-27872642D01*
X17597142Y-27872642D02*
X17901904Y-27872642D01*
X16682857Y-28253595D02*
X17140000Y-28253595D01*
X16911428Y-28253595D02*
X16911428Y-27453595D01*
X16911428Y-27453595D02*
X16987619Y-27567880D01*
X16987619Y-27567880D02*
X17063809Y-27644071D01*
X17063809Y-27644071D02*
X17140000Y-27682166D01*
X16339999Y-28177404D02*
X16301904Y-28215500D01*
X16301904Y-28215500D02*
X16339999Y-28253595D01*
X16339999Y-28253595D02*
X16378095Y-28215500D01*
X16378095Y-28215500D02*
X16339999Y-28177404D01*
X16339999Y-28177404D02*
X16339999Y-28253595D01*
X16035238Y-27453595D02*
X15501904Y-27453595D01*
X15501904Y-27453595D02*
X15844762Y-28253595D01*
X5901904Y-45853595D02*
X5901904Y-45053595D01*
X5901904Y-45053595D02*
X5597142Y-45053595D01*
X5597142Y-45053595D02*
X5520952Y-45091690D01*
X5520952Y-45091690D02*
X5482857Y-45129785D01*
X5482857Y-45129785D02*
X5444761Y-45205976D01*
X5444761Y-45205976D02*
X5444761Y-45320261D01*
X5444761Y-45320261D02*
X5482857Y-45396452D01*
X5482857Y-45396452D02*
X5520952Y-45434547D01*
X5520952Y-45434547D02*
X5597142Y-45472642D01*
X5597142Y-45472642D02*
X5901904Y-45472642D01*
X4949523Y-45053595D02*
X4873333Y-45053595D01*
X4873333Y-45053595D02*
X4797142Y-45091690D01*
X4797142Y-45091690D02*
X4759047Y-45129785D01*
X4759047Y-45129785D02*
X4720952Y-45205976D01*
X4720952Y-45205976D02*
X4682857Y-45358357D01*
X4682857Y-45358357D02*
X4682857Y-45548833D01*
X4682857Y-45548833D02*
X4720952Y-45701214D01*
X4720952Y-45701214D02*
X4759047Y-45777404D01*
X4759047Y-45777404D02*
X4797142Y-45815500D01*
X4797142Y-45815500D02*
X4873333Y-45853595D01*
X4873333Y-45853595D02*
X4949523Y-45853595D01*
X4949523Y-45853595D02*
X5025714Y-45815500D01*
X5025714Y-45815500D02*
X5063809Y-45777404D01*
X5063809Y-45777404D02*
X5101904Y-45701214D01*
X5101904Y-45701214D02*
X5140000Y-45548833D01*
X5140000Y-45548833D02*
X5140000Y-45358357D01*
X5140000Y-45358357D02*
X5101904Y-45205976D01*
X5101904Y-45205976D02*
X5063809Y-45129785D01*
X5063809Y-45129785D02*
X5025714Y-45091690D01*
X5025714Y-45091690D02*
X4949523Y-45053595D01*
X4339999Y-45777404D02*
X4301904Y-45815500D01*
X4301904Y-45815500D02*
X4339999Y-45853595D01*
X4339999Y-45853595D02*
X4378095Y-45815500D01*
X4378095Y-45815500D02*
X4339999Y-45777404D01*
X4339999Y-45777404D02*
X4339999Y-45853595D01*
X3806666Y-45053595D02*
X3730476Y-45053595D01*
X3730476Y-45053595D02*
X3654285Y-45091690D01*
X3654285Y-45091690D02*
X3616190Y-45129785D01*
X3616190Y-45129785D02*
X3578095Y-45205976D01*
X3578095Y-45205976D02*
X3540000Y-45358357D01*
X3540000Y-45358357D02*
X3540000Y-45548833D01*
X3540000Y-45548833D02*
X3578095Y-45701214D01*
X3578095Y-45701214D02*
X3616190Y-45777404D01*
X3616190Y-45777404D02*
X3654285Y-45815500D01*
X3654285Y-45815500D02*
X3730476Y-45853595D01*
X3730476Y-45853595D02*
X3806666Y-45853595D01*
X3806666Y-45853595D02*
X3882857Y-45815500D01*
X3882857Y-45815500D02*
X3920952Y-45777404D01*
X3920952Y-45777404D02*
X3959047Y-45701214D01*
X3959047Y-45701214D02*
X3997143Y-45548833D01*
X3997143Y-45548833D02*
X3997143Y-45358357D01*
X3997143Y-45358357D02*
X3959047Y-45205976D01*
X3959047Y-45205976D02*
X3920952Y-45129785D01*
X3920952Y-45129785D02*
X3882857Y-45091690D01*
X3882857Y-45091690D02*
X3806666Y-45053595D01*
X5701904Y-25653595D02*
X5701904Y-24853595D01*
X5701904Y-24853595D02*
X5397142Y-24853595D01*
X5397142Y-24853595D02*
X5320952Y-24891690D01*
X5320952Y-24891690D02*
X5282857Y-24929785D01*
X5282857Y-24929785D02*
X5244761Y-25005976D01*
X5244761Y-25005976D02*
X5244761Y-25120261D01*
X5244761Y-25120261D02*
X5282857Y-25196452D01*
X5282857Y-25196452D02*
X5320952Y-25234547D01*
X5320952Y-25234547D02*
X5397142Y-25272642D01*
X5397142Y-25272642D02*
X5701904Y-25272642D01*
X4749523Y-24853595D02*
X4673333Y-24853595D01*
X4673333Y-24853595D02*
X4597142Y-24891690D01*
X4597142Y-24891690D02*
X4559047Y-24929785D01*
X4559047Y-24929785D02*
X4520952Y-25005976D01*
X4520952Y-25005976D02*
X4482857Y-25158357D01*
X4482857Y-25158357D02*
X4482857Y-25348833D01*
X4482857Y-25348833D02*
X4520952Y-25501214D01*
X4520952Y-25501214D02*
X4559047Y-25577404D01*
X4559047Y-25577404D02*
X4597142Y-25615500D01*
X4597142Y-25615500D02*
X4673333Y-25653595D01*
X4673333Y-25653595D02*
X4749523Y-25653595D01*
X4749523Y-25653595D02*
X4825714Y-25615500D01*
X4825714Y-25615500D02*
X4863809Y-25577404D01*
X4863809Y-25577404D02*
X4901904Y-25501214D01*
X4901904Y-25501214D02*
X4940000Y-25348833D01*
X4940000Y-25348833D02*
X4940000Y-25158357D01*
X4940000Y-25158357D02*
X4901904Y-25005976D01*
X4901904Y-25005976D02*
X4863809Y-24929785D01*
X4863809Y-24929785D02*
X4825714Y-24891690D01*
X4825714Y-24891690D02*
X4749523Y-24853595D01*
X4139999Y-25577404D02*
X4101904Y-25615500D01*
X4101904Y-25615500D02*
X4139999Y-25653595D01*
X4139999Y-25653595D02*
X4178095Y-25615500D01*
X4178095Y-25615500D02*
X4139999Y-25577404D01*
X4139999Y-25577404D02*
X4139999Y-25653595D01*
X3835238Y-24853595D02*
X3301904Y-24853595D01*
X3301904Y-24853595D02*
X3644762Y-25653595D01*
X17701904Y-30653595D02*
X17701904Y-29853595D01*
X17701904Y-29853595D02*
X17397142Y-29853595D01*
X17397142Y-29853595D02*
X17320952Y-29891690D01*
X17320952Y-29891690D02*
X17282857Y-29929785D01*
X17282857Y-29929785D02*
X17244761Y-30005976D01*
X17244761Y-30005976D02*
X17244761Y-30120261D01*
X17244761Y-30120261D02*
X17282857Y-30196452D01*
X17282857Y-30196452D02*
X17320952Y-30234547D01*
X17320952Y-30234547D02*
X17397142Y-30272642D01*
X17397142Y-30272642D02*
X17701904Y-30272642D01*
X16482857Y-30653595D02*
X16940000Y-30653595D01*
X16711428Y-30653595D02*
X16711428Y-29853595D01*
X16711428Y-29853595D02*
X16787619Y-29967880D01*
X16787619Y-29967880D02*
X16863809Y-30044071D01*
X16863809Y-30044071D02*
X16940000Y-30082166D01*
X16139999Y-30577404D02*
X16101904Y-30615500D01*
X16101904Y-30615500D02*
X16139999Y-30653595D01*
X16139999Y-30653595D02*
X16178095Y-30615500D01*
X16178095Y-30615500D02*
X16139999Y-30577404D01*
X16139999Y-30577404D02*
X16139999Y-30653595D01*
X15416190Y-29853595D02*
X15568571Y-29853595D01*
X15568571Y-29853595D02*
X15644762Y-29891690D01*
X15644762Y-29891690D02*
X15682857Y-29929785D01*
X15682857Y-29929785D02*
X15759047Y-30044071D01*
X15759047Y-30044071D02*
X15797143Y-30196452D01*
X15797143Y-30196452D02*
X15797143Y-30501214D01*
X15797143Y-30501214D02*
X15759047Y-30577404D01*
X15759047Y-30577404D02*
X15720952Y-30615500D01*
X15720952Y-30615500D02*
X15644762Y-30653595D01*
X15644762Y-30653595D02*
X15492381Y-30653595D01*
X15492381Y-30653595D02*
X15416190Y-30615500D01*
X15416190Y-30615500D02*
X15378095Y-30577404D01*
X15378095Y-30577404D02*
X15340000Y-30501214D01*
X15340000Y-30501214D02*
X15340000Y-30310738D01*
X15340000Y-30310738D02*
X15378095Y-30234547D01*
X15378095Y-30234547D02*
X15416190Y-30196452D01*
X15416190Y-30196452D02*
X15492381Y-30158357D01*
X15492381Y-30158357D02*
X15644762Y-30158357D01*
X15644762Y-30158357D02*
X15720952Y-30196452D01*
X15720952Y-30196452D02*
X15759047Y-30234547D01*
X15759047Y-30234547D02*
X15797143Y-30310738D01*
X5901904Y-7853595D02*
X5901904Y-7053595D01*
X5901904Y-7053595D02*
X5597142Y-7053595D01*
X5597142Y-7053595D02*
X5520952Y-7091690D01*
X5520952Y-7091690D02*
X5482857Y-7129785D01*
X5482857Y-7129785D02*
X5444761Y-7205976D01*
X5444761Y-7205976D02*
X5444761Y-7320261D01*
X5444761Y-7320261D02*
X5482857Y-7396452D01*
X5482857Y-7396452D02*
X5520952Y-7434547D01*
X5520952Y-7434547D02*
X5597142Y-7472642D01*
X5597142Y-7472642D02*
X5901904Y-7472642D01*
X5140000Y-7129785D02*
X5101904Y-7091690D01*
X5101904Y-7091690D02*
X5025714Y-7053595D01*
X5025714Y-7053595D02*
X4835238Y-7053595D01*
X4835238Y-7053595D02*
X4759047Y-7091690D01*
X4759047Y-7091690D02*
X4720952Y-7129785D01*
X4720952Y-7129785D02*
X4682857Y-7205976D01*
X4682857Y-7205976D02*
X4682857Y-7282166D01*
X4682857Y-7282166D02*
X4720952Y-7396452D01*
X4720952Y-7396452D02*
X5178095Y-7853595D01*
X5178095Y-7853595D02*
X4682857Y-7853595D01*
X4339999Y-7777404D02*
X4301904Y-7815500D01*
X4301904Y-7815500D02*
X4339999Y-7853595D01*
X4339999Y-7853595D02*
X4378095Y-7815500D01*
X4378095Y-7815500D02*
X4339999Y-7777404D01*
X4339999Y-7777404D02*
X4339999Y-7853595D01*
X3806666Y-7053595D02*
X3730476Y-7053595D01*
X3730476Y-7053595D02*
X3654285Y-7091690D01*
X3654285Y-7091690D02*
X3616190Y-7129785D01*
X3616190Y-7129785D02*
X3578095Y-7205976D01*
X3578095Y-7205976D02*
X3540000Y-7358357D01*
X3540000Y-7358357D02*
X3540000Y-7548833D01*
X3540000Y-7548833D02*
X3578095Y-7701214D01*
X3578095Y-7701214D02*
X3616190Y-7777404D01*
X3616190Y-7777404D02*
X3654285Y-7815500D01*
X3654285Y-7815500D02*
X3730476Y-7853595D01*
X3730476Y-7853595D02*
X3806666Y-7853595D01*
X3806666Y-7853595D02*
X3882857Y-7815500D01*
X3882857Y-7815500D02*
X3920952Y-7777404D01*
X3920952Y-7777404D02*
X3959047Y-7701214D01*
X3959047Y-7701214D02*
X3997143Y-7548833D01*
X3997143Y-7548833D02*
X3997143Y-7358357D01*
X3997143Y-7358357D02*
X3959047Y-7205976D01*
X3959047Y-7205976D02*
X3920952Y-7129785D01*
X3920952Y-7129785D02*
X3882857Y-7091690D01*
X3882857Y-7091690D02*
X3806666Y-7053595D01*
X17956666Y-7453595D02*
X17956666Y-6653595D01*
X17956666Y-6653595D02*
X17689999Y-6653595D01*
X17689999Y-6653595D02*
X17623333Y-6691690D01*
X17623333Y-6691690D02*
X17589999Y-6729785D01*
X17589999Y-6729785D02*
X17556666Y-6805976D01*
X17556666Y-6805976D02*
X17556666Y-6920261D01*
X17556666Y-6920261D02*
X17589999Y-6996452D01*
X17589999Y-6996452D02*
X17623333Y-7034547D01*
X17623333Y-7034547D02*
X17689999Y-7072642D01*
X17689999Y-7072642D02*
X17956666Y-7072642D01*
X17323333Y-6653595D02*
X16889999Y-6653595D01*
X16889999Y-6653595D02*
X17123333Y-6958357D01*
X17123333Y-6958357D02*
X17023333Y-6958357D01*
X17023333Y-6958357D02*
X16956666Y-6996452D01*
X16956666Y-6996452D02*
X16923333Y-7034547D01*
X16923333Y-7034547D02*
X16889999Y-7110738D01*
X16889999Y-7110738D02*
X16889999Y-7301214D01*
X16889999Y-7301214D02*
X16923333Y-7377404D01*
X16923333Y-7377404D02*
X16956666Y-7415500D01*
X16956666Y-7415500D02*
X17023333Y-7453595D01*
X17023333Y-7453595D02*
X17223333Y-7453595D01*
X17223333Y-7453595D02*
X17289999Y-7415500D01*
X17289999Y-7415500D02*
X17323333Y-7377404D01*
X16589999Y-7377404D02*
X16556666Y-7415500D01*
X16556666Y-7415500D02*
X16589999Y-7453595D01*
X16589999Y-7453595D02*
X16623332Y-7415500D01*
X16623332Y-7415500D02*
X16589999Y-7377404D01*
X16589999Y-7377404D02*
X16589999Y-7453595D01*
X16323333Y-6653595D02*
X15856666Y-6653595D01*
X15856666Y-6653595D02*
X16156666Y-7453595D01*
X5901904Y-40853595D02*
X5901904Y-40053595D01*
X5901904Y-40053595D02*
X5597142Y-40053595D01*
X5597142Y-40053595D02*
X5520952Y-40091690D01*
X5520952Y-40091690D02*
X5482857Y-40129785D01*
X5482857Y-40129785D02*
X5444761Y-40205976D01*
X5444761Y-40205976D02*
X5444761Y-40320261D01*
X5444761Y-40320261D02*
X5482857Y-40396452D01*
X5482857Y-40396452D02*
X5520952Y-40434547D01*
X5520952Y-40434547D02*
X5597142Y-40472642D01*
X5597142Y-40472642D02*
X5901904Y-40472642D01*
X4949523Y-40053595D02*
X4873333Y-40053595D01*
X4873333Y-40053595D02*
X4797142Y-40091690D01*
X4797142Y-40091690D02*
X4759047Y-40129785D01*
X4759047Y-40129785D02*
X4720952Y-40205976D01*
X4720952Y-40205976D02*
X4682857Y-40358357D01*
X4682857Y-40358357D02*
X4682857Y-40548833D01*
X4682857Y-40548833D02*
X4720952Y-40701214D01*
X4720952Y-40701214D02*
X4759047Y-40777404D01*
X4759047Y-40777404D02*
X4797142Y-40815500D01*
X4797142Y-40815500D02*
X4873333Y-40853595D01*
X4873333Y-40853595D02*
X4949523Y-40853595D01*
X4949523Y-40853595D02*
X5025714Y-40815500D01*
X5025714Y-40815500D02*
X5063809Y-40777404D01*
X5063809Y-40777404D02*
X5101904Y-40701214D01*
X5101904Y-40701214D02*
X5140000Y-40548833D01*
X5140000Y-40548833D02*
X5140000Y-40358357D01*
X5140000Y-40358357D02*
X5101904Y-40205976D01*
X5101904Y-40205976D02*
X5063809Y-40129785D01*
X5063809Y-40129785D02*
X5025714Y-40091690D01*
X5025714Y-40091690D02*
X4949523Y-40053595D01*
X4339999Y-40777404D02*
X4301904Y-40815500D01*
X4301904Y-40815500D02*
X4339999Y-40853595D01*
X4339999Y-40853595D02*
X4378095Y-40815500D01*
X4378095Y-40815500D02*
X4339999Y-40777404D01*
X4339999Y-40777404D02*
X4339999Y-40853595D01*
X3997143Y-40129785D02*
X3959047Y-40091690D01*
X3959047Y-40091690D02*
X3882857Y-40053595D01*
X3882857Y-40053595D02*
X3692381Y-40053595D01*
X3692381Y-40053595D02*
X3616190Y-40091690D01*
X3616190Y-40091690D02*
X3578095Y-40129785D01*
X3578095Y-40129785D02*
X3540000Y-40205976D01*
X3540000Y-40205976D02*
X3540000Y-40282166D01*
X3540000Y-40282166D02*
X3578095Y-40396452D01*
X3578095Y-40396452D02*
X4035238Y-40853595D01*
X4035238Y-40853595D02*
X3540000Y-40853595D01*
X5701904Y-20653595D02*
X5701904Y-19853595D01*
X5701904Y-19853595D02*
X5397142Y-19853595D01*
X5397142Y-19853595D02*
X5320952Y-19891690D01*
X5320952Y-19891690D02*
X5282857Y-19929785D01*
X5282857Y-19929785D02*
X5244761Y-20005976D01*
X5244761Y-20005976D02*
X5244761Y-20120261D01*
X5244761Y-20120261D02*
X5282857Y-20196452D01*
X5282857Y-20196452D02*
X5320952Y-20234547D01*
X5320952Y-20234547D02*
X5397142Y-20272642D01*
X5397142Y-20272642D02*
X5701904Y-20272642D01*
X4940000Y-19929785D02*
X4901904Y-19891690D01*
X4901904Y-19891690D02*
X4825714Y-19853595D01*
X4825714Y-19853595D02*
X4635238Y-19853595D01*
X4635238Y-19853595D02*
X4559047Y-19891690D01*
X4559047Y-19891690D02*
X4520952Y-19929785D01*
X4520952Y-19929785D02*
X4482857Y-20005976D01*
X4482857Y-20005976D02*
X4482857Y-20082166D01*
X4482857Y-20082166D02*
X4520952Y-20196452D01*
X4520952Y-20196452D02*
X4978095Y-20653595D01*
X4978095Y-20653595D02*
X4482857Y-20653595D01*
X4139999Y-20577404D02*
X4101904Y-20615500D01*
X4101904Y-20615500D02*
X4139999Y-20653595D01*
X4139999Y-20653595D02*
X4178095Y-20615500D01*
X4178095Y-20615500D02*
X4139999Y-20577404D01*
X4139999Y-20577404D02*
X4139999Y-20653595D01*
X3378095Y-19853595D02*
X3759047Y-19853595D01*
X3759047Y-19853595D02*
X3797143Y-20234547D01*
X3797143Y-20234547D02*
X3759047Y-20196452D01*
X3759047Y-20196452D02*
X3682857Y-20158357D01*
X3682857Y-20158357D02*
X3492381Y-20158357D01*
X3492381Y-20158357D02*
X3416190Y-20196452D01*
X3416190Y-20196452D02*
X3378095Y-20234547D01*
X3378095Y-20234547D02*
X3340000Y-20310738D01*
X3340000Y-20310738D02*
X3340000Y-20501214D01*
X3340000Y-20501214D02*
X3378095Y-20577404D01*
X3378095Y-20577404D02*
X3416190Y-20615500D01*
X3416190Y-20615500D02*
X3492381Y-20653595D01*
X3492381Y-20653595D02*
X3682857Y-20653595D01*
X3682857Y-20653595D02*
X3759047Y-20615500D01*
X3759047Y-20615500D02*
X3797143Y-20577404D01*
X17901904Y-13053595D02*
X17901904Y-12253595D01*
X17901904Y-12253595D02*
X17597142Y-12253595D01*
X17597142Y-12253595D02*
X17520952Y-12291690D01*
X17520952Y-12291690D02*
X17482857Y-12329785D01*
X17482857Y-12329785D02*
X17444761Y-12405976D01*
X17444761Y-12405976D02*
X17444761Y-12520261D01*
X17444761Y-12520261D02*
X17482857Y-12596452D01*
X17482857Y-12596452D02*
X17520952Y-12634547D01*
X17520952Y-12634547D02*
X17597142Y-12672642D01*
X17597142Y-12672642D02*
X17901904Y-12672642D01*
X17178095Y-12253595D02*
X16682857Y-12253595D01*
X16682857Y-12253595D02*
X16949523Y-12558357D01*
X16949523Y-12558357D02*
X16835238Y-12558357D01*
X16835238Y-12558357D02*
X16759047Y-12596452D01*
X16759047Y-12596452D02*
X16720952Y-12634547D01*
X16720952Y-12634547D02*
X16682857Y-12710738D01*
X16682857Y-12710738D02*
X16682857Y-12901214D01*
X16682857Y-12901214D02*
X16720952Y-12977404D01*
X16720952Y-12977404D02*
X16759047Y-13015500D01*
X16759047Y-13015500D02*
X16835238Y-13053595D01*
X16835238Y-13053595D02*
X17063809Y-13053595D01*
X17063809Y-13053595D02*
X17140000Y-13015500D01*
X17140000Y-13015500D02*
X17178095Y-12977404D01*
X16339999Y-12977404D02*
X16301904Y-13015500D01*
X16301904Y-13015500D02*
X16339999Y-13053595D01*
X16339999Y-13053595D02*
X16378095Y-13015500D01*
X16378095Y-13015500D02*
X16339999Y-12977404D01*
X16339999Y-12977404D02*
X16339999Y-13053595D01*
X15578095Y-12253595D02*
X15959047Y-12253595D01*
X15959047Y-12253595D02*
X15997143Y-12634547D01*
X15997143Y-12634547D02*
X15959047Y-12596452D01*
X15959047Y-12596452D02*
X15882857Y-12558357D01*
X15882857Y-12558357D02*
X15692381Y-12558357D01*
X15692381Y-12558357D02*
X15616190Y-12596452D01*
X15616190Y-12596452D02*
X15578095Y-12634547D01*
X15578095Y-12634547D02*
X15540000Y-12710738D01*
X15540000Y-12710738D02*
X15540000Y-12901214D01*
X15540000Y-12901214D02*
X15578095Y-12977404D01*
X15578095Y-12977404D02*
X15616190Y-13015500D01*
X15616190Y-13015500D02*
X15692381Y-13053595D01*
X15692381Y-13053595D02*
X15882857Y-13053595D01*
X15882857Y-13053595D02*
X15959047Y-13015500D01*
X15959047Y-13015500D02*
X15997143Y-12977404D01*
X17701904Y-43253595D02*
X17701904Y-42453595D01*
X17701904Y-42453595D02*
X17397142Y-42453595D01*
X17397142Y-42453595D02*
X17320952Y-42491690D01*
X17320952Y-42491690D02*
X17282857Y-42529785D01*
X17282857Y-42529785D02*
X17244761Y-42605976D01*
X17244761Y-42605976D02*
X17244761Y-42720261D01*
X17244761Y-42720261D02*
X17282857Y-42796452D01*
X17282857Y-42796452D02*
X17320952Y-42834547D01*
X17320952Y-42834547D02*
X17397142Y-42872642D01*
X17397142Y-42872642D02*
X17701904Y-42872642D01*
X16482857Y-43253595D02*
X16940000Y-43253595D01*
X16711428Y-43253595D02*
X16711428Y-42453595D01*
X16711428Y-42453595D02*
X16787619Y-42567880D01*
X16787619Y-42567880D02*
X16863809Y-42644071D01*
X16863809Y-42644071D02*
X16940000Y-42682166D01*
X16139999Y-43177404D02*
X16101904Y-43215500D01*
X16101904Y-43215500D02*
X16139999Y-43253595D01*
X16139999Y-43253595D02*
X16178095Y-43215500D01*
X16178095Y-43215500D02*
X16139999Y-43177404D01*
X16139999Y-43177404D02*
X16139999Y-43253595D01*
X15340000Y-43253595D02*
X15797143Y-43253595D01*
X15568571Y-43253595D02*
X15568571Y-42453595D01*
X15568571Y-42453595D02*
X15644762Y-42567880D01*
X15644762Y-42567880D02*
X15720952Y-42644071D01*
X15720952Y-42644071D02*
X15797143Y-42682166D01*
X17901904Y-18053595D02*
X17901904Y-17253595D01*
X17901904Y-17253595D02*
X17597142Y-17253595D01*
X17597142Y-17253595D02*
X17520952Y-17291690D01*
X17520952Y-17291690D02*
X17482857Y-17329785D01*
X17482857Y-17329785D02*
X17444761Y-17405976D01*
X17444761Y-17405976D02*
X17444761Y-17520261D01*
X17444761Y-17520261D02*
X17482857Y-17596452D01*
X17482857Y-17596452D02*
X17520952Y-17634547D01*
X17520952Y-17634547D02*
X17597142Y-17672642D01*
X17597142Y-17672642D02*
X17901904Y-17672642D01*
X17178095Y-17253595D02*
X16682857Y-17253595D01*
X16682857Y-17253595D02*
X16949523Y-17558357D01*
X16949523Y-17558357D02*
X16835238Y-17558357D01*
X16835238Y-17558357D02*
X16759047Y-17596452D01*
X16759047Y-17596452D02*
X16720952Y-17634547D01*
X16720952Y-17634547D02*
X16682857Y-17710738D01*
X16682857Y-17710738D02*
X16682857Y-17901214D01*
X16682857Y-17901214D02*
X16720952Y-17977404D01*
X16720952Y-17977404D02*
X16759047Y-18015500D01*
X16759047Y-18015500D02*
X16835238Y-18053595D01*
X16835238Y-18053595D02*
X17063809Y-18053595D01*
X17063809Y-18053595D02*
X17140000Y-18015500D01*
X17140000Y-18015500D02*
X17178095Y-17977404D01*
X16339999Y-17977404D02*
X16301904Y-18015500D01*
X16301904Y-18015500D02*
X16339999Y-18053595D01*
X16339999Y-18053595D02*
X16378095Y-18015500D01*
X16378095Y-18015500D02*
X16339999Y-17977404D01*
X16339999Y-17977404D02*
X16339999Y-18053595D01*
X16035238Y-17253595D02*
X15540000Y-17253595D01*
X15540000Y-17253595D02*
X15806666Y-17558357D01*
X15806666Y-17558357D02*
X15692381Y-17558357D01*
X15692381Y-17558357D02*
X15616190Y-17596452D01*
X15616190Y-17596452D02*
X15578095Y-17634547D01*
X15578095Y-17634547D02*
X15540000Y-17710738D01*
X15540000Y-17710738D02*
X15540000Y-17901214D01*
X15540000Y-17901214D02*
X15578095Y-17977404D01*
X15578095Y-17977404D02*
X15616190Y-18015500D01*
X15616190Y-18015500D02*
X15692381Y-18053595D01*
X15692381Y-18053595D02*
X15920952Y-18053595D01*
X15920952Y-18053595D02*
X15997143Y-18015500D01*
X15997143Y-18015500D02*
X16035238Y-17977404D01*
X5901904Y-10253595D02*
X5901904Y-9453595D01*
X5901904Y-9453595D02*
X5597142Y-9453595D01*
X5597142Y-9453595D02*
X5520952Y-9491690D01*
X5520952Y-9491690D02*
X5482857Y-9529785D01*
X5482857Y-9529785D02*
X5444761Y-9605976D01*
X5444761Y-9605976D02*
X5444761Y-9720261D01*
X5444761Y-9720261D02*
X5482857Y-9796452D01*
X5482857Y-9796452D02*
X5520952Y-9834547D01*
X5520952Y-9834547D02*
X5597142Y-9872642D01*
X5597142Y-9872642D02*
X5901904Y-9872642D01*
X5140000Y-9529785D02*
X5101904Y-9491690D01*
X5101904Y-9491690D02*
X5025714Y-9453595D01*
X5025714Y-9453595D02*
X4835238Y-9453595D01*
X4835238Y-9453595D02*
X4759047Y-9491690D01*
X4759047Y-9491690D02*
X4720952Y-9529785D01*
X4720952Y-9529785D02*
X4682857Y-9605976D01*
X4682857Y-9605976D02*
X4682857Y-9682166D01*
X4682857Y-9682166D02*
X4720952Y-9796452D01*
X4720952Y-9796452D02*
X5178095Y-10253595D01*
X5178095Y-10253595D02*
X4682857Y-10253595D01*
X4339999Y-10177404D02*
X4301904Y-10215500D01*
X4301904Y-10215500D02*
X4339999Y-10253595D01*
X4339999Y-10253595D02*
X4378095Y-10215500D01*
X4378095Y-10215500D02*
X4339999Y-10177404D01*
X4339999Y-10177404D02*
X4339999Y-10253595D01*
X3540000Y-10253595D02*
X3997143Y-10253595D01*
X3768571Y-10253595D02*
X3768571Y-9453595D01*
X3768571Y-9453595D02*
X3844762Y-9567880D01*
X3844762Y-9567880D02*
X3920952Y-9644071D01*
X3920952Y-9644071D02*
X3997143Y-9682166D01*
X17701904Y-45853595D02*
X17701904Y-45053595D01*
X17701904Y-45053595D02*
X17397142Y-45053595D01*
X17397142Y-45053595D02*
X17320952Y-45091690D01*
X17320952Y-45091690D02*
X17282857Y-45129785D01*
X17282857Y-45129785D02*
X17244761Y-45205976D01*
X17244761Y-45205976D02*
X17244761Y-45320261D01*
X17244761Y-45320261D02*
X17282857Y-45396452D01*
X17282857Y-45396452D02*
X17320952Y-45434547D01*
X17320952Y-45434547D02*
X17397142Y-45472642D01*
X17397142Y-45472642D02*
X17701904Y-45472642D01*
X16482857Y-45853595D02*
X16940000Y-45853595D01*
X16711428Y-45853595D02*
X16711428Y-45053595D01*
X16711428Y-45053595D02*
X16787619Y-45167880D01*
X16787619Y-45167880D02*
X16863809Y-45244071D01*
X16863809Y-45244071D02*
X16940000Y-45282166D01*
X16139999Y-45777404D02*
X16101904Y-45815500D01*
X16101904Y-45815500D02*
X16139999Y-45853595D01*
X16139999Y-45853595D02*
X16178095Y-45815500D01*
X16178095Y-45815500D02*
X16139999Y-45777404D01*
X16139999Y-45777404D02*
X16139999Y-45853595D01*
X15606666Y-45053595D02*
X15530476Y-45053595D01*
X15530476Y-45053595D02*
X15454285Y-45091690D01*
X15454285Y-45091690D02*
X15416190Y-45129785D01*
X15416190Y-45129785D02*
X15378095Y-45205976D01*
X15378095Y-45205976D02*
X15340000Y-45358357D01*
X15340000Y-45358357D02*
X15340000Y-45548833D01*
X15340000Y-45548833D02*
X15378095Y-45701214D01*
X15378095Y-45701214D02*
X15416190Y-45777404D01*
X15416190Y-45777404D02*
X15454285Y-45815500D01*
X15454285Y-45815500D02*
X15530476Y-45853595D01*
X15530476Y-45853595D02*
X15606666Y-45853595D01*
X15606666Y-45853595D02*
X15682857Y-45815500D01*
X15682857Y-45815500D02*
X15720952Y-45777404D01*
X15720952Y-45777404D02*
X15759047Y-45701214D01*
X15759047Y-45701214D02*
X15797143Y-45548833D01*
X15797143Y-45548833D02*
X15797143Y-45358357D01*
X15797143Y-45358357D02*
X15759047Y-45205976D01*
X15759047Y-45205976D02*
X15720952Y-45129785D01*
X15720952Y-45129785D02*
X15682857Y-45091690D01*
X15682857Y-45091690D02*
X15606666Y-45053595D01*
X5701904Y-28053595D02*
X5701904Y-27253595D01*
X5701904Y-27253595D02*
X5397142Y-27253595D01*
X5397142Y-27253595D02*
X5320952Y-27291690D01*
X5320952Y-27291690D02*
X5282857Y-27329785D01*
X5282857Y-27329785D02*
X5244761Y-27405976D01*
X5244761Y-27405976D02*
X5244761Y-27520261D01*
X5244761Y-27520261D02*
X5282857Y-27596452D01*
X5282857Y-27596452D02*
X5320952Y-27634547D01*
X5320952Y-27634547D02*
X5397142Y-27672642D01*
X5397142Y-27672642D02*
X5701904Y-27672642D01*
X4749523Y-27253595D02*
X4673333Y-27253595D01*
X4673333Y-27253595D02*
X4597142Y-27291690D01*
X4597142Y-27291690D02*
X4559047Y-27329785D01*
X4559047Y-27329785D02*
X4520952Y-27405976D01*
X4520952Y-27405976D02*
X4482857Y-27558357D01*
X4482857Y-27558357D02*
X4482857Y-27748833D01*
X4482857Y-27748833D02*
X4520952Y-27901214D01*
X4520952Y-27901214D02*
X4559047Y-27977404D01*
X4559047Y-27977404D02*
X4597142Y-28015500D01*
X4597142Y-28015500D02*
X4673333Y-28053595D01*
X4673333Y-28053595D02*
X4749523Y-28053595D01*
X4749523Y-28053595D02*
X4825714Y-28015500D01*
X4825714Y-28015500D02*
X4863809Y-27977404D01*
X4863809Y-27977404D02*
X4901904Y-27901214D01*
X4901904Y-27901214D02*
X4940000Y-27748833D01*
X4940000Y-27748833D02*
X4940000Y-27558357D01*
X4940000Y-27558357D02*
X4901904Y-27405976D01*
X4901904Y-27405976D02*
X4863809Y-27329785D01*
X4863809Y-27329785D02*
X4825714Y-27291690D01*
X4825714Y-27291690D02*
X4749523Y-27253595D01*
X4139999Y-27977404D02*
X4101904Y-28015500D01*
X4101904Y-28015500D02*
X4139999Y-28053595D01*
X4139999Y-28053595D02*
X4178095Y-28015500D01*
X4178095Y-28015500D02*
X4139999Y-27977404D01*
X4139999Y-27977404D02*
X4139999Y-28053595D01*
X3835238Y-27253595D02*
X3301904Y-27253595D01*
X3301904Y-27253595D02*
X3644762Y-28053595D01*
X5901904Y-33253595D02*
X5901904Y-32453595D01*
X5901904Y-32453595D02*
X5597142Y-32453595D01*
X5597142Y-32453595D02*
X5520952Y-32491690D01*
X5520952Y-32491690D02*
X5482857Y-32529785D01*
X5482857Y-32529785D02*
X5444761Y-32605976D01*
X5444761Y-32605976D02*
X5444761Y-32720261D01*
X5444761Y-32720261D02*
X5482857Y-32796452D01*
X5482857Y-32796452D02*
X5520952Y-32834547D01*
X5520952Y-32834547D02*
X5597142Y-32872642D01*
X5597142Y-32872642D02*
X5901904Y-32872642D01*
X4949523Y-32453595D02*
X4873333Y-32453595D01*
X4873333Y-32453595D02*
X4797142Y-32491690D01*
X4797142Y-32491690D02*
X4759047Y-32529785D01*
X4759047Y-32529785D02*
X4720952Y-32605976D01*
X4720952Y-32605976D02*
X4682857Y-32758357D01*
X4682857Y-32758357D02*
X4682857Y-32948833D01*
X4682857Y-32948833D02*
X4720952Y-33101214D01*
X4720952Y-33101214D02*
X4759047Y-33177404D01*
X4759047Y-33177404D02*
X4797142Y-33215500D01*
X4797142Y-33215500D02*
X4873333Y-33253595D01*
X4873333Y-33253595D02*
X4949523Y-33253595D01*
X4949523Y-33253595D02*
X5025714Y-33215500D01*
X5025714Y-33215500D02*
X5063809Y-33177404D01*
X5063809Y-33177404D02*
X5101904Y-33101214D01*
X5101904Y-33101214D02*
X5140000Y-32948833D01*
X5140000Y-32948833D02*
X5140000Y-32758357D01*
X5140000Y-32758357D02*
X5101904Y-32605976D01*
X5101904Y-32605976D02*
X5063809Y-32529785D01*
X5063809Y-32529785D02*
X5025714Y-32491690D01*
X5025714Y-32491690D02*
X4949523Y-32453595D01*
X4339999Y-33177404D02*
X4301904Y-33215500D01*
X4301904Y-33215500D02*
X4339999Y-33253595D01*
X4339999Y-33253595D02*
X4378095Y-33215500D01*
X4378095Y-33215500D02*
X4339999Y-33177404D01*
X4339999Y-33177404D02*
X4339999Y-33253595D01*
X3578095Y-32453595D02*
X3959047Y-32453595D01*
X3959047Y-32453595D02*
X3997143Y-32834547D01*
X3997143Y-32834547D02*
X3959047Y-32796452D01*
X3959047Y-32796452D02*
X3882857Y-32758357D01*
X3882857Y-32758357D02*
X3692381Y-32758357D01*
X3692381Y-32758357D02*
X3616190Y-32796452D01*
X3616190Y-32796452D02*
X3578095Y-32834547D01*
X3578095Y-32834547D02*
X3540000Y-32910738D01*
X3540000Y-32910738D02*
X3540000Y-33101214D01*
X3540000Y-33101214D02*
X3578095Y-33177404D01*
X3578095Y-33177404D02*
X3616190Y-33215500D01*
X3616190Y-33215500D02*
X3692381Y-33253595D01*
X3692381Y-33253595D02*
X3882857Y-33253595D01*
X3882857Y-33253595D02*
X3959047Y-33215500D01*
X3959047Y-33215500D02*
X3997143Y-33177404D01*
X5901904Y-18053595D02*
X5901904Y-17253595D01*
X5901904Y-17253595D02*
X5597142Y-17253595D01*
X5597142Y-17253595D02*
X5520952Y-17291690D01*
X5520952Y-17291690D02*
X5482857Y-17329785D01*
X5482857Y-17329785D02*
X5444761Y-17405976D01*
X5444761Y-17405976D02*
X5444761Y-17520261D01*
X5444761Y-17520261D02*
X5482857Y-17596452D01*
X5482857Y-17596452D02*
X5520952Y-17634547D01*
X5520952Y-17634547D02*
X5597142Y-17672642D01*
X5597142Y-17672642D02*
X5901904Y-17672642D01*
X5140000Y-17329785D02*
X5101904Y-17291690D01*
X5101904Y-17291690D02*
X5025714Y-17253595D01*
X5025714Y-17253595D02*
X4835238Y-17253595D01*
X4835238Y-17253595D02*
X4759047Y-17291690D01*
X4759047Y-17291690D02*
X4720952Y-17329785D01*
X4720952Y-17329785D02*
X4682857Y-17405976D01*
X4682857Y-17405976D02*
X4682857Y-17482166D01*
X4682857Y-17482166D02*
X4720952Y-17596452D01*
X4720952Y-17596452D02*
X5178095Y-18053595D01*
X5178095Y-18053595D02*
X4682857Y-18053595D01*
X4339999Y-17977404D02*
X4301904Y-18015500D01*
X4301904Y-18015500D02*
X4339999Y-18053595D01*
X4339999Y-18053595D02*
X4378095Y-18015500D01*
X4378095Y-18015500D02*
X4339999Y-17977404D01*
X4339999Y-17977404D02*
X4339999Y-18053595D01*
X3616190Y-17520261D02*
X3616190Y-18053595D01*
X3806666Y-17215500D02*
X3997143Y-17786928D01*
X3997143Y-17786928D02*
X3501904Y-17786928D01*
X17901904Y-10453595D02*
X17901904Y-9653595D01*
X17901904Y-9653595D02*
X17597142Y-9653595D01*
X17597142Y-9653595D02*
X17520952Y-9691690D01*
X17520952Y-9691690D02*
X17482857Y-9729785D01*
X17482857Y-9729785D02*
X17444761Y-9805976D01*
X17444761Y-9805976D02*
X17444761Y-9920261D01*
X17444761Y-9920261D02*
X17482857Y-9996452D01*
X17482857Y-9996452D02*
X17520952Y-10034547D01*
X17520952Y-10034547D02*
X17597142Y-10072642D01*
X17597142Y-10072642D02*
X17901904Y-10072642D01*
X17178095Y-9653595D02*
X16682857Y-9653595D01*
X16682857Y-9653595D02*
X16949523Y-9958357D01*
X16949523Y-9958357D02*
X16835238Y-9958357D01*
X16835238Y-9958357D02*
X16759047Y-9996452D01*
X16759047Y-9996452D02*
X16720952Y-10034547D01*
X16720952Y-10034547D02*
X16682857Y-10110738D01*
X16682857Y-10110738D02*
X16682857Y-10301214D01*
X16682857Y-10301214D02*
X16720952Y-10377404D01*
X16720952Y-10377404D02*
X16759047Y-10415500D01*
X16759047Y-10415500D02*
X16835238Y-10453595D01*
X16835238Y-10453595D02*
X17063809Y-10453595D01*
X17063809Y-10453595D02*
X17140000Y-10415500D01*
X17140000Y-10415500D02*
X17178095Y-10377404D01*
X16339999Y-10377404D02*
X16301904Y-10415500D01*
X16301904Y-10415500D02*
X16339999Y-10453595D01*
X16339999Y-10453595D02*
X16378095Y-10415500D01*
X16378095Y-10415500D02*
X16339999Y-10377404D01*
X16339999Y-10377404D02*
X16339999Y-10453595D01*
X15616190Y-9653595D02*
X15768571Y-9653595D01*
X15768571Y-9653595D02*
X15844762Y-9691690D01*
X15844762Y-9691690D02*
X15882857Y-9729785D01*
X15882857Y-9729785D02*
X15959047Y-9844071D01*
X15959047Y-9844071D02*
X15997143Y-9996452D01*
X15997143Y-9996452D02*
X15997143Y-10301214D01*
X15997143Y-10301214D02*
X15959047Y-10377404D01*
X15959047Y-10377404D02*
X15920952Y-10415500D01*
X15920952Y-10415500D02*
X15844762Y-10453595D01*
X15844762Y-10453595D02*
X15692381Y-10453595D01*
X15692381Y-10453595D02*
X15616190Y-10415500D01*
X15616190Y-10415500D02*
X15578095Y-10377404D01*
X15578095Y-10377404D02*
X15540000Y-10301214D01*
X15540000Y-10301214D02*
X15540000Y-10110738D01*
X15540000Y-10110738D02*
X15578095Y-10034547D01*
X15578095Y-10034547D02*
X15616190Y-9996452D01*
X15616190Y-9996452D02*
X15692381Y-9958357D01*
X15692381Y-9958357D02*
X15844762Y-9958357D01*
X15844762Y-9958357D02*
X15920952Y-9996452D01*
X15920952Y-9996452D02*
X15959047Y-10034547D01*
X15959047Y-10034547D02*
X15997143Y-10110738D01*
X5901904Y-15253595D02*
X5901904Y-14453595D01*
X5901904Y-14453595D02*
X5597142Y-14453595D01*
X5597142Y-14453595D02*
X5520952Y-14491690D01*
X5520952Y-14491690D02*
X5482857Y-14529785D01*
X5482857Y-14529785D02*
X5444761Y-14605976D01*
X5444761Y-14605976D02*
X5444761Y-14720261D01*
X5444761Y-14720261D02*
X5482857Y-14796452D01*
X5482857Y-14796452D02*
X5520952Y-14834547D01*
X5520952Y-14834547D02*
X5597142Y-14872642D01*
X5597142Y-14872642D02*
X5901904Y-14872642D01*
X5140000Y-14529785D02*
X5101904Y-14491690D01*
X5101904Y-14491690D02*
X5025714Y-14453595D01*
X5025714Y-14453595D02*
X4835238Y-14453595D01*
X4835238Y-14453595D02*
X4759047Y-14491690D01*
X4759047Y-14491690D02*
X4720952Y-14529785D01*
X4720952Y-14529785D02*
X4682857Y-14605976D01*
X4682857Y-14605976D02*
X4682857Y-14682166D01*
X4682857Y-14682166D02*
X4720952Y-14796452D01*
X4720952Y-14796452D02*
X5178095Y-15253595D01*
X5178095Y-15253595D02*
X4682857Y-15253595D01*
X4339999Y-15177404D02*
X4301904Y-15215500D01*
X4301904Y-15215500D02*
X4339999Y-15253595D01*
X4339999Y-15253595D02*
X4378095Y-15215500D01*
X4378095Y-15215500D02*
X4339999Y-15177404D01*
X4339999Y-15177404D02*
X4339999Y-15253595D01*
X3616190Y-14720261D02*
X3616190Y-15253595D01*
X3806666Y-14415500D02*
X3997143Y-14986928D01*
X3997143Y-14986928D02*
X3501904Y-14986928D01*
X17701904Y-35853595D02*
X17701904Y-35053595D01*
X17701904Y-35053595D02*
X17397142Y-35053595D01*
X17397142Y-35053595D02*
X17320952Y-35091690D01*
X17320952Y-35091690D02*
X17282857Y-35129785D01*
X17282857Y-35129785D02*
X17244761Y-35205976D01*
X17244761Y-35205976D02*
X17244761Y-35320261D01*
X17244761Y-35320261D02*
X17282857Y-35396452D01*
X17282857Y-35396452D02*
X17320952Y-35434547D01*
X17320952Y-35434547D02*
X17397142Y-35472642D01*
X17397142Y-35472642D02*
X17701904Y-35472642D01*
X16482857Y-35853595D02*
X16940000Y-35853595D01*
X16711428Y-35853595D02*
X16711428Y-35053595D01*
X16711428Y-35053595D02*
X16787619Y-35167880D01*
X16787619Y-35167880D02*
X16863809Y-35244071D01*
X16863809Y-35244071D02*
X16940000Y-35282166D01*
X16139999Y-35777404D02*
X16101904Y-35815500D01*
X16101904Y-35815500D02*
X16139999Y-35853595D01*
X16139999Y-35853595D02*
X16178095Y-35815500D01*
X16178095Y-35815500D02*
X16139999Y-35777404D01*
X16139999Y-35777404D02*
X16139999Y-35853595D01*
X15416190Y-35320261D02*
X15416190Y-35853595D01*
X15606666Y-35015500D02*
X15797143Y-35586928D01*
X15797143Y-35586928D02*
X15301904Y-35586928D01*
D11*
G36*
X12569394Y-35331111D02*
G01*
X8458093Y-35331111D01*
X8458093Y-35220000D01*
X8569204Y-35220000D01*
X9086999Y-35220000D01*
X9533719Y-34872991D01*
X9539214Y-34872991D01*
X9539214Y-35220000D01*
X9970914Y-35220000D01*
X10334469Y-35220000D01*
X10766168Y-35220000D01*
X10766168Y-34792575D01*
X11107131Y-34792575D01*
X11107131Y-35220000D01*
X11537487Y-35220000D01*
X11537487Y-34832325D01*
X11549587Y-34766743D01*
X11580836Y-34722470D01*
X11626832Y-34693541D01*
X11688062Y-34676305D01*
X11769762Y-34670148D01*
X11840459Y-34674981D01*
X11901053Y-34689080D01*
X11954166Y-34713073D01*
X11993651Y-34743484D01*
X12018010Y-34779341D01*
X12026584Y-34822067D01*
X12026584Y-35220000D01*
X12458283Y-35220000D01*
X12458283Y-34520488D01*
X12026584Y-34520488D01*
X12026584Y-34632534D01*
X12021088Y-34632534D01*
X11951933Y-34585577D01*
X11873844Y-34550369D01*
X11785914Y-34525436D01*
X11686156Y-34510165D01*
X11571681Y-34504856D01*
X11446517Y-34510928D01*
X11346317Y-34527810D01*
X11265695Y-34554592D01*
X11201226Y-34591873D01*
X11151892Y-34641677D01*
X11119229Y-34707206D01*
X11107131Y-34792575D01*
X10766168Y-34792575D01*
X10766168Y-34520488D01*
X10334469Y-34520488D01*
X10334469Y-35220000D01*
X9970914Y-35220000D01*
X9970914Y-34294747D01*
X10298932Y-34294747D01*
X10306842Y-34326119D01*
X10329684Y-34352703D01*
X10367930Y-34375652D01*
X10417243Y-34392821D01*
X10476242Y-34403416D01*
X10547571Y-34407159D01*
X10617868Y-34403333D01*
X10676712Y-34392433D01*
X10726601Y-34374614D01*
X10765503Y-34351089D01*
X10788397Y-34324796D01*
X10796210Y-34294747D01*
X10788248Y-34263868D01*
X10765236Y-34237755D01*
X10726601Y-34215245D01*
X10676959Y-34198425D01*
X10618107Y-34188061D01*
X10547571Y-34184410D01*
X10476146Y-34188084D01*
X10417145Y-34198468D01*
X10367930Y-34215245D01*
X10329662Y-34237732D01*
X10306836Y-34263846D01*
X10298932Y-34294747D01*
X9970914Y-34294747D01*
X9970914Y-34184410D01*
X9539214Y-34184410D01*
X9539214Y-34843621D01*
X9533719Y-34843621D01*
X9117041Y-34520488D01*
X8604741Y-34520488D01*
X9106050Y-34849056D01*
X8569204Y-35220000D01*
X8458093Y-35220000D01*
X8458093Y-34073299D01*
X12569394Y-34073299D01*
X12569394Y-35331111D01*
G37*
%TO.C,REF\u002A\u002A*%
D12*
X7640000Y-34202300D02*
X8140000Y-34202300D01*
X8140000Y-35677700D01*
X7640000Y-35677700D01*
X7640000Y-34202300D01*
G36*
X7640000Y-34202300D02*
G01*
X8140000Y-34202300D01*
X8140000Y-35677700D01*
X7640000Y-35677700D01*
X7640000Y-34202300D01*
G37*
X8065000Y-35640000D02*
X12815000Y-35640000D01*
X12815000Y-36140000D01*
X8065000Y-36140000D01*
X8065000Y-35640000D01*
G36*
X8065000Y-35640000D02*
G01*
X12815000Y-35640000D01*
X12815000Y-36140000D01*
X8065000Y-36140000D01*
X8065000Y-35640000D01*
G37*
X8164600Y-33640000D02*
X12890000Y-33640000D01*
X12890000Y-33915400D01*
X8164600Y-33915400D01*
X8164600Y-33640000D01*
G36*
X8164600Y-33640000D02*
G01*
X12890000Y-33640000D01*
X12890000Y-33915400D01*
X8164600Y-33915400D01*
X8164600Y-33640000D01*
G37*
X12640000Y-34165000D02*
X13440000Y-34165000D01*
X13440000Y-35615000D01*
X12640000Y-35615000D01*
X12640000Y-34165000D01*
G36*
X12640000Y-34165000D02*
G01*
X13440000Y-34165000D01*
X13440000Y-35615000D01*
X12640000Y-35615000D01*
X12640000Y-34165000D01*
G37*
D13*
X8420000Y-34140000D02*
G75*
G02*
X7860000Y-34140000I-280000J0D01*
G01*
X7860000Y-34140000D02*
G75*
G02*
X8420000Y-34140000I280000J0D01*
G01*
X8420000Y-35640000D02*
G75*
G02*
X7860000Y-35640000I-280000J0D01*
G01*
X7860000Y-35640000D02*
G75*
G02*
X8420000Y-35640000I280000J0D01*
G01*
X13220000Y-34140000D02*
G75*
G02*
X12660000Y-34140000I-280000J0D01*
G01*
X12660000Y-34140000D02*
G75*
G02*
X13220000Y-34140000I280000J0D01*
G01*
X13220000Y-35640000D02*
G75*
G02*
X12660000Y-35640000I-280000J0D01*
G01*
X12660000Y-35640000D02*
G75*
G02*
X13220000Y-35640000I280000J0D01*
G01*
D12*
%TO.C,R2*%
X11060000Y-3153641D02*
X11060000Y-2846359D01*
X11820000Y-3153641D02*
X11820000Y-2846359D01*
%TO.C,C2*%
X5580000Y-12882164D02*
X5580000Y-13097836D01*
X6300000Y-12882164D02*
X6300000Y-13097836D01*
%TO.C,R1*%
X9560000Y-3143641D02*
X9560000Y-2836359D01*
X10320000Y-3143641D02*
X10320000Y-2836359D01*
%TO.C,J3*%
X610000Y-3440000D02*
X610000Y-46680000D01*
X3270000Y-840000D02*
X1940000Y-840000D01*
X3270000Y-2170000D02*
X3270000Y-840000D01*
X3270000Y-3440000D02*
X610000Y-3440000D01*
X3270000Y-3440000D02*
X3270000Y-46680000D01*
X3270000Y-46680000D02*
X610000Y-46680000D01*
%TO.C,U2*%
X6990000Y-15700000D02*
X13000000Y-15700000D01*
X9240000Y-8880000D02*
X13000000Y-8880000D01*
X13000000Y-8880000D02*
X13000000Y-10140000D01*
X13000000Y-15700000D02*
X13000000Y-14440000D01*
D14*
%TO.C,U1*%
X7815000Y-18165000D02*
X7815000Y-18815000D01*
X7815000Y-18165000D02*
X13565000Y-18165000D01*
X7815000Y-28240000D02*
X6215000Y-28240000D01*
X7815000Y-28815000D02*
X7815000Y-28240000D01*
X7815000Y-28815000D02*
X13565000Y-28815000D01*
X13565000Y-18165000D02*
X13565000Y-18815000D01*
X13565000Y-28815000D02*
X13565000Y-28165000D01*
D12*
%TO.C,R9*%
X10560000Y-37336359D02*
X10560000Y-37643641D01*
X11320000Y-37336359D02*
X11320000Y-37643641D01*
%TO.C,R8*%
X7660000Y-37346359D02*
X7660000Y-37653641D01*
X8420000Y-37346359D02*
X8420000Y-37653641D01*
%TO.C,C1*%
X8567836Y-7630000D02*
X8352164Y-7630000D01*
X8567836Y-8350000D02*
X8352164Y-8350000D01*
%TO.C,J2*%
X18110000Y-3440000D02*
X18110000Y-46680000D01*
X20770000Y-840000D02*
X19440000Y-840000D01*
X20770000Y-2170000D02*
X20770000Y-840000D01*
X20770000Y-3440000D02*
X18110000Y-3440000D01*
X20770000Y-3440000D02*
X20770000Y-46680000D01*
X20770000Y-46680000D02*
X18110000Y-46680000D01*
%TO.C,R7*%
X9160000Y-37336359D02*
X9160000Y-37643641D01*
X9920000Y-37336359D02*
X9920000Y-37643641D01*
%TD*%
M02*
