%TF.GenerationSoftware,KiCad,Pcbnew,9.0.1*%
%TF.CreationDate,2026-05-31T13:24:01+05:30*%
%TF.ProjectId,8051DevBoardV2,38303531-4465-4764-926f-61726456322e,rev?*%
%TF.SameCoordinates,PX2e4f780PY569a690*%
%TF.FileFunction,Copper,L1,Top*%
%TF.FilePolarity,Positive*%
%FSLAX46Y46*%
G04 Gerber Fmt 4.6, Leading zero omitted, Abs format (unit mm)*
G04 Created by KiCad (PCBNEW 9.0.1) date 2026-05-31 13:24:01*
%MOMM*%
%LPD*%
G01*
G04 APERTURE LIST*
G04 Aperture macros list*
%AMRoundRect*
0 Rectangle with rounded corners*
0 $1 Rounding radius*
0 $2 $3 $4 $5 $6 $7 $8 $9 X,Y pos of 4 corners*
0 Add a 4 corners polygon primitive as box body*
4,1,4,$2,$3,$4,$5,$6,$7,$8,$9,$2,$3,0*
0 Add four circle primitives for the rounded corners*
1,1,$1+$1,$2,$3*
1,1,$1+$1,$4,$5*
1,1,$1+$1,$6,$7*
1,1,$1+$1,$8,$9*
0 Add four rect primitives between the rounded corners*
20,1,$1+$1,$2,$3,$4,$5,0*
20,1,$1+$1,$4,$5,$6,$7,0*
20,1,$1+$1,$6,$7,$8,$9,0*
20,1,$1+$1,$8,$9,$2,$3,0*%
G04 Aperture macros list end*
%TA.AperFunction,SMDPad,CuDef*%
%ADD10RoundRect,0.135000X0.185000X-0.135000X0.185000X0.135000X-0.185000X0.135000X-0.185000X-0.135000X0*%
%TD*%
%TA.AperFunction,SMDPad,CuDef*%
%ADD11RoundRect,0.147500X-0.172500X0.147500X-0.172500X-0.147500X0.172500X-0.147500X0.172500X0.147500X0*%
%TD*%
%TA.AperFunction,SMDPad,CuDef*%
%ADD12RoundRect,0.135000X0.135000X0.185000X-0.135000X0.185000X-0.135000X-0.185000X0.135000X-0.185000X0*%
%TD*%
%TA.AperFunction,SMDPad,CuDef*%
%ADD13R,0.600000X1.450000*%
%TD*%
%TA.AperFunction,SMDPad,CuDef*%
%ADD14R,0.300000X1.450000*%
%TD*%
%TA.AperFunction,ComponentPad*%
%ADD15O,1.000000X2.100000*%
%TD*%
%TA.AperFunction,ComponentPad*%
%ADD16O,1.000000X1.600000*%
%TD*%
%TA.AperFunction,SMDPad,CuDef*%
%ADD17RoundRect,0.140000X-0.170000X0.140000X-0.170000X-0.140000X0.170000X-0.140000X0.170000X0.140000X0*%
%TD*%
%TA.AperFunction,ComponentPad*%
%ADD18R,1.700000X1.700000*%
%TD*%
%TA.AperFunction,ComponentPad*%
%ADD19O,1.700000X1.700000*%
%TD*%
%TA.AperFunction,SMDPad,CuDef*%
%ADD20R,1.800000X1.200000*%
%TD*%
%TA.AperFunction,SMDPad,CuDef*%
%ADD21R,1.500000X0.550000*%
%TD*%
%TA.AperFunction,SMDPad,CuDef*%
%ADD22R,0.550000X1.500000*%
%TD*%
%TA.AperFunction,SMDPad,CuDef*%
%ADD23RoundRect,0.140000X0.170000X-0.140000X0.170000X0.140000X-0.170000X0.140000X-0.170000X-0.140000X0*%
%TD*%
%TA.AperFunction,SMDPad,CuDef*%
%ADD24R,0.900000X1.700000*%
%TD*%
%TA.AperFunction,SMDPad,CuDef*%
%ADD25RoundRect,0.140000X0.140000X0.170000X-0.140000X0.170000X-0.140000X-0.170000X0.140000X-0.170000X0*%
%TD*%
%TA.AperFunction,SMDPad,CuDef*%
%ADD26RoundRect,0.140000X-0.140000X-0.170000X0.140000X-0.170000X0.140000X0.170000X-0.140000X0.170000X0*%
%TD*%
%TA.AperFunction,ViaPad*%
%ADD27C,0.600000*%
%TD*%
%TA.AperFunction,Conductor*%
%ADD28C,0.300000*%
%TD*%
%TA.AperFunction,Conductor*%
%ADD29C,0.500000*%
%TD*%
%TA.AperFunction,Conductor*%
%ADD30C,0.200000*%
%TD*%
%TA.AperFunction,Conductor*%
%ADD31C,0.250000*%
%TD*%
G04 APERTURE END LIST*
D10*
%TO.P,R3,1*%
%TO.N,+5V*%
X11940000Y-12310000D03*
%TO.P,R3,2*%
%TO.N,Net-(D3-A)*%
X11940000Y-11290000D03*
%TD*%
%TO.P,R5,1*%
%TO.N,TX_mcu*%
X14940000Y-12310000D03*
%TO.P,R5,2*%
%TO.N,Net-(D2-A)*%
X14940000Y-11290000D03*
%TD*%
D11*
%TO.P,D3,1,K*%
%TO.N,GND*%
X11940000Y-9315000D03*
%TO.P,D3,2,A*%
%TO.N,Net-(D3-A)*%
X11940000Y-10285000D03*
%TD*%
%TO.P,D2,1,K*%
%TO.N,GND*%
X14940000Y-9310000D03*
%TO.P,D2,2,A*%
%TO.N,Net-(D2-A)*%
X14940000Y-10280000D03*
%TD*%
D12*
%TO.P,R6,1*%
%TO.N,/AT89S51/RST*%
X13372514Y-33791629D03*
%TO.P,R6,2*%
%TO.N,GND*%
X12352514Y-33791629D03*
%TD*%
D13*
%TO.P,J1,A1,GND*%
%TO.N,GND*%
X14010000Y-6535000D03*
%TO.P,J1,A4,VBUS*%
%TO.N,VCC*%
X13210000Y-6535000D03*
D14*
%TO.P,J1,A5,CC1*%
%TO.N,Net-(J1-CC1)*%
X12010000Y-6535000D03*
%TO.P,J1,A6,D+*%
%TO.N,D+*%
X11010000Y-6535000D03*
%TO.P,J1,A7,D-*%
%TO.N,D-*%
X10510000Y-6535000D03*
%TO.P,J1,A8,SBU1*%
%TO.N,unconnected-(J1-SBU1-PadA8)*%
X9510000Y-6535000D03*
D13*
%TO.P,J1,A9,VBUS*%
%TO.N,VCC*%
X8310000Y-6535000D03*
%TO.P,J1,A12,GND*%
%TO.N,GND*%
X7510000Y-6535000D03*
%TO.P,J1,B1,GND*%
X7510000Y-6535000D03*
%TO.P,J1,B4,VBUS*%
%TO.N,VCC*%
X8310000Y-6535000D03*
D14*
%TO.P,J1,B5,CC2*%
%TO.N,Net-(J1-CC2)*%
X9010000Y-6535000D03*
%TO.P,J1,B6,D+*%
%TO.N,D+*%
X10010000Y-6535000D03*
%TO.P,J1,B7,D-*%
%TO.N,D-*%
X11510000Y-6535000D03*
%TO.P,J1,B8,SBU2*%
%TO.N,unconnected-(J1-SBU2-PadB8)*%
X12510000Y-6535000D03*
D13*
%TO.P,J1,B9,VBUS*%
%TO.N,VCC*%
X13210000Y-6535000D03*
%TO.P,J1,B12,GND*%
%TO.N,GND*%
X14010000Y-6535000D03*
D15*
%TO.P,J1,S1,SHIELD*%
%TO.N,unconnected-(J1-SHIELD-PadS1)*%
X15080000Y-5620000D03*
D16*
X15080000Y-1440000D03*
D15*
X6440000Y-5620000D03*
D16*
X6440000Y-1440000D03*
%TD*%
D17*
%TO.P,C4,1*%
%TO.N,GND*%
X6740000Y-15710000D03*
%TO.P,C4,2*%
%TO.N,/AT89S51/XTAL1*%
X6740000Y-16670000D03*
%TD*%
D18*
%TO.P,J6,1,Pin_1*%
%TO.N,+5V*%
X12986471Y-45599551D03*
D19*
%TO.P,J6,2,Pin_2*%
%TO.N,Net-(J6-Pin_2)*%
X10446471Y-45599551D03*
%TO.P,J6,3,Pin_3*%
%TO.N,GND*%
X7906471Y-45599551D03*
%TD*%
D20*
%TO.P,Y1,1*%
%TO.N,/AT89S51/XTAL1*%
X8540000Y-16690000D03*
%TO.P,Y1,2,GND*%
%TO.N,GND*%
X12540000Y-16690000D03*
%TO.P,Y1,3*%
%TO.N,/AT89S51/XTAL2*%
X12540000Y-14290000D03*
%TO.P,Y1,4,GND*%
%TO.N,GND*%
X8540000Y-14290000D03*
%TD*%
D10*
%TO.P,R4,1*%
%TO.N,RX_mcu*%
X13440000Y-12310000D03*
%TO.P,R4,2*%
%TO.N,Net-(D1-A)*%
X13440000Y-11290000D03*
%TD*%
D11*
%TO.P,D1,1,K*%
%TO.N,GND*%
X13440000Y-9325000D03*
%TO.P,D1,2,A*%
%TO.N,Net-(D1-A)*%
X13440000Y-10295000D03*
%TD*%
D18*
%TO.P,J4,1,Pin_1*%
%TO.N,+5V*%
X12965000Y-40317726D03*
D19*
%TO.P,J4,2,Pin_2*%
%TO.N,Net-(J4-Pin_2)*%
X10425000Y-40317726D03*
%TO.P,J4,3,Pin_3*%
%TO.N,GND*%
X7885000Y-40317726D03*
%TD*%
D21*
%TO.P,U3,1,P1.5*%
%TO.N,/AT89S51/P1.5*%
X16390000Y-29690000D03*
%TO.P,U3,2,P1.6*%
%TO.N,/AT89S51/P1.6*%
X16390000Y-28890000D03*
%TO.P,U3,3,P1.7*%
%TO.N,/AT89S51/P1.7*%
X16390000Y-28090000D03*
%TO.P,U3,4,RST*%
%TO.N,/AT89S51/RST*%
X16390000Y-27290000D03*
%TO.P,U3,5,(RXD)P3.0*%
%TO.N,TX_mcu*%
X16390000Y-26490000D03*
%TO.P,U3,6,NC*%
%TO.N,unconnected-(U3-NC-Pad6)*%
X16390000Y-25690000D03*
%TO.P,U3,7,(TXD)P3.1*%
%TO.N,RX_mcu*%
X16390000Y-24890000D03*
%TO.P,U3,8,(|INT0)P3.2*%
%TO.N,/AT89S51/P3.2*%
X16390000Y-24090000D03*
%TO.P,U3,9,(|INT1)P3.3*%
%TO.N,/AT89S51/P3.3*%
X16390000Y-23290000D03*
%TO.P,U3,10,(T0)P3.4*%
%TO.N,/AT89S51/P3.4*%
X16390000Y-22490000D03*
%TO.P,U3,11,(T1)P3.5*%
%TO.N,/AT89S51/P3.5*%
X16390000Y-21690000D03*
D22*
%TO.P,U3,12,(|WR)P3.6*%
%TO.N,/AT89S51/P3.6*%
X14690000Y-19990000D03*
%TO.P,U3,13,(|RD)P3.7*%
%TO.N,/AT89S51/P3.7*%
X13890000Y-19990000D03*
%TO.P,U3,14,XTAL2*%
%TO.N,/AT89S51/XTAL2*%
X13090000Y-19990000D03*
%TO.P,U3,15,XTAL1*%
%TO.N,/AT89S51/XTAL1*%
X12290000Y-19990000D03*
%TO.P,U3,16,GND*%
%TO.N,GND*%
X11490000Y-19990000D03*
%TO.P,U3,17,GND*%
X10690000Y-19990000D03*
%TO.P,U3,18,P2.0(A8)*%
%TO.N,/AT89S51/P2.0*%
X9890000Y-19990000D03*
%TO.P,U3,19,P2.1(A9)*%
%TO.N,/AT89S51/P2.1*%
X9090000Y-19990000D03*
%TO.P,U3,20,P2.2(A10)*%
%TO.N,/AT89S51/P2.2*%
X8290000Y-19990000D03*
%TO.P,U3,21,P2.3(A11)*%
%TO.N,/AT89S51/P2.3*%
X7490000Y-19990000D03*
%TO.P,U3,22,P2.4(A12)*%
%TO.N,/AT89S51/P2.4*%
X6690000Y-19990000D03*
D21*
%TO.P,U3,23,P2.5(A13)*%
%TO.N,/AT89S51/P2.5*%
X4990000Y-21690000D03*
%TO.P,U3,24,P2.6(A14)*%
%TO.N,/AT89S51/P2.6*%
X4990000Y-22490000D03*
%TO.P,U3,25,P2.7(A15)*%
%TO.N,/AT89S51/P2.7*%
X4990000Y-23290000D03*
%TO.P,U3,26,|PSEN*%
%TO.N,/AT89S51/|PSEN*%
X4990000Y-24090000D03*
%TO.P,U3,27,ALE/|PROG*%
%TO.N,/AT89S51/ALE{slash}|PROG*%
X4990000Y-24890000D03*
%TO.P,U3,28,NC*%
%TO.N,unconnected-(U3-NC-Pad28)*%
X4990000Y-25690000D03*
%TO.P,U3,29,|EA/VPP*%
%TO.N,/AT89S51/|EA{slash}VPP*%
X4990000Y-26490000D03*
%TO.P,U3,30,P0.7(AD7)*%
%TO.N,/AT89S51/P0.7*%
X4990000Y-27290000D03*
%TO.P,U3,31,P0.6(AD6)*%
%TO.N,/AT89S51/P0.6*%
X4990000Y-28090000D03*
%TO.P,U3,32,P0.5(AD5)*%
%TO.N,/AT89S51/P0.5*%
X4990000Y-28890000D03*
%TO.P,U3,33,P0.4(AD4)*%
%TO.N,/AT89S51/P0.4*%
X4990000Y-29690000D03*
D22*
%TO.P,U3,34,P0.3(AD3)*%
%TO.N,/AT89S51/P0.3*%
X6690000Y-31390000D03*
%TO.P,U3,35,P0.2(AD2)*%
%TO.N,/AT89S51/P0.2*%
X7490000Y-31390000D03*
%TO.P,U3,36,P0.1(AD1)*%
%TO.N,/AT89S51/P0.1*%
X8290000Y-31390000D03*
%TO.P,U3,37,P0.0(AD0)*%
%TO.N,/AT89S51/P0.0*%
X9090000Y-31390000D03*
%TO.P,U3,38,VCC*%
%TO.N,+5V*%
X9890000Y-31390000D03*
%TO.P,U3,39,NC*%
%TO.N,unconnected-(U3-NC-Pad39)*%
X10690000Y-31390000D03*
%TO.P,U3,40,P1.0*%
%TO.N,/AT89S51/P1.0*%
X11490000Y-31390000D03*
%TO.P,U3,41,P1.1*%
%TO.N,/AT89S51/P1.1*%
X12290000Y-31390000D03*
%TO.P,U3,42,P1.2*%
%TO.N,/AT89S51/P1.2*%
X13090000Y-31390000D03*
%TO.P,U3,43,P1.3*%
%TO.N,/AT89S51/P1.3*%
X13890000Y-31390000D03*
%TO.P,U3,44,P1.4*%
%TO.N,/AT89S51/P1.4*%
X14690000Y-31390000D03*
%TD*%
D23*
%TO.P,C3,1*%
%TO.N,GND*%
X14340000Y-15270000D03*
%TO.P,C3,2*%
%TO.N,/AT89S51/XTAL2*%
X14340000Y-14310000D03*
%TD*%
D24*
%TO.P,SW1,1,1*%
%TO.N,/AT89S51/RST*%
X12240000Y-35990000D03*
%TO.P,SW1,2,2*%
%TO.N,+5V*%
X15640000Y-35990000D03*
%TD*%
D25*
%TO.P,C5,1*%
%TO.N,+5V*%
X15950600Y-33812062D03*
%TO.P,C5,2*%
%TO.N,/AT89S51/RST*%
X14990600Y-33812062D03*
%TD*%
D26*
%TO.P,C6,1*%
%TO.N,+5V*%
X9980000Y-33490000D03*
%TO.P,C6,2*%
%TO.N,GND*%
X10940000Y-33490000D03*
%TD*%
D18*
%TO.P,J5,1,Pin_1*%
%TO.N,+5V*%
X12976805Y-42990000D03*
D19*
%TO.P,J5,2,Pin_2*%
%TO.N,Net-(J5-Pin_2)*%
X10436805Y-42990000D03*
%TO.P,J5,3,Pin_3*%
%TO.N,GND*%
X7896805Y-42990000D03*
%TD*%
D18*
%TO.P,J3,1,Pin_1*%
%TO.N,GND*%
X1940000Y-2170000D03*
D19*
%TO.P,J3,2,Pin_2*%
%TO.N,+5V*%
X1940000Y-4710000D03*
%TO.P,J3,3,Pin_3*%
%TO.N,/AT89S51/P2.0*%
X1940000Y-7250000D03*
%TO.P,J3,4,Pin_4*%
%TO.N,/AT89S51/P2.1*%
X1940000Y-9790000D03*
%TO.P,J3,5,Pin_5*%
%TO.N,/AT89S51/P2.2*%
X1940000Y-12330000D03*
%TO.P,J3,6,Pin_6*%
%TO.N,/AT89S51/P2.3*%
X1940000Y-14870000D03*
%TO.P,J3,7,Pin_7*%
%TO.N,/AT89S51/P2.4*%
X1940000Y-17410000D03*
%TO.P,J3,8,Pin_8*%
%TO.N,/AT89S51/P2.5*%
X1940000Y-19950000D03*
%TO.P,J3,9,Pin_9*%
%TO.N,/AT89S51/P2.6*%
X1940000Y-22490000D03*
%TO.P,J3,10,Pin_10*%
%TO.N,/AT89S51/P2.7*%
X1940000Y-25030000D03*
%TO.P,J3,11,Pin_11*%
%TO.N,/AT89S51/P0.7*%
X1940000Y-27570000D03*
%TO.P,J3,12,Pin_12*%
%TO.N,/AT89S51/P0.6*%
X1940000Y-30110000D03*
%TO.P,J3,13,Pin_13*%
%TO.N,/AT89S51/P0.5*%
X1940000Y-32650000D03*
%TO.P,J3,14,Pin_14*%
%TO.N,/AT89S51/P0.4*%
X1940000Y-35190000D03*
%TO.P,J3,15,Pin_15*%
%TO.N,/AT89S51/P0.3*%
X1940000Y-37730000D03*
%TO.P,J3,16,Pin_16*%
%TO.N,/AT89S51/P0.2*%
X1940000Y-40270000D03*
%TO.P,J3,17,Pin_17*%
%TO.N,/AT89S51/P0.1*%
X1940000Y-42810000D03*
%TO.P,J3,18,Pin_18*%
%TO.N,/AT89S51/P0.0*%
X1940000Y-45350000D03*
%TD*%
D18*
%TO.P,J2,1,Pin_1*%
%TO.N,GND*%
X19440000Y-2170000D03*
D19*
%TO.P,J2,2,Pin_2*%
%TO.N,VCC*%
X19440000Y-4710000D03*
%TO.P,J2,3,Pin_3*%
%TO.N,/AT89S51/P3.7*%
X19440000Y-7250000D03*
%TO.P,J2,4,Pin_4*%
%TO.N,/AT89S51/P3.6*%
X19440000Y-9790000D03*
%TO.P,J2,5,Pin_5*%
%TO.N,/AT89S51/P3.5*%
X19440000Y-12330000D03*
%TO.P,J2,6,Pin_6*%
%TO.N,/AT89S51/P3.4*%
X19440000Y-14870000D03*
%TO.P,J2,7,Pin_7*%
%TO.N,/AT89S51/P3.3*%
X19440000Y-17410000D03*
%TO.P,J2,8,Pin_8*%
%TO.N,/AT89S51/P3.2*%
X19440000Y-19950000D03*
%TO.P,J2,9,Pin_9*%
%TO.N,RX_mcu*%
X19440000Y-22490000D03*
%TO.P,J2,10,Pin_10*%
%TO.N,TX_mcu*%
X19440000Y-25030000D03*
%TO.P,J2,11,Pin_11*%
%TO.N,/AT89S51/P1.7*%
X19440000Y-27570000D03*
%TO.P,J2,12,Pin_12*%
%TO.N,/AT89S51/P1.6*%
X19440000Y-30110000D03*
%TO.P,J2,13,Pin_13*%
%TO.N,/AT89S51/P1.5*%
X19440000Y-32650000D03*
%TO.P,J2,14,Pin_14*%
%TO.N,/AT89S51/P1.4*%
X19440000Y-35190000D03*
%TO.P,J2,15,Pin_15*%
%TO.N,/AT89S51/P1.3*%
X19440000Y-37730000D03*
%TO.P,J2,16,Pin_16*%
%TO.N,/AT89S51/P1.2*%
X19440000Y-40270000D03*
%TO.P,J2,17,Pin_17*%
%TO.N,/AT89S51/P1.1*%
X19440000Y-42810000D03*
%TO.P,J2,18,Pin_18*%
%TO.N,/AT89S51/P1.0*%
X19440000Y-45350000D03*
%TD*%
D27*
%TO.N,VCC*%
X9915000Y-10740000D03*
%TO.N,GND*%
X10803112Y-34517378D03*
X14440000Y-16690000D03*
X16540000Y-5690000D03*
X6540000Y-7690000D03*
X9350000Y-22410000D03*
X10840000Y-9290000D03*
X11800000Y-22390000D03*
X5760000Y-15670000D03*
%TO.N,+5V*%
X10140000Y-12020000D03*
X10690000Y-28490000D03*
%TO.N,/AT89S51/RST*%
X15240000Y-32890000D03*
X14440000Y-29490000D03*
%TO.N,RX_mcu*%
X11258911Y-25091089D03*
X10566089Y-13316089D03*
X17639502Y-25740000D03*
%TO.N,TX_mcu*%
X10540000Y-26510000D03*
X10540680Y-14338502D03*
%TO.N,Net-(J1-CC1)*%
X11440000Y-4539500D03*
%TO.N,D+*%
X16431098Y-8615000D03*
%TO.N,D-*%
X16431098Y-7765000D03*
%TO.N,Net-(J1-CC2)*%
X9940000Y-4539500D03*
%TO.N,/AT89S51/P3.4*%
X15950000Y-20580000D03*
%TO.N,/AT89S51/P2.0*%
X5670000Y-16600000D03*
X9540500Y-18090000D03*
%TO.N,/AT89S51/P1.3*%
X13940000Y-32690000D03*
%TO.N,/AT89S51/P1.2*%
X13140000Y-32690000D03*
%TO.N,/AT89S51/P1.1*%
X12340000Y-32690000D03*
%TO.N,/AT89S51/P1.0*%
X11440000Y-32690000D03*
%TO.N,/AT89S51/|EA{slash}VPP*%
X8190000Y-29990000D03*
%TO.N,/AT89S51/ALE{slash}|PROG*%
X7190000Y-29340500D03*
%TO.N,/AT89S51/|PSEN*%
X9440000Y-29490000D03*
%TD*%
D28*
%TO.N,VCC*%
X12840000Y-5305305D02*
X13210000Y-5675305D01*
D29*
X16340000Y-3390000D02*
X13940000Y-3390000D01*
D28*
X12540000Y-4190000D02*
X12840000Y-4490000D01*
D29*
X9915000Y-9665000D02*
X8310000Y-8060000D01*
X8310000Y-8060000D02*
X8310000Y-6535000D01*
X9915000Y-10740000D02*
X9915000Y-9665000D01*
D28*
X13340000Y-3390000D02*
X13940000Y-3390000D01*
X12540000Y-4190000D02*
X13340000Y-3390000D01*
D29*
X17660000Y-4710000D02*
X16340000Y-3390000D01*
D28*
X8640000Y-5345305D02*
X8640000Y-4490000D01*
X8340000Y-6505000D02*
X8340000Y-5645305D01*
D29*
X19440000Y-4710000D02*
X17660000Y-4710000D01*
D28*
X13210000Y-5675305D02*
X13210000Y-6535000D01*
X8340000Y-5645305D02*
X8640000Y-5345305D01*
X8310000Y-6535000D02*
X8340000Y-6505000D01*
X9240000Y-3890000D02*
X12240000Y-3890000D01*
X12240000Y-3890000D02*
X12540000Y-4190000D01*
X8640000Y-4490000D02*
X9240000Y-3890000D01*
X12840000Y-4490000D02*
X12840000Y-5305305D01*
D29*
%TO.N,GND*%
X8340000Y-14490000D02*
X8540000Y-14290000D01*
X7510000Y-6520000D02*
X7440000Y-6590000D01*
X7510000Y-7420000D02*
X7240000Y-7690000D01*
D28*
X11800000Y-22390000D02*
X9370000Y-22390000D01*
D29*
X12540000Y-16690000D02*
X14440000Y-16690000D01*
X16540000Y-5690000D02*
X16540000Y-6490000D01*
X10940000Y-34380490D02*
X10940000Y-33490000D01*
X11741629Y-33791629D02*
X12352514Y-33791629D01*
X14935000Y-9315000D02*
X14940000Y-9310000D01*
D28*
X11490000Y-19990000D02*
X11490000Y-22080000D01*
D29*
X16540000Y-6490000D02*
X15740000Y-7290000D01*
X6700000Y-15670000D02*
X6740000Y-15710000D01*
X10940000Y-33490000D02*
X11440000Y-33490000D01*
X11940000Y-9315000D02*
X10865000Y-9315000D01*
X15740000Y-7290000D02*
X14765000Y-7290000D01*
X10865000Y-9315000D02*
X10840000Y-9290000D01*
X14440000Y-16690000D02*
X14440000Y-15370000D01*
D28*
X11490000Y-19990000D02*
X10690000Y-19990000D01*
D29*
X5760000Y-15670000D02*
X6700000Y-15670000D01*
X7510000Y-6535000D02*
X7510000Y-7420000D01*
D28*
X9370000Y-22390000D02*
X9350000Y-22410000D01*
D29*
X6740000Y-15710000D02*
X6740000Y-14890000D01*
X10803112Y-34517378D02*
X10940000Y-34380490D01*
X7240000Y-7690000D02*
X6540000Y-7690000D01*
X6740000Y-14890000D02*
X7140000Y-14490000D01*
X14765000Y-7290000D02*
X14010000Y-6535000D01*
X14440000Y-15370000D02*
X14340000Y-15270000D01*
D28*
X11490000Y-22080000D02*
X11800000Y-22390000D01*
D29*
X11940000Y-9315000D02*
X14935000Y-9315000D01*
X7140000Y-14490000D02*
X8340000Y-14490000D01*
X11440000Y-33490000D02*
X11741629Y-33791629D01*
%TO.N,+5V*%
X12965000Y-40317726D02*
X12965000Y-37565000D01*
X12965000Y-37565000D02*
X13040000Y-37490000D01*
X12986471Y-45599551D02*
X12986471Y-40339197D01*
D28*
X15340000Y-37490000D02*
X15640000Y-37190000D01*
X10610000Y-12020000D02*
X10140000Y-12020000D01*
X12880000Y-37490000D02*
X13040000Y-37490000D01*
X15950600Y-35679400D02*
X15640000Y-35990000D01*
X10690000Y-29665000D02*
X9840000Y-30515000D01*
X9890000Y-31390000D02*
X9890000Y-33400000D01*
X9840000Y-30515000D02*
X9840000Y-31340000D01*
X11840000Y-37490000D02*
X12880000Y-37490000D01*
X11940000Y-12310000D02*
X10900000Y-12310000D01*
X9980000Y-35630000D02*
X11840000Y-37490000D01*
X10690000Y-28490000D02*
X10690000Y-29665000D01*
D29*
X12986471Y-40339197D02*
X12965000Y-40317726D01*
D28*
X13040000Y-37490000D02*
X15340000Y-37490000D01*
X9980000Y-33490000D02*
X9980000Y-35630000D01*
D30*
X15640000Y-37190000D02*
X15640000Y-35990000D01*
D28*
X15950600Y-33812062D02*
X15950600Y-35679400D01*
D30*
X9840000Y-31340000D02*
X9890000Y-31390000D01*
D28*
X10900000Y-12310000D02*
X10610000Y-12020000D01*
D30*
X9890000Y-33400000D02*
X9980000Y-33490000D01*
D28*
%TO.N,/AT89S51/P3.7*%
X16240000Y-10450000D02*
X19440000Y-7250000D01*
X13890000Y-18940000D02*
X15240000Y-17590000D01*
X13890000Y-19990000D02*
X13890000Y-18940000D01*
X15240000Y-13282894D02*
X16240000Y-12282894D01*
X15240000Y-17590000D02*
X15240000Y-13282894D01*
X16240000Y-12282894D02*
X16240000Y-10450000D01*
%TO.N,/AT89S51/XTAL1*%
X11970000Y-18250000D02*
X11092894Y-18250000D01*
X10540000Y-17697106D02*
X10540000Y-17282894D01*
X11092894Y-18250000D02*
X10540000Y-17697106D01*
X10540000Y-17282894D02*
X9947106Y-16690000D01*
X9947106Y-16690000D02*
X8540000Y-16690000D01*
D29*
X6760000Y-16690000D02*
X6740000Y-16670000D01*
X8540000Y-16690000D02*
X6760000Y-16690000D01*
D28*
X12290000Y-19990000D02*
X12290000Y-18570000D01*
X12290000Y-18570000D02*
X11970000Y-18250000D01*
%TO.N,/AT89S51/RST*%
X12240000Y-35990000D02*
X12340000Y-35890000D01*
D29*
X14990600Y-33139400D02*
X15240000Y-32890000D01*
X14990600Y-33812062D02*
X14990600Y-33139400D01*
D28*
X15265000Y-27290000D02*
X16390000Y-27290000D01*
D29*
X13392947Y-33812062D02*
X13372514Y-33791629D01*
D28*
X14440000Y-29490000D02*
X14440000Y-28115000D01*
D29*
X14990600Y-33812062D02*
X13392947Y-33812062D01*
D28*
X14440000Y-28115000D02*
X15265000Y-27290000D01*
X12940000Y-35890000D02*
X13372514Y-35457486D01*
X13372514Y-35457486D02*
X13372514Y-33791629D01*
X12340000Y-35890000D02*
X12940000Y-35890000D01*
%TO.N,Net-(D1-A)*%
X13440000Y-10295000D02*
X13440000Y-11290000D01*
%TO.N,RX_mcu*%
X17639502Y-25740000D02*
X17639502Y-25089502D01*
X17639502Y-25089502D02*
X17440000Y-24890000D01*
D30*
X13440000Y-12750000D02*
X13440000Y-12310000D01*
X11258911Y-25091089D02*
X11460000Y-24890000D01*
D28*
X19440000Y-22890000D02*
X19440000Y-22490000D01*
X17440000Y-24890000D02*
X16390000Y-24890000D01*
D30*
X11460000Y-24890000D02*
X16390000Y-24890000D01*
X10566089Y-13316089D02*
X10972178Y-12910000D01*
X13280000Y-12910000D02*
X13440000Y-12750000D01*
X10972178Y-12910000D02*
X13280000Y-12910000D01*
D28*
%TO.N,Net-(D2-A)*%
X14940000Y-11290000D02*
X14940000Y-10280000D01*
D30*
%TO.N,TX_mcu*%
X11340000Y-13390000D02*
X13860000Y-13390000D01*
X13860000Y-13390000D02*
X14940000Y-12310000D01*
X10540680Y-14189320D02*
X11340000Y-13390000D01*
X10540680Y-14338502D02*
X10540680Y-14189320D01*
D28*
X16390000Y-26490000D02*
X17980000Y-26490000D01*
X17980000Y-26490000D02*
X19440000Y-25030000D01*
D30*
X10540000Y-26510000D02*
X10560000Y-26490000D01*
X10560000Y-26490000D02*
X16390000Y-26490000D01*
D28*
%TO.N,Net-(D3-A)*%
X11940000Y-11290000D02*
X11940000Y-10285000D01*
D30*
%TO.N,Net-(J1-CC1)*%
X11440000Y-4539500D02*
X12010000Y-5109500D01*
X12010000Y-5109500D02*
X12010000Y-6535000D01*
%TO.N,D+*%
X11010000Y-7510000D02*
X11010000Y-6535000D01*
X16231099Y-8415001D02*
X16431098Y-8615000D01*
X11010000Y-6535000D02*
X11010000Y-7110000D01*
X11010000Y-7110000D02*
X11035000Y-7135000D01*
X11846800Y-8415000D02*
X16231099Y-8415001D01*
X10010000Y-7510000D02*
X10190000Y-7690000D01*
X11035000Y-7603200D02*
X11846800Y-8415000D01*
X11035000Y-7135000D02*
X11035000Y-7603200D01*
X10190000Y-7690000D02*
X10830000Y-7690000D01*
X10830000Y-7690000D02*
X11010000Y-7510000D01*
X10010000Y-6535000D02*
X10010000Y-7510000D01*
%TO.N,D-*%
X11340000Y-5390000D02*
X11510000Y-5560000D01*
X12033200Y-7965000D02*
X16231099Y-7964999D01*
X16231099Y-7964999D02*
X16431098Y-7765000D01*
X11510000Y-5560000D02*
X11510000Y-6535000D01*
X10510000Y-5560000D02*
X10680000Y-5390000D01*
X11510000Y-7110000D02*
X11485000Y-7135000D01*
X11510000Y-6535000D02*
X11510000Y-7110000D01*
X11485000Y-7416800D02*
X12033200Y-7965000D01*
X11485000Y-7135000D02*
X11485000Y-7416800D01*
X10680000Y-5390000D02*
X11340000Y-5390000D01*
X10510000Y-6535000D02*
X10510000Y-5560000D01*
%TO.N,Net-(J1-CC2)*%
X9010000Y-5610000D02*
X9010000Y-6535000D01*
X9940000Y-4539500D02*
X9940000Y-4680000D01*
X9940000Y-4680000D02*
X9010000Y-5610000D01*
D28*
%TO.N,/AT89S51/P3.2*%
X18150000Y-23740000D02*
X18150000Y-21240000D01*
X16390000Y-24090000D02*
X17800000Y-24090000D01*
X18150000Y-21240000D02*
X19440000Y-19950000D01*
X17800000Y-24090000D02*
X18150000Y-23740000D01*
%TO.N,/AT89S51/P3.3*%
X17500000Y-23290000D02*
X17650000Y-23140000D01*
X17650000Y-19200000D02*
X19440000Y-17410000D01*
X16390000Y-23290000D02*
X17500000Y-23290000D01*
X17650000Y-23140000D02*
X17650000Y-19200000D01*
%TO.N,/AT89S51/P3.4*%
X15950000Y-20580000D02*
X14860000Y-21670000D01*
X15340000Y-22490000D02*
X16390000Y-22490000D01*
X14860000Y-21670000D02*
X14860000Y-22010000D01*
X14860000Y-22010000D02*
X15340000Y-22490000D01*
%TO.N,/AT89S51/P3.5*%
X16390000Y-21240000D02*
X16700000Y-20930000D01*
X16700000Y-20930000D02*
X16700000Y-15070000D01*
X16390000Y-21690000D02*
X16390000Y-21240000D01*
X16700000Y-15070000D02*
X19440000Y-12330000D01*
%TO.N,/AT89S51/P3.6*%
X17340000Y-12690000D02*
X17340000Y-11890000D01*
X16040000Y-19250000D02*
X16040000Y-13990000D01*
X16040000Y-13990000D02*
X17340000Y-12690000D01*
X15300000Y-19990000D02*
X16040000Y-19250000D01*
X17340000Y-11890000D02*
X19440000Y-9790000D01*
X14690000Y-19990000D02*
X15300000Y-19990000D01*
%TO.N,/AT89S51/P2.0*%
X4400000Y-15330000D02*
X4400000Y-9710000D01*
X4400000Y-9710000D02*
X1940000Y-7250000D01*
X9540500Y-18090000D02*
X9890000Y-18439500D01*
X5670000Y-16600000D02*
X4400000Y-15330000D01*
X9890000Y-18439500D02*
X9890000Y-19990000D01*
D31*
%TO.N,/AT89S51/P2.1*%
X3790000Y-11640000D02*
X1940000Y-9790000D01*
X3850000Y-15750000D02*
X3790000Y-15750000D01*
X9090000Y-19990000D02*
X9090000Y-19190000D01*
X3790000Y-15750000D02*
X3790000Y-11640000D01*
X9090000Y-19190000D02*
X7690000Y-17790000D01*
X5890000Y-17790000D02*
X3850000Y-15750000D01*
X7690000Y-17790000D02*
X5890000Y-17790000D01*
%TO.N,/AT89S51/P2.2*%
X3210000Y-15860000D02*
X3210000Y-13600000D01*
X8290000Y-19990000D02*
X8290000Y-19070000D01*
X3210000Y-13600000D02*
X1940000Y-12330000D01*
X5720000Y-18370000D02*
X3210000Y-15860000D01*
X7590000Y-18370000D02*
X5720000Y-18370000D01*
X8290000Y-19070000D02*
X7590000Y-18370000D01*
%TO.N,/AT89S51/P2.3*%
X1940000Y-14870000D02*
X1940000Y-15430000D01*
X1940000Y-15430000D02*
X5425000Y-18915000D01*
X7490000Y-19115000D02*
X7490000Y-19990000D01*
X7290000Y-18915000D02*
X7490000Y-19115000D01*
X5425000Y-18915000D02*
X7290000Y-18915000D01*
%TO.N,/AT89S51/P2.4*%
X5190000Y-19990000D02*
X2610000Y-17410000D01*
X6690000Y-19990000D02*
X5190000Y-19990000D01*
X2610000Y-17410000D02*
X1940000Y-17410000D01*
D28*
%TO.N,/AT89S51/P2.5*%
X4990000Y-21690000D02*
X4990000Y-21280000D01*
X3660000Y-19950000D02*
X1940000Y-19950000D01*
X4990000Y-21280000D02*
X3660000Y-19950000D01*
%TO.N,/AT89S51/P2.6*%
X4990000Y-22490000D02*
X1940000Y-22490000D01*
%TO.N,/AT89S51/P2.7*%
X3680000Y-23290000D02*
X1940000Y-25030000D01*
X4990000Y-23290000D02*
X3680000Y-23290000D01*
%TO.N,/AT89S51/P1.7*%
X16390000Y-28090000D02*
X18920000Y-28090000D01*
D29*
X18920000Y-28090000D02*
X19440000Y-27570000D01*
D28*
%TO.N,/AT89S51/P1.6*%
X18220000Y-28890000D02*
X19440000Y-30110000D01*
X16390000Y-28890000D02*
X18220000Y-28890000D01*
%TO.N,/AT89S51/P1.5*%
X16390000Y-30540000D02*
X18340000Y-32490000D01*
D29*
X19280000Y-32490000D02*
X19440000Y-32650000D01*
D28*
X18340000Y-32490000D02*
X19280000Y-32490000D01*
X16390000Y-29690000D02*
X16390000Y-30540000D01*
%TO.N,/AT89S51/P1.4*%
X15640000Y-31390000D02*
X19440000Y-35190000D01*
X14690000Y-31390000D02*
X15640000Y-31390000D01*
D29*
%TO.N,/AT89S51/P1.3*%
X13890000Y-31390000D02*
X13890000Y-32640000D01*
X13890000Y-32640000D02*
X13940000Y-32690000D01*
%TO.N,/AT89S51/P1.2*%
X13090000Y-31390000D02*
X13090000Y-32640000D01*
X13090000Y-32640000D02*
X13140000Y-32690000D01*
%TO.N,/AT89S51/P1.1*%
X12290000Y-32640000D02*
X12340000Y-32690000D01*
X12290000Y-31390000D02*
X12290000Y-32640000D01*
%TO.N,/AT89S51/P1.0*%
X11490000Y-31390000D02*
X11490000Y-32640000D01*
X11490000Y-32640000D02*
X11440000Y-32690000D01*
D28*
%TO.N,/AT89S51/P0.0*%
X9090000Y-33460000D02*
X5760000Y-36790000D01*
X5760000Y-41530000D02*
X1940000Y-45350000D01*
X9090000Y-31390000D02*
X9090000Y-33460000D01*
X5760000Y-36790000D02*
X5760000Y-41530000D01*
%TO.N,/AT89S51/P0.1*%
X8290000Y-33240000D02*
X5000000Y-36530000D01*
X5000000Y-36530000D02*
X5000000Y-39750000D01*
X5000000Y-39750000D02*
X1940000Y-42810000D01*
X8290000Y-31390000D02*
X8290000Y-33240000D01*
%TO.N,/AT89S51/P0.2*%
X4430000Y-37780000D02*
X1940000Y-40270000D01*
X4430000Y-36190000D02*
X4430000Y-37780000D01*
X7490000Y-33130000D02*
X4430000Y-36190000D01*
X7490000Y-31390000D02*
X7490000Y-33130000D01*
%TO.N,/AT89S51/P0.3*%
X6690000Y-32980000D02*
X6690000Y-31390000D01*
X1940000Y-37730000D02*
X6690000Y-32980000D01*
%TO.N,/AT89S51/P0.4*%
X4400000Y-29760000D02*
X4400000Y-32730000D01*
X4400000Y-32730000D02*
X1940000Y-35190000D01*
X4990000Y-29690000D02*
X4470000Y-29690000D01*
X4470000Y-29690000D02*
X4400000Y-29760000D01*
%TO.N,/AT89S51/P0.5*%
X3940000Y-28890000D02*
X3550000Y-29280000D01*
X3550000Y-29280000D02*
X3550000Y-31040000D01*
X4990000Y-28890000D02*
X3940000Y-28890000D01*
X3550000Y-31040000D02*
X1940000Y-32650000D01*
%TO.N,/AT89S51/P0.6*%
X3960000Y-28090000D02*
X1940000Y-30110000D01*
X4990000Y-28090000D02*
X3960000Y-28090000D01*
%TO.N,/AT89S51/P0.7*%
X2220000Y-27290000D02*
X1940000Y-27570000D01*
X4990000Y-27290000D02*
X2220000Y-27290000D01*
%TO.N,/AT89S51/|EA{slash}VPP*%
X5940000Y-26490000D02*
X4990000Y-26490000D01*
X8190000Y-29990000D02*
X6690000Y-29990000D01*
X6690000Y-29990000D02*
X6190000Y-29490000D01*
X6190000Y-26740000D02*
X5940000Y-26490000D01*
X6190000Y-29490000D02*
X6190000Y-26740000D01*
%TO.N,/AT89S51/ALE{slash}|PROG*%
X7190000Y-29340500D02*
X7190000Y-25640000D01*
X7190000Y-25640000D02*
X6440000Y-24890000D01*
X4990000Y-24890000D02*
X6440000Y-24890000D01*
%TO.N,/AT89S51/|PSEN*%
X7940000Y-24090000D02*
X8540000Y-24090000D01*
X9440000Y-29490000D02*
X9440000Y-25032894D01*
X8540000Y-24090000D02*
X8690000Y-24240000D01*
X4990000Y-24090000D02*
X7940000Y-24090000D01*
X9440000Y-25032894D02*
X8497106Y-24090000D01*
X8497106Y-24090000D02*
X7940000Y-24090000D01*
%TO.N,/AT89S51/XTAL2*%
X13090000Y-18460000D02*
X12380000Y-17750000D01*
D29*
X12540000Y-14290000D02*
X14320000Y-14290000D01*
D28*
X11740000Y-14290000D02*
X12540000Y-14290000D01*
X11040000Y-14990000D02*
X11740000Y-14290000D01*
X13090000Y-19990000D02*
X13090000Y-18460000D01*
X11040000Y-17490000D02*
X11040000Y-14990000D01*
X11300000Y-17750000D02*
X11040000Y-17490000D01*
D29*
X14320000Y-14290000D02*
X14340000Y-14310000D01*
D28*
X12380000Y-17750000D02*
X11300000Y-17750000D01*
%TD*%
%TA.AperFunction,Conductor*%
%TO.N,GND*%
G36*
X10378244Y-32338635D02*
G01*
X10382147Y-32338074D01*
X10388692Y-32339195D01*
X10391269Y-32339707D01*
X10395251Y-32340500D01*
X10853893Y-32340500D01*
X10920932Y-32360185D01*
X10966687Y-32412989D01*
X10976631Y-32482147D01*
X10973668Y-32496594D01*
X10973609Y-32496810D01*
X10973608Y-32496814D01*
X10939500Y-32624108D01*
X10939500Y-32755892D01*
X10950211Y-32795867D01*
X10973608Y-32883187D01*
X10990815Y-32912989D01*
X11039500Y-32997314D01*
X11132686Y-33090500D01*
X11158000Y-33105115D01*
X11206215Y-33155681D01*
X11219198Y-33209198D01*
X11220000Y-33210000D01*
X11423087Y-33210000D01*
X11432348Y-33201911D01*
X11484306Y-33190500D01*
X11505890Y-33190500D01*
X11505892Y-33190500D01*
X11633186Y-33156392D01*
X11747314Y-33090500D01*
X11802319Y-33035495D01*
X11806319Y-33033310D01*
X11808785Y-33029473D01*
X11836712Y-33016714D01*
X11863642Y-33002010D01*
X11868188Y-33002335D01*
X11872337Y-33000440D01*
X11902720Y-33004804D01*
X11933334Y-33006994D01*
X11938245Y-33009907D01*
X11941497Y-33010375D01*
X11955974Y-33020425D01*
X11971191Y-33029453D01*
X11974541Y-33032355D01*
X12032686Y-33090500D01*
X12059595Y-33106035D01*
X12068539Y-33113784D01*
X12081291Y-33133620D01*
X12097564Y-33150688D01*
X12099833Y-33162465D01*
X12106321Y-33172557D01*
X12106324Y-33196142D01*
X12110786Y-33219295D01*
X12106328Y-33230429D01*
X12106330Y-33242427D01*
X12093581Y-33262270D01*
X12084818Y-33284159D01*
X12074014Y-33292724D01*
X12068563Y-33301210D01*
X12056174Y-33306869D01*
X12039754Y-33319889D01*
X12022400Y-33327981D01*
X11938865Y-33411516D01*
X11888937Y-33518585D01*
X11888937Y-33518586D01*
X11888538Y-33521629D01*
X12228514Y-33521629D01*
X12295553Y-33541314D01*
X12341308Y-33594118D01*
X12352514Y-33645629D01*
X12352514Y-33791629D01*
X12498514Y-33791629D01*
X12565553Y-33811314D01*
X12611308Y-33864118D01*
X12622514Y-33915629D01*
X12622514Y-34283306D01*
X12682626Y-34255277D01*
X12773833Y-34164070D01*
X12776628Y-34166865D01*
X12815126Y-34136051D01*
X12884620Y-34128810D01*
X12946996Y-34160290D01*
X12950348Y-34163552D01*
X12958190Y-34171477D01*
X12958449Y-34172033D01*
X12985971Y-34199555D01*
X12986159Y-34199745D01*
X13002598Y-34230235D01*
X13019180Y-34260602D01*
X13019231Y-34261085D01*
X13019318Y-34261245D01*
X13019289Y-34261618D01*
X13022014Y-34286960D01*
X13022014Y-34888717D01*
X13002329Y-34955756D01*
X12949525Y-35001511D01*
X12880367Y-35011455D01*
X12829124Y-34991820D01*
X12782824Y-34960884D01*
X12768231Y-34951133D01*
X12768230Y-34951132D01*
X12768229Y-34951132D01*
X12768229Y-34951131D01*
X12709752Y-34939500D01*
X12709748Y-34939500D01*
X11770252Y-34939500D01*
X11770247Y-34939500D01*
X11711770Y-34951131D01*
X11711769Y-34951132D01*
X11645447Y-34995447D01*
X11601132Y-35061769D01*
X11601131Y-35061770D01*
X11589500Y-35120247D01*
X11589500Y-36444456D01*
X11569815Y-36511495D01*
X11517011Y-36557250D01*
X11447853Y-36567194D01*
X11384297Y-36538169D01*
X11377819Y-36532137D01*
X10366819Y-35521137D01*
X10333334Y-35459814D01*
X10330500Y-35433456D01*
X10330500Y-34061629D01*
X11888538Y-34061629D01*
X11888937Y-34064671D01*
X11888937Y-34064672D01*
X11938864Y-34171739D01*
X12022401Y-34255277D01*
X12082514Y-34283307D01*
X12082514Y-34061629D01*
X11888538Y-34061629D01*
X10330500Y-34061629D01*
X10330500Y-33982402D01*
X10339144Y-33952961D01*
X10345668Y-33922975D01*
X10349422Y-33917959D01*
X10350185Y-33915363D01*
X10366819Y-33894721D01*
X10372673Y-33888867D01*
X10433996Y-33855382D01*
X10503688Y-33860366D01*
X10548035Y-33888867D01*
X10601975Y-33942807D01*
X10659999Y-33969864D01*
X10660000Y-33969864D01*
X11220000Y-33969864D01*
X11278024Y-33942807D01*
X11286416Y-33934416D01*
X11362808Y-33858023D01*
X11403854Y-33770000D01*
X11220000Y-33770000D01*
X11220000Y-33969864D01*
X10660000Y-33969864D01*
X10660000Y-33010134D01*
X10659998Y-33010133D01*
X10601978Y-33037190D01*
X10601977Y-33037190D01*
X10548035Y-33091133D01*
X10486712Y-33124618D01*
X10417020Y-33119634D01*
X10372673Y-33091133D01*
X10318315Y-33036775D01*
X10312090Y-33033872D01*
X10259653Y-32987697D01*
X10240500Y-32921492D01*
X10240500Y-32460812D01*
X10246436Y-32440596D01*
X10247565Y-32419553D01*
X10256083Y-32407741D01*
X10260185Y-32393773D01*
X10276105Y-32379977D01*
X10288434Y-32362883D01*
X10301986Y-32357551D01*
X10312989Y-32348018D01*
X10333843Y-32345019D01*
X10353454Y-32337305D01*
X10378244Y-32338635D01*
G37*
%TD.AperFunction*%
%TA.AperFunction,Conductor*%
G36*
X13820544Y-14936322D02*
G01*
X13842263Y-14961946D01*
X13860135Y-14990000D01*
X14216000Y-14990000D01*
X14283039Y-15009685D01*
X14328794Y-15062489D01*
X14340000Y-15114000D01*
X14340000Y-15270000D01*
X14496000Y-15270000D01*
X14563039Y-15289685D01*
X14608794Y-15342489D01*
X14620000Y-15394000D01*
X14620000Y-15733853D01*
X14713096Y-15690443D01*
X14782173Y-15679951D01*
X14845957Y-15708471D01*
X14884196Y-15766948D01*
X14889500Y-15802825D01*
X14889500Y-17393456D01*
X14869815Y-17460495D01*
X14853181Y-17481137D01*
X13652181Y-18682137D01*
X13590858Y-18715622D01*
X13521166Y-18710638D01*
X13465233Y-18668766D01*
X13440816Y-18603302D01*
X13440500Y-18594456D01*
X13440500Y-18413858D01*
X13440500Y-18413856D01*
X13416614Y-18324712D01*
X13370470Y-18244788D01*
X12827363Y-17701681D01*
X12793878Y-17640358D01*
X12798862Y-17570666D01*
X12840734Y-17514733D01*
X12906198Y-17490316D01*
X12915044Y-17490000D01*
X13459699Y-17490000D01*
X13459702Y-17489999D01*
X13518033Y-17478397D01*
X13518034Y-17478396D01*
X13584191Y-17434191D01*
X13628396Y-17368034D01*
X13628397Y-17368033D01*
X13639999Y-17309702D01*
X13640000Y-17309699D01*
X13640000Y-16990000D01*
X12664000Y-16990000D01*
X12596961Y-16970315D01*
X12551206Y-16917511D01*
X12540000Y-16866000D01*
X12540000Y-16690000D01*
X12364000Y-16690000D01*
X12296961Y-16670315D01*
X12251206Y-16617511D01*
X12240000Y-16566000D01*
X12240000Y-16390000D01*
X12840000Y-16390000D01*
X13640000Y-16390000D01*
X13640000Y-16070301D01*
X13639999Y-16070297D01*
X13628397Y-16011966D01*
X13628396Y-16011965D01*
X13584191Y-15945808D01*
X13518034Y-15901603D01*
X13518033Y-15901602D01*
X13459702Y-15890000D01*
X12840000Y-15890000D01*
X12840000Y-16390000D01*
X12240000Y-16390000D01*
X12240000Y-15890000D01*
X11620297Y-15890000D01*
X11561963Y-15901603D01*
X11561948Y-15901610D01*
X11561911Y-15901613D01*
X11549986Y-15903986D01*
X11549773Y-15902918D01*
X11492478Y-15909076D01*
X11430000Y-15877798D01*
X11394351Y-15817708D01*
X11390500Y-15787047D01*
X11390500Y-15550000D01*
X13860135Y-15550000D01*
X13887192Y-15608024D01*
X13971976Y-15692808D01*
X14059999Y-15733853D01*
X14060000Y-15733853D01*
X14060000Y-15550000D01*
X13860135Y-15550000D01*
X11390500Y-15550000D01*
X11390500Y-15193504D01*
X11410185Y-15126465D01*
X11462989Y-15080710D01*
X11532147Y-15070766D01*
X11561432Y-15078800D01*
X11620247Y-15090499D01*
X11620250Y-15090500D01*
X11620252Y-15090500D01*
X13459750Y-15090500D01*
X13459751Y-15090499D01*
X13474568Y-15087552D01*
X13518229Y-15078868D01*
X13518229Y-15078867D01*
X13518231Y-15078867D01*
X13584552Y-15034552D01*
X13628867Y-14968231D01*
X13628867Y-14968229D01*
X13634580Y-14959680D01*
X13688192Y-14914875D01*
X13757517Y-14906168D01*
X13820544Y-14936322D01*
G37*
%TD.AperFunction*%
%TA.AperFunction,Conductor*%
G36*
X13953039Y-6254685D02*
G01*
X13998794Y-6307489D01*
X14010000Y-6359000D01*
X14010000Y-6535000D01*
X14186000Y-6535000D01*
X14253039Y-6554685D01*
X14298794Y-6607489D01*
X14310000Y-6659000D01*
X14310000Y-7465970D01*
X14336303Y-7514141D01*
X14331319Y-7583833D01*
X14289447Y-7639766D01*
X14223983Y-7664183D01*
X14215137Y-7664499D01*
X13804863Y-7664499D01*
X13737824Y-7644814D01*
X13692069Y-7592010D01*
X13682125Y-7522852D01*
X13710000Y-7461814D01*
X13710000Y-7290915D01*
X13710500Y-7280747D01*
X13710500Y-6359000D01*
X13713050Y-6350314D01*
X13711762Y-6341353D01*
X13722740Y-6317312D01*
X13730185Y-6291961D01*
X13737025Y-6286033D01*
X13740787Y-6277797D01*
X13763021Y-6263507D01*
X13782989Y-6246206D01*
X13793503Y-6243918D01*
X13799565Y-6240023D01*
X13834500Y-6235000D01*
X13886000Y-6235000D01*
X13953039Y-6254685D01*
G37*
%TD.AperFunction*%
%TA.AperFunction,Conductor*%
G36*
X21132539Y-109685D02*
G01*
X21178294Y-162489D01*
X21189500Y-214000D01*
X21189500Y-47365500D01*
X21169815Y-47432539D01*
X21117011Y-47478294D01*
X21065500Y-47489500D01*
X114500Y-47489500D01*
X47461Y-47469815D01*
X1706Y-47417011D01*
X-9500Y-47365500D01*
X-9500Y-19846530D01*
X889500Y-19846530D01*
X889500Y-20053469D01*
X929868Y-20256412D01*
X929870Y-20256420D01*
X987868Y-20396440D01*
X1009059Y-20447598D01*
X1018752Y-20462104D01*
X1124024Y-20619657D01*
X1270342Y-20765975D01*
X1270345Y-20765977D01*
X1442402Y-20880941D01*
X1633580Y-20960130D01*
X1836530Y-21000499D01*
X1836534Y-21000500D01*
X1836535Y-21000500D01*
X2043466Y-21000500D01*
X2043467Y-21000499D01*
X2246420Y-20960130D01*
X2437598Y-20880941D01*
X2609655Y-20765977D01*
X2755977Y-20619655D01*
X2870941Y-20447598D01*
X2874296Y-20439500D01*
X2900164Y-20377048D01*
X2944005Y-20322644D01*
X3010299Y-20300579D01*
X3014725Y-20300500D01*
X3463456Y-20300500D01*
X3530495Y-20320185D01*
X3551137Y-20336819D01*
X4230174Y-21015856D01*
X4263659Y-21077179D01*
X4258675Y-21146871D01*
X4216803Y-21202804D01*
X4166688Y-21225154D01*
X4161769Y-21226132D01*
X4095447Y-21270447D01*
X4051132Y-21336769D01*
X4051131Y-21336770D01*
X4039500Y-21395247D01*
X4039500Y-21395252D01*
X4039500Y-21984748D01*
X4039500Y-21984750D01*
X4039499Y-21984750D01*
X4040805Y-21991312D01*
X4034576Y-22060904D01*
X3991711Y-22116080D01*
X3925821Y-22139322D01*
X3919187Y-22139500D01*
X3014725Y-22139500D01*
X2947686Y-22119815D01*
X2901931Y-22067011D01*
X2900164Y-22062952D01*
X2870943Y-21992405D01*
X2755975Y-21820342D01*
X2609657Y-21674024D01*
X2523626Y-21616541D01*
X2437598Y-21559059D01*
X2378819Y-21534712D01*
X2246420Y-21479870D01*
X2246412Y-21479868D01*
X2043469Y-21439500D01*
X2043465Y-21439500D01*
X1836535Y-21439500D01*
X1836530Y-21439500D01*
X1633587Y-21479868D01*
X1633579Y-21479870D01*
X1442403Y-21559058D01*
X1270342Y-21674024D01*
X1124024Y-21820342D01*
X1009058Y-21992403D01*
X929870Y-22183579D01*
X929868Y-22183587D01*
X889500Y-22386530D01*
X889500Y-22593469D01*
X929868Y-22796412D01*
X929870Y-22796420D01*
X1000499Y-22966934D01*
X1009059Y-22987598D01*
X1047883Y-23045703D01*
X1124024Y-23159657D01*
X1270342Y-23305975D01*
X1270345Y-23305977D01*
X1442402Y-23420941D01*
X1633580Y-23500130D01*
X1836530Y-23540499D01*
X1836534Y-23540500D01*
X1836535Y-23540500D01*
X2043466Y-23540500D01*
X2043467Y-23540499D01*
X2246420Y-23500130D01*
X2437598Y-23420941D01*
X2609655Y-23305977D01*
X2755977Y-23159655D01*
X2870941Y-22987598D01*
X2879501Y-22966934D01*
X2900164Y-22917048D01*
X2944005Y-22862644D01*
X3010299Y-22840579D01*
X3014725Y-22840500D01*
X3334456Y-22840500D01*
X3401495Y-22860185D01*
X3447250Y-22912989D01*
X3457194Y-22982147D01*
X3428169Y-23045703D01*
X3422137Y-23052181D01*
X2452103Y-24022213D01*
X2390780Y-24055698D01*
X2321088Y-24050714D01*
X2316990Y-24049101D01*
X2246420Y-24019870D01*
X2246412Y-24019868D01*
X2043469Y-23979500D01*
X2043465Y-23979500D01*
X1836535Y-23979500D01*
X1836530Y-23979500D01*
X1633587Y-24019868D01*
X1633579Y-24019870D01*
X1442403Y-24099058D01*
X1270342Y-24214024D01*
X1124024Y-24360342D01*
X1009058Y-24532403D01*
X929870Y-24723579D01*
X929868Y-24723587D01*
X889500Y-24926530D01*
X889500Y-25133469D01*
X929868Y-25336412D01*
X929870Y-25336420D01*
X959092Y-25406969D01*
X1009059Y-25527598D01*
X1051816Y-25591589D01*
X1124024Y-25699657D01*
X1270342Y-25845975D01*
X1270345Y-25845977D01*
X1442402Y-25960941D01*
X1633580Y-26040130D01*
X1836530Y-26080499D01*
X1836534Y-26080500D01*
X1836535Y-26080500D01*
X2043466Y-26080500D01*
X2043467Y-26080499D01*
X2246420Y-26040130D01*
X2437598Y-25960941D01*
X2609655Y-25845977D01*
X2755977Y-25699655D01*
X2870941Y-25527598D01*
X2950130Y-25336420D01*
X2990500Y-25133465D01*
X2990500Y-24926535D01*
X2950130Y-24723580D01*
X2920906Y-24653028D01*
X2913437Y-24583559D01*
X2944712Y-24521079D01*
X2947756Y-24517924D01*
X3788863Y-23676819D01*
X3815790Y-23662115D01*
X3841609Y-23645523D01*
X3847809Y-23644631D01*
X3850186Y-23643334D01*
X3876544Y-23640500D01*
X3919187Y-23640500D01*
X3986226Y-23660185D01*
X4031981Y-23712989D01*
X4041925Y-23782147D01*
X4040805Y-23788688D01*
X4039500Y-23795249D01*
X4039500Y-24384752D01*
X4053515Y-24455209D01*
X4052239Y-24455462D01*
X4058317Y-24512023D01*
X4051303Y-24535910D01*
X4039500Y-24595247D01*
X4039500Y-25184752D01*
X4053515Y-25255209D01*
X4052239Y-25255462D01*
X4058317Y-25312023D01*
X4051303Y-25335910D01*
X4039500Y-25395247D01*
X4039500Y-25984752D01*
X4053515Y-26055209D01*
X4052239Y-26055462D01*
X4058317Y-26112023D01*
X4051303Y-26135910D01*
X4039500Y-26195247D01*
X4039500Y-26195252D01*
X4039500Y-26784748D01*
X4039500Y-26784750D01*
X4039499Y-26784750D01*
X4040805Y-26791312D01*
X4034576Y-26860904D01*
X3991711Y-26916080D01*
X3925821Y-26939322D01*
X3919187Y-26939500D01*
X2846495Y-26939500D01*
X2779456Y-26919815D01*
X2758814Y-26903181D01*
X2609657Y-26754024D01*
X2519608Y-26693856D01*
X2437598Y-26639059D01*
X2354670Y-26604709D01*
X2246420Y-26559870D01*
X2246412Y-26559868D01*
X2043469Y-26519500D01*
X2043465Y-26519500D01*
X1836535Y-26519500D01*
X1836530Y-26519500D01*
X1633587Y-26559868D01*
X1633579Y-26559870D01*
X1442403Y-26639058D01*
X1270342Y-26754024D01*
X1124024Y-26900342D01*
X1009058Y-27072403D01*
X929870Y-27263579D01*
X929868Y-27263587D01*
X889500Y-27466530D01*
X889500Y-27673469D01*
X929868Y-27876412D01*
X929870Y-27876420D01*
X976709Y-27989500D01*
X1009059Y-28067598D01*
X1023695Y-28089502D01*
X1124024Y-28239657D01*
X1270342Y-28385975D01*
X1270345Y-28385977D01*
X1442402Y-28500941D01*
X1633580Y-28580130D01*
X1781385Y-28609530D01*
X1836530Y-28620499D01*
X1836534Y-28620500D01*
X1836535Y-28620500D01*
X2043466Y-28620500D01*
X2043467Y-28620499D01*
X2246420Y-28580130D01*
X2437598Y-28500941D01*
X2609655Y-28385977D01*
X2755977Y-28239655D01*
X2870941Y-28067598D01*
X2950130Y-27876420D01*
X2977204Y-27740309D01*
X3009588Y-27678398D01*
X3070304Y-27643824D01*
X3098821Y-27640500D01*
X3614457Y-27640500D01*
X3681496Y-27660185D01*
X3727251Y-27712989D01*
X3737195Y-27782147D01*
X3708170Y-27845703D01*
X3702138Y-27852181D01*
X2452104Y-29102213D01*
X2390781Y-29135698D01*
X2321089Y-29130714D01*
X2316970Y-29129093D01*
X2302663Y-29123167D01*
X2246420Y-29099870D01*
X2246412Y-29099868D01*
X2043469Y-29059500D01*
X2043465Y-29059500D01*
X1836535Y-29059500D01*
X1836530Y-29059500D01*
X1633587Y-29099868D01*
X1633579Y-29099870D01*
X1442403Y-29179058D01*
X1270342Y-29294024D01*
X1124024Y-29440342D01*
X1009058Y-29612403D01*
X929870Y-29803579D01*
X929868Y-29803587D01*
X889500Y-30006530D01*
X889500Y-30213469D01*
X929868Y-30416412D01*
X929870Y-30416420D01*
X1009058Y-30607596D01*
X1124024Y-30779657D01*
X1270342Y-30925975D01*
X1270345Y-30925977D01*
X1442402Y-31040941D01*
X1633580Y-31120130D01*
X1836530Y-31160499D01*
X1836534Y-31160500D01*
X1836535Y-31160500D01*
X2043466Y-31160500D01*
X2043467Y-31160499D01*
X2246420Y-31120130D01*
X2437598Y-31040941D01*
X2609655Y-30925977D01*
X2755977Y-30779655D01*
X2870941Y-30607598D01*
X2950130Y-30416420D01*
X2953882Y-30397553D01*
X2986267Y-30335643D01*
X3046983Y-30301069D01*
X3116752Y-30304808D01*
X3173424Y-30345674D01*
X3199006Y-30410692D01*
X3199500Y-30421745D01*
X3199500Y-30843455D01*
X3179815Y-30910494D01*
X3163181Y-30931136D01*
X2452103Y-31642213D01*
X2390780Y-31675698D01*
X2321088Y-31670714D01*
X2316990Y-31669101D01*
X2246420Y-31639870D01*
X2246412Y-31639868D01*
X2043469Y-31599500D01*
X2043465Y-31599500D01*
X1836535Y-31599500D01*
X1836530Y-31599500D01*
X1633587Y-31639868D01*
X1633579Y-31639870D01*
X1442403Y-31719058D01*
X1270342Y-31834024D01*
X1124024Y-31980342D01*
X1009058Y-32152403D01*
X929870Y-32343579D01*
X929868Y-32343587D01*
X889500Y-32546530D01*
X889500Y-32753469D01*
X929868Y-32956412D01*
X929870Y-32956420D01*
X982378Y-33083186D01*
X1009059Y-33147598D01*
X1045350Y-33201911D01*
X1124024Y-33319657D01*
X1270342Y-33465975D01*
X1270345Y-33465977D01*
X1442402Y-33580941D01*
X1633580Y-33660130D01*
X1817094Y-33696633D01*
X1836530Y-33700499D01*
X1836534Y-33700500D01*
X1836535Y-33700500D01*
X2043466Y-33700500D01*
X2043467Y-33700499D01*
X2246420Y-33660130D01*
X2437598Y-33580941D01*
X2609655Y-33465977D01*
X2755977Y-33319655D01*
X2870941Y-33147598D01*
X2950130Y-32956420D01*
X2990500Y-32753465D01*
X2990500Y-32546535D01*
X2950130Y-32343580D01*
X2920906Y-32273028D01*
X2913437Y-32203559D01*
X2944712Y-32141079D01*
X2947756Y-32137924D01*
X3830470Y-31255212D01*
X3830470Y-31255211D01*
X3836217Y-31249465D01*
X3838221Y-31251469D01*
X3883546Y-31218371D01*
X3953292Y-31214213D01*
X4014214Y-31248422D01*
X4046970Y-31310137D01*
X4049500Y-31335058D01*
X4049500Y-32533455D01*
X4029815Y-32600494D01*
X4013181Y-32621136D01*
X2452103Y-34182213D01*
X2390780Y-34215698D01*
X2321088Y-34210714D01*
X2316990Y-34209101D01*
X2246420Y-34179870D01*
X2246412Y-34179868D01*
X2043469Y-34139500D01*
X2043465Y-34139500D01*
X1836535Y-34139500D01*
X1836530Y-34139500D01*
X1633587Y-34179868D01*
X1633579Y-34179870D01*
X1442403Y-34259058D01*
X1270342Y-34374024D01*
X1124024Y-34520342D01*
X1009058Y-34692403D01*
X929870Y-34883579D01*
X929868Y-34883587D01*
X889500Y-35086530D01*
X889500Y-35293469D01*
X929868Y-35496412D01*
X929870Y-35496420D01*
X1009058Y-35687596D01*
X1124024Y-35859657D01*
X1270342Y-36005975D01*
X1270345Y-36005977D01*
X1442402Y-36120941D01*
X1633580Y-36200130D01*
X1836530Y-36240499D01*
X1836534Y-36240500D01*
X1836535Y-36240500D01*
X2043466Y-36240500D01*
X2043467Y-36240499D01*
X2246420Y-36200130D01*
X2437598Y-36120941D01*
X2609655Y-36005977D01*
X2755977Y-35859655D01*
X2870941Y-35687598D01*
X2950130Y-35496420D01*
X2990500Y-35293465D01*
X2990500Y-35086535D01*
X2950130Y-34883580D01*
X2920906Y-34813028D01*
X2913437Y-34743559D01*
X2944712Y-34681079D01*
X2947758Y-34677922D01*
X4680469Y-32945212D01*
X4726614Y-32865288D01*
X4731941Y-32845408D01*
X4733257Y-32840498D01*
X4745215Y-32795867D01*
X4750500Y-32776144D01*
X4750500Y-30289500D01*
X4770185Y-30222461D01*
X4822989Y-30176706D01*
X4874500Y-30165500D01*
X5759750Y-30165500D01*
X5759751Y-30165499D01*
X5774568Y-30162552D01*
X5818229Y-30153868D01*
X5818229Y-30153867D01*
X5818231Y-30153867D01*
X5884552Y-30109552D01*
X5928867Y-30043231D01*
X5936481Y-30004949D01*
X5968864Y-29943042D01*
X6029579Y-29908466D01*
X6099348Y-29912204D01*
X6145779Y-29941461D01*
X6438538Y-30234220D01*
X6472023Y-30295543D01*
X6467039Y-30365235D01*
X6425167Y-30421168D01*
X6375048Y-30443518D01*
X6336770Y-30451131D01*
X6336769Y-30451132D01*
X6270447Y-30495447D01*
X6226132Y-30561769D01*
X6226131Y-30561770D01*
X6214500Y-30620247D01*
X6214500Y-32159752D01*
X6226131Y-32218229D01*
X6226132Y-32218230D01*
X6262748Y-32273028D01*
X6270448Y-32284552D01*
X6284389Y-32293867D01*
X6329195Y-32347478D01*
X6339500Y-32396970D01*
X6339500Y-32783455D01*
X6319815Y-32850494D01*
X6303181Y-32871136D01*
X2452103Y-36722213D01*
X2390780Y-36755698D01*
X2321088Y-36750714D01*
X2316990Y-36749101D01*
X2246420Y-36719870D01*
X2246412Y-36719868D01*
X2043469Y-36679500D01*
X2043465Y-36679500D01*
X1836535Y-36679500D01*
X1836530Y-36679500D01*
X1633587Y-36719868D01*
X1633579Y-36719870D01*
X1442403Y-36799058D01*
X1270342Y-36914024D01*
X1124024Y-37060342D01*
X1009058Y-37232403D01*
X929870Y-37423579D01*
X929868Y-37423587D01*
X889500Y-37626530D01*
X889500Y-37833469D01*
X905318Y-37912989D01*
X929870Y-38036420D01*
X1009059Y-38227598D01*
X1044897Y-38281233D01*
X1124024Y-38399657D01*
X1270342Y-38545975D01*
X1270345Y-38545977D01*
X1442402Y-38660941D01*
X1633580Y-38740130D01*
X1836530Y-38780499D01*
X1836534Y-38780500D01*
X1836535Y-38780500D01*
X2043466Y-38780500D01*
X2043467Y-38780499D01*
X2246420Y-38740130D01*
X2437598Y-38660941D01*
X2609655Y-38545977D01*
X2755977Y-38399655D01*
X2870941Y-38227598D01*
X2950130Y-38036420D01*
X2990500Y-37833465D01*
X2990500Y-37626535D01*
X2950130Y-37423580D01*
X2920906Y-37353028D01*
X2913437Y-37283559D01*
X2944712Y-37221079D01*
X2947758Y-37217922D01*
X3867819Y-36297862D01*
X3929142Y-36264377D01*
X3998834Y-36269361D01*
X4054767Y-36311233D01*
X4079184Y-36376697D01*
X4079500Y-36385543D01*
X4079500Y-37583455D01*
X4059815Y-37650494D01*
X4043181Y-37671136D01*
X2452103Y-39262213D01*
X2390780Y-39295698D01*
X2321088Y-39290714D01*
X2316990Y-39289101D01*
X2246420Y-39259870D01*
X2246412Y-39259868D01*
X2043469Y-39219500D01*
X2043465Y-39219500D01*
X1836535Y-39219500D01*
X1836530Y-39219500D01*
X1633587Y-39259868D01*
X1633579Y-39259870D01*
X1442403Y-39339058D01*
X1270342Y-39454024D01*
X1124024Y-39600342D01*
X1009058Y-39772403D01*
X929870Y-39963579D01*
X929868Y-39963587D01*
X889500Y-40166530D01*
X889500Y-40373469D01*
X929868Y-40576412D01*
X929870Y-40576420D01*
X1009058Y-40767596D01*
X1124024Y-40939657D01*
X1270342Y-41085975D01*
X1270345Y-41085977D01*
X1442402Y-41200941D01*
X1633580Y-41280130D01*
X1795200Y-41312278D01*
X1836530Y-41320499D01*
X1836534Y-41320500D01*
X1836535Y-41320500D01*
X2043466Y-41320500D01*
X2043467Y-41320499D01*
X2246420Y-41280130D01*
X2437598Y-41200941D01*
X2609655Y-41085977D01*
X2755977Y-40939655D01*
X2870941Y-40767598D01*
X2950130Y-40576420D01*
X2990500Y-40373465D01*
X2990500Y-40166535D01*
X2950130Y-39963580D01*
X2920906Y-39893028D01*
X2913437Y-39823559D01*
X2944712Y-39761079D01*
X2947757Y-39757923D01*
X4437820Y-38267860D01*
X4499142Y-38234377D01*
X4568834Y-38239361D01*
X4624767Y-38281233D01*
X4649184Y-38346697D01*
X4649500Y-38355543D01*
X4649500Y-39553455D01*
X4629815Y-39620494D01*
X4613181Y-39641136D01*
X2452103Y-41802213D01*
X2390780Y-41835698D01*
X2321088Y-41830714D01*
X2316990Y-41829101D01*
X2246420Y-41799870D01*
X2246412Y-41799868D01*
X2043469Y-41759500D01*
X2043465Y-41759500D01*
X1836535Y-41759500D01*
X1836530Y-41759500D01*
X1633587Y-41799868D01*
X1633579Y-41799870D01*
X1442403Y-41879058D01*
X1270342Y-41994024D01*
X1124024Y-42140342D01*
X1009058Y-42312403D01*
X929870Y-42503579D01*
X929868Y-42503587D01*
X889500Y-42706530D01*
X889500Y-42913469D01*
X929868Y-43116412D01*
X929870Y-43116420D01*
X1009058Y-43307596D01*
X1124024Y-43479657D01*
X1270342Y-43625975D01*
X1270345Y-43625977D01*
X1442402Y-43740941D01*
X1633580Y-43820130D01*
X1832775Y-43859752D01*
X1836530Y-43860499D01*
X1836534Y-43860500D01*
X1836535Y-43860500D01*
X2043466Y-43860500D01*
X2043467Y-43860499D01*
X2246420Y-43820130D01*
X2437598Y-43740941D01*
X2609655Y-43625977D01*
X2755977Y-43479655D01*
X2870941Y-43307598D01*
X2950130Y-43116420D01*
X2990500Y-42913465D01*
X2990500Y-42706535D01*
X2950130Y-42503580D01*
X2920906Y-42433028D01*
X2913437Y-42363559D01*
X2944712Y-42301079D01*
X2947757Y-42297923D01*
X5197821Y-40047860D01*
X5259142Y-40014377D01*
X5328834Y-40019361D01*
X5384767Y-40061233D01*
X5409184Y-40126697D01*
X5409500Y-40135543D01*
X5409500Y-41333455D01*
X5389815Y-41400494D01*
X5373181Y-41421136D01*
X2452103Y-44342213D01*
X2390780Y-44375698D01*
X2321088Y-44370714D01*
X2316990Y-44369101D01*
X2246420Y-44339870D01*
X2246412Y-44339868D01*
X2043469Y-44299500D01*
X2043465Y-44299500D01*
X1836535Y-44299500D01*
X1836530Y-44299500D01*
X1633587Y-44339868D01*
X1633579Y-44339870D01*
X1442403Y-44419058D01*
X1270342Y-44534024D01*
X1124024Y-44680342D01*
X1009058Y-44852403D01*
X929870Y-45043579D01*
X929868Y-45043587D01*
X889500Y-45246530D01*
X889500Y-45453469D01*
X929868Y-45656412D01*
X929870Y-45656420D01*
X1009059Y-45847598D01*
X1047965Y-45905825D01*
X1124024Y-46019657D01*
X1270342Y-46165975D01*
X1270345Y-46165977D01*
X1442402Y-46280941D01*
X1633580Y-46360130D01*
X1836530Y-46400499D01*
X1836534Y-46400500D01*
X1836535Y-46400500D01*
X2043466Y-46400500D01*
X2043467Y-46400499D01*
X2246420Y-46360130D01*
X2437598Y-46280941D01*
X2609655Y-46165977D01*
X2755977Y-46019655D01*
X2870941Y-45847598D01*
X2950130Y-45656420D01*
X2990500Y-45453465D01*
X2990500Y-45299550D01*
X6895572Y-45299550D01*
X6895573Y-45299551D01*
X7502327Y-45299551D01*
X7440546Y-45406558D01*
X7406471Y-45533725D01*
X7406471Y-45665377D01*
X7440546Y-45792544D01*
X7502327Y-45899551D01*
X6895573Y-45899551D01*
X6896819Y-45905817D01*
X6896821Y-45905825D01*
X6975971Y-46096909D01*
X6975976Y-46096919D01*
X7090881Y-46268886D01*
X7090884Y-46268890D01*
X7237131Y-46415137D01*
X7237135Y-46415140D01*
X7409102Y-46530045D01*
X7409112Y-46530050D01*
X7600198Y-46609201D01*
X7600201Y-46609202D01*
X7606470Y-46610448D01*
X7606471Y-46610448D01*
X7606471Y-46003695D01*
X7713478Y-46065476D01*
X7840645Y-46099551D01*
X7972297Y-46099551D01*
X8099464Y-46065476D01*
X8206471Y-46003695D01*
X8206471Y-46610448D01*
X8212740Y-46609202D01*
X8212743Y-46609201D01*
X8403829Y-46530050D01*
X8403839Y-46530045D01*
X8575806Y-46415140D01*
X8575810Y-46415137D01*
X8722057Y-46268890D01*
X8722060Y-46268886D01*
X8836965Y-46096919D01*
X8836970Y-46096909D01*
X8916120Y-45905825D01*
X8916122Y-45905817D01*
X8917369Y-45899551D01*
X8310615Y-45899551D01*
X8372396Y-45792544D01*
X8406471Y-45665377D01*
X8406471Y-45533725D01*
X8396384Y-45496081D01*
X9395971Y-45496081D01*
X9395971Y-45703020D01*
X9436339Y-45905963D01*
X9436341Y-45905971D01*
X9515529Y-46097147D01*
X9630495Y-46269208D01*
X9776813Y-46415526D01*
X9776816Y-46415528D01*
X9948873Y-46530492D01*
X10140051Y-46609681D01*
X10284523Y-46638418D01*
X10343001Y-46650050D01*
X10343005Y-46650051D01*
X10343006Y-46650051D01*
X10549937Y-46650051D01*
X10549938Y-46650050D01*
X10752891Y-46609681D01*
X10944069Y-46530492D01*
X11116126Y-46415528D01*
X11262448Y-46269206D01*
X11377412Y-46097149D01*
X11456601Y-45905971D01*
X11496971Y-45703016D01*
X11496971Y-45496086D01*
X11456601Y-45293131D01*
X11377412Y-45101953D01*
X11262448Y-44929896D01*
X11262446Y-44929893D01*
X11116128Y-44783575D01*
X11030097Y-44726092D01*
X10944069Y-44668610D01*
X10752891Y-44589421D01*
X10752883Y-44589419D01*
X10549940Y-44549051D01*
X10549936Y-44549051D01*
X10343006Y-44549051D01*
X10343001Y-44549051D01*
X10140058Y-44589419D01*
X10140050Y-44589421D01*
X9948874Y-44668609D01*
X9776813Y-44783575D01*
X9630495Y-44929893D01*
X9515529Y-45101954D01*
X9436341Y-45293130D01*
X9436339Y-45293138D01*
X9395971Y-45496081D01*
X8396384Y-45496081D01*
X8372396Y-45406558D01*
X8310615Y-45299551D01*
X8917369Y-45299551D01*
X8917369Y-45299550D01*
X8916122Y-45293284D01*
X8916120Y-45293276D01*
X8836970Y-45102192D01*
X8836965Y-45102182D01*
X8722060Y-44930215D01*
X8722057Y-44930211D01*
X8575810Y-44783964D01*
X8575806Y-44783961D01*
X8403839Y-44669056D01*
X8403829Y-44669051D01*
X8212745Y-44589901D01*
X8212737Y-44589899D01*
X8206471Y-44588652D01*
X8206471Y-45195406D01*
X8099464Y-45133626D01*
X7972297Y-45099551D01*
X7840645Y-45099551D01*
X7713478Y-45133626D01*
X7606471Y-45195406D01*
X7606471Y-44588653D01*
X7606470Y-44588652D01*
X7600204Y-44589899D01*
X7600196Y-44589901D01*
X7409112Y-44669051D01*
X7409102Y-44669056D01*
X7237135Y-44783961D01*
X7237131Y-44783964D01*
X7090884Y-44930211D01*
X7090881Y-44930215D01*
X6975976Y-45102182D01*
X6975971Y-45102192D01*
X6896821Y-45293276D01*
X6896819Y-45293284D01*
X6895572Y-45299550D01*
X2990500Y-45299550D01*
X2990500Y-45246535D01*
X2950130Y-45043580D01*
X2920906Y-44973028D01*
X2913437Y-44903559D01*
X2944712Y-44841079D01*
X2947757Y-44837923D01*
X5095682Y-42689999D01*
X6885906Y-42689999D01*
X6885907Y-42690000D01*
X7492661Y-42690000D01*
X7430880Y-42797007D01*
X7396805Y-42924174D01*
X7396805Y-43055826D01*
X7430880Y-43182993D01*
X7492661Y-43290000D01*
X6885907Y-43290000D01*
X6887153Y-43296266D01*
X6887155Y-43296274D01*
X6966305Y-43487358D01*
X6966310Y-43487368D01*
X7081215Y-43659335D01*
X7081218Y-43659339D01*
X7227465Y-43805586D01*
X7227469Y-43805589D01*
X7399436Y-43920494D01*
X7399446Y-43920499D01*
X7590532Y-43999650D01*
X7590535Y-43999651D01*
X7596804Y-44000897D01*
X7596805Y-44000897D01*
X7596805Y-43394144D01*
X7703812Y-43455925D01*
X7830979Y-43490000D01*
X7962631Y-43490000D01*
X8089798Y-43455925D01*
X8196805Y-43394144D01*
X8196805Y-44000897D01*
X8203074Y-43999651D01*
X8203077Y-43999650D01*
X8394163Y-43920499D01*
X8394173Y-43920494D01*
X8566140Y-43805589D01*
X8566144Y-43805586D01*
X8712391Y-43659339D01*
X8712394Y-43659335D01*
X8827299Y-43487368D01*
X8827304Y-43487358D01*
X8906454Y-43296274D01*
X8906456Y-43296266D01*
X8907703Y-43290000D01*
X8300949Y-43290000D01*
X8362730Y-43182993D01*
X8396805Y-43055826D01*
X8396805Y-42924174D01*
X8386718Y-42886530D01*
X9386305Y-42886530D01*
X9386305Y-43093469D01*
X9426673Y-43296412D01*
X9426675Y-43296420D01*
X9505863Y-43487596D01*
X9620829Y-43659657D01*
X9767147Y-43805975D01*
X9767150Y-43805977D01*
X9939207Y-43920941D01*
X10130385Y-44000130D01*
X10274857Y-44028867D01*
X10333335Y-44040499D01*
X10333339Y-44040500D01*
X10333340Y-44040500D01*
X10540271Y-44040500D01*
X10540272Y-44040499D01*
X10743225Y-44000130D01*
X10934403Y-43920941D01*
X11106460Y-43805977D01*
X11252782Y-43659655D01*
X11367746Y-43487598D01*
X11446935Y-43296420D01*
X11487305Y-43093465D01*
X11487305Y-42886535D01*
X11446935Y-42683580D01*
X11367746Y-42492402D01*
X11252782Y-42320345D01*
X11252780Y-42320342D01*
X11106462Y-42174024D01*
X10938460Y-42061770D01*
X10934403Y-42059059D01*
X10743225Y-41979870D01*
X10743217Y-41979868D01*
X10540274Y-41939500D01*
X10540270Y-41939500D01*
X10333340Y-41939500D01*
X10333335Y-41939500D01*
X10130392Y-41979868D01*
X10130384Y-41979870D01*
X9939208Y-42059058D01*
X9767147Y-42174024D01*
X9620829Y-42320342D01*
X9505863Y-42492403D01*
X9426675Y-42683579D01*
X9426673Y-42683587D01*
X9386305Y-42886530D01*
X8386718Y-42886530D01*
X8362730Y-42797007D01*
X8300949Y-42690000D01*
X8907703Y-42690000D01*
X8907703Y-42689999D01*
X8906456Y-42683733D01*
X8906454Y-42683725D01*
X8827304Y-42492641D01*
X8827299Y-42492631D01*
X8712394Y-42320664D01*
X8712391Y-42320660D01*
X8566144Y-42174413D01*
X8566140Y-42174410D01*
X8394173Y-42059505D01*
X8394163Y-42059500D01*
X8203079Y-41980350D01*
X8203071Y-41980348D01*
X8196805Y-41979101D01*
X8196805Y-42585855D01*
X8089798Y-42524075D01*
X7962631Y-42490000D01*
X7830979Y-42490000D01*
X7703812Y-42524075D01*
X7596805Y-42585855D01*
X7596805Y-41979102D01*
X7596804Y-41979101D01*
X7590538Y-41980348D01*
X7590530Y-41980350D01*
X7399446Y-42059500D01*
X7399436Y-42059505D01*
X7227469Y-42174410D01*
X7227465Y-42174413D01*
X7081218Y-42320660D01*
X7081215Y-42320664D01*
X6966310Y-42492631D01*
X6966305Y-42492641D01*
X6887155Y-42683725D01*
X6887153Y-42683733D01*
X6885906Y-42689999D01*
X5095682Y-42689999D01*
X6040470Y-41745212D01*
X6086614Y-41665288D01*
X6110500Y-41576144D01*
X6110500Y-41483856D01*
X6110500Y-40017725D01*
X6874101Y-40017725D01*
X6874102Y-40017726D01*
X7480856Y-40017726D01*
X7419075Y-40124733D01*
X7385000Y-40251900D01*
X7385000Y-40383552D01*
X7419075Y-40510719D01*
X7480856Y-40617726D01*
X6874102Y-40617726D01*
X6875348Y-40623992D01*
X6875350Y-40624000D01*
X6954500Y-40815084D01*
X6954505Y-40815094D01*
X7069410Y-40987061D01*
X7069413Y-40987065D01*
X7215660Y-41133312D01*
X7215664Y-41133315D01*
X7387631Y-41248220D01*
X7387641Y-41248225D01*
X7578727Y-41327376D01*
X7578730Y-41327377D01*
X7584999Y-41328623D01*
X7585000Y-41328623D01*
X7585000Y-40721870D01*
X7692007Y-40783651D01*
X7819174Y-40817726D01*
X7950826Y-40817726D01*
X8077993Y-40783651D01*
X8185000Y-40721870D01*
X8185000Y-41328623D01*
X8191269Y-41327377D01*
X8191272Y-41327376D01*
X8382358Y-41248225D01*
X8382368Y-41248220D01*
X8554335Y-41133315D01*
X8554339Y-41133312D01*
X8700586Y-40987065D01*
X8700589Y-40987061D01*
X8815494Y-40815094D01*
X8815499Y-40815084D01*
X8894649Y-40624000D01*
X8894651Y-40623992D01*
X8895898Y-40617726D01*
X8289144Y-40617726D01*
X8350925Y-40510719D01*
X8385000Y-40383552D01*
X8385000Y-40251900D01*
X8374913Y-40214256D01*
X9374500Y-40214256D01*
X9374500Y-40421195D01*
X9414868Y-40624138D01*
X9414870Y-40624146D01*
X9494058Y-40815322D01*
X9609024Y-40987383D01*
X9755342Y-41133701D01*
X9755345Y-41133703D01*
X9927402Y-41248667D01*
X10118580Y-41327856D01*
X10263052Y-41356593D01*
X10321530Y-41368225D01*
X10321534Y-41368226D01*
X10321535Y-41368226D01*
X10528466Y-41368226D01*
X10528467Y-41368225D01*
X10731420Y-41327856D01*
X10922598Y-41248667D01*
X11094655Y-41133703D01*
X11240977Y-40987381D01*
X11355941Y-40815324D01*
X11435130Y-40624146D01*
X11475500Y-40421191D01*
X11475500Y-40214261D01*
X11435130Y-40011306D01*
X11355941Y-39820128D01*
X11240977Y-39648071D01*
X11240975Y-39648068D01*
X11094657Y-39501750D01*
X10926655Y-39389496D01*
X10922598Y-39386785D01*
X10731420Y-39307596D01*
X10731412Y-39307594D01*
X10528469Y-39267226D01*
X10528465Y-39267226D01*
X10321535Y-39267226D01*
X10321530Y-39267226D01*
X10118587Y-39307594D01*
X10118579Y-39307596D01*
X9927403Y-39386784D01*
X9755342Y-39501750D01*
X9609024Y-39648068D01*
X9494058Y-39820129D01*
X9414870Y-40011305D01*
X9414868Y-40011313D01*
X9374500Y-40214256D01*
X8374913Y-40214256D01*
X8350925Y-40124733D01*
X8289144Y-40017726D01*
X8895898Y-40017726D01*
X8895898Y-40017725D01*
X8894651Y-40011459D01*
X8894649Y-40011451D01*
X8815499Y-39820367D01*
X8815494Y-39820357D01*
X8700589Y-39648390D01*
X8700586Y-39648386D01*
X8554339Y-39502139D01*
X8554335Y-39502136D01*
X8382368Y-39387231D01*
X8382358Y-39387226D01*
X8191274Y-39308076D01*
X8191266Y-39308074D01*
X8185000Y-39306827D01*
X8185000Y-39913581D01*
X8077993Y-39851801D01*
X7950826Y-39817726D01*
X7819174Y-39817726D01*
X7692007Y-39851801D01*
X7585000Y-39913581D01*
X7585000Y-39306828D01*
X7584999Y-39306827D01*
X7578733Y-39308074D01*
X7578725Y-39308076D01*
X7387641Y-39387226D01*
X7387631Y-39387231D01*
X7215664Y-39502136D01*
X7215660Y-39502139D01*
X7069413Y-39648386D01*
X7069410Y-39648390D01*
X6954505Y-39820357D01*
X6954500Y-39820367D01*
X6875350Y-40011451D01*
X6875348Y-40011459D01*
X6874101Y-40017725D01*
X6110500Y-40017725D01*
X6110500Y-36986544D01*
X6130185Y-36919505D01*
X6146819Y-36898863D01*
X7612226Y-35433456D01*
X9314078Y-33731603D01*
X9333760Y-33720856D01*
X9350779Y-33706250D01*
X9363831Y-33704436D01*
X9375399Y-33698120D01*
X9397770Y-33699719D01*
X9419984Y-33696633D01*
X9431944Y-33702163D01*
X9445091Y-33703104D01*
X9463046Y-33716545D01*
X9483401Y-33725958D01*
X9493397Y-33739266D01*
X9501024Y-33744976D01*
X9506388Y-33752740D01*
X9510723Y-33759557D01*
X9556776Y-33858316D01*
X9602818Y-33904358D01*
X9610131Y-33915856D01*
X9616190Y-33936860D01*
X9626666Y-33956044D01*
X9629500Y-33982402D01*
X9629500Y-35676145D01*
X9650551Y-35754709D01*
X9653385Y-35765287D01*
X9653387Y-35765291D01*
X9699527Y-35845208D01*
X9699529Y-35845211D01*
X9699530Y-35845212D01*
X11624788Y-37770470D01*
X11682722Y-37803918D01*
X11682724Y-37803919D01*
X11704709Y-37816613D01*
X11704711Y-37816613D01*
X11704712Y-37816614D01*
X11793856Y-37840500D01*
X12390500Y-37840500D01*
X12457539Y-37860185D01*
X12503294Y-37912989D01*
X12514500Y-37964500D01*
X12514500Y-39143226D01*
X12494815Y-39210265D01*
X12442011Y-39256020D01*
X12390500Y-39267226D01*
X12095247Y-39267226D01*
X12036770Y-39278857D01*
X12036769Y-39278858D01*
X11970447Y-39323173D01*
X11926132Y-39389495D01*
X11926131Y-39389496D01*
X11914500Y-39447973D01*
X11914500Y-41187478D01*
X11926131Y-41245955D01*
X11926132Y-41245956D01*
X11970447Y-41312278D01*
X12036769Y-41356593D01*
X12036770Y-41356594D01*
X12095247Y-41368225D01*
X12095250Y-41368226D01*
X12095252Y-41368226D01*
X12411971Y-41368226D01*
X12479010Y-41387911D01*
X12524765Y-41440715D01*
X12535971Y-41492226D01*
X12535971Y-41815500D01*
X12516286Y-41882539D01*
X12463482Y-41928294D01*
X12411971Y-41939500D01*
X12107052Y-41939500D01*
X12048575Y-41951131D01*
X12048574Y-41951132D01*
X11982252Y-41995447D01*
X11937937Y-42061769D01*
X11937936Y-42061770D01*
X11926305Y-42120247D01*
X11926305Y-43859752D01*
X11937936Y-43918229D01*
X11937937Y-43918230D01*
X11982252Y-43984552D01*
X12048574Y-44028867D01*
X12048575Y-44028868D01*
X12107052Y-44040499D01*
X12107055Y-44040500D01*
X12107057Y-44040500D01*
X12411971Y-44040500D01*
X12479010Y-44060185D01*
X12524765Y-44112989D01*
X12535971Y-44164500D01*
X12535971Y-44425051D01*
X12516286Y-44492090D01*
X12463482Y-44537845D01*
X12411971Y-44549051D01*
X12116718Y-44549051D01*
X12058241Y-44560682D01*
X12058240Y-44560683D01*
X11991918Y-44604998D01*
X11947603Y-44671320D01*
X11947602Y-44671321D01*
X11935971Y-44729798D01*
X11935971Y-46469303D01*
X11947602Y-46527780D01*
X11947603Y-46527781D01*
X11991918Y-46594103D01*
X12058240Y-46638418D01*
X12058241Y-46638419D01*
X12116718Y-46650050D01*
X12116721Y-46650051D01*
X12116723Y-46650051D01*
X13856221Y-46650051D01*
X13856222Y-46650050D01*
X13871039Y-46647103D01*
X13914700Y-46638419D01*
X13914700Y-46638418D01*
X13914702Y-46638418D01*
X13981023Y-46594103D01*
X14025338Y-46527782D01*
X14025338Y-46527780D01*
X14025339Y-46527780D01*
X14036970Y-46469303D01*
X14036971Y-46469301D01*
X14036971Y-45246530D01*
X18389500Y-45246530D01*
X18389500Y-45453469D01*
X18429868Y-45656412D01*
X18429870Y-45656420D01*
X18509059Y-45847598D01*
X18547965Y-45905825D01*
X18624024Y-46019657D01*
X18770342Y-46165975D01*
X18770345Y-46165977D01*
X18942402Y-46280941D01*
X19133580Y-46360130D01*
X19336530Y-46400499D01*
X19336534Y-46400500D01*
X19336535Y-46400500D01*
X19543466Y-46400500D01*
X19543467Y-46400499D01*
X19746420Y-46360130D01*
X19937598Y-46280941D01*
X20109655Y-46165977D01*
X20255977Y-46019655D01*
X20370941Y-45847598D01*
X20450130Y-45656420D01*
X20490500Y-45453465D01*
X20490500Y-45246535D01*
X20450130Y-45043580D01*
X20370941Y-44852402D01*
X20255977Y-44680345D01*
X20255975Y-44680342D01*
X20109657Y-44534024D01*
X20023626Y-44476541D01*
X19937598Y-44419059D01*
X19746420Y-44339870D01*
X19746412Y-44339868D01*
X19543469Y-44299500D01*
X19543465Y-44299500D01*
X19336535Y-44299500D01*
X19336530Y-44299500D01*
X19133587Y-44339868D01*
X19133579Y-44339870D01*
X18942403Y-44419058D01*
X18770342Y-44534024D01*
X18624024Y-44680342D01*
X18509058Y-44852403D01*
X18429870Y-45043579D01*
X18429868Y-45043587D01*
X18389500Y-45246530D01*
X14036971Y-45246530D01*
X14036971Y-44729800D01*
X14036970Y-44729798D01*
X14025339Y-44671321D01*
X14025338Y-44671320D01*
X13981023Y-44604998D01*
X13914701Y-44560683D01*
X13914700Y-44560682D01*
X13856223Y-44549051D01*
X13856219Y-44549051D01*
X13560971Y-44549051D01*
X13493932Y-44529366D01*
X13448177Y-44476562D01*
X13436971Y-44425051D01*
X13436971Y-44164500D01*
X13456656Y-44097461D01*
X13509460Y-44051706D01*
X13560971Y-44040500D01*
X13846555Y-44040500D01*
X13846556Y-44040499D01*
X13861373Y-44037552D01*
X13905034Y-44028868D01*
X13905034Y-44028867D01*
X13905036Y-44028867D01*
X13971357Y-43984552D01*
X14015672Y-43918231D01*
X14015672Y-43918229D01*
X14015673Y-43918229D01*
X14027155Y-43860500D01*
X14027305Y-43859748D01*
X14027305Y-42706530D01*
X18389500Y-42706530D01*
X18389500Y-42913469D01*
X18429868Y-43116412D01*
X18429870Y-43116420D01*
X18509058Y-43307596D01*
X18624024Y-43479657D01*
X18770342Y-43625975D01*
X18770345Y-43625977D01*
X18942402Y-43740941D01*
X19133580Y-43820130D01*
X19332775Y-43859752D01*
X19336530Y-43860499D01*
X19336534Y-43860500D01*
X19336535Y-43860500D01*
X19543466Y-43860500D01*
X19543467Y-43860499D01*
X19746420Y-43820130D01*
X19937598Y-43740941D01*
X20109655Y-43625977D01*
X20255977Y-43479655D01*
X20370941Y-43307598D01*
X20450130Y-43116420D01*
X20490500Y-42913465D01*
X20490500Y-42706535D01*
X20450130Y-42503580D01*
X20370941Y-42312402D01*
X20255977Y-42140345D01*
X20255975Y-42140342D01*
X20109657Y-41994024D01*
X19942806Y-41882539D01*
X19937598Y-41879059D01*
X19746420Y-41799870D01*
X19746412Y-41799868D01*
X19543469Y-41759500D01*
X19543465Y-41759500D01*
X19336535Y-41759500D01*
X19336530Y-41759500D01*
X19133587Y-41799868D01*
X19133579Y-41799870D01*
X18942403Y-41879058D01*
X18770342Y-41994024D01*
X18624024Y-42140342D01*
X18509058Y-42312403D01*
X18429870Y-42503579D01*
X18429868Y-42503587D01*
X18389500Y-42706530D01*
X14027305Y-42706530D01*
X14027305Y-42120252D01*
X14027305Y-42120249D01*
X14027304Y-42120247D01*
X14015673Y-42061770D01*
X14015672Y-42061769D01*
X13971357Y-41995447D01*
X13905035Y-41951132D01*
X13905034Y-41951131D01*
X13846557Y-41939500D01*
X13846553Y-41939500D01*
X13560971Y-41939500D01*
X13493932Y-41919815D01*
X13448177Y-41867011D01*
X13436971Y-41815500D01*
X13436971Y-41492226D01*
X13456656Y-41425187D01*
X13509460Y-41379432D01*
X13560971Y-41368226D01*
X13834750Y-41368226D01*
X13834751Y-41368225D01*
X13849568Y-41365278D01*
X13893229Y-41356594D01*
X13893229Y-41356593D01*
X13893231Y-41356593D01*
X13959552Y-41312278D01*
X14003867Y-41245957D01*
X14003867Y-41245955D01*
X14003868Y-41245955D01*
X14015499Y-41187478D01*
X14015500Y-41187476D01*
X14015500Y-40166530D01*
X18389500Y-40166530D01*
X18389500Y-40373469D01*
X18429868Y-40576412D01*
X18429870Y-40576420D01*
X18509058Y-40767596D01*
X18624024Y-40939657D01*
X18770342Y-41085975D01*
X18770345Y-41085977D01*
X18942402Y-41200941D01*
X19133580Y-41280130D01*
X19295200Y-41312278D01*
X19336530Y-41320499D01*
X19336534Y-41320500D01*
X19336535Y-41320500D01*
X19543466Y-41320500D01*
X19543467Y-41320499D01*
X19746420Y-41280130D01*
X19937598Y-41200941D01*
X20109655Y-41085977D01*
X20255977Y-40939655D01*
X20370941Y-40767598D01*
X20450130Y-40576420D01*
X20490500Y-40373465D01*
X20490500Y-40166535D01*
X20450130Y-39963580D01*
X20370941Y-39772402D01*
X20255977Y-39600345D01*
X20255975Y-39600342D01*
X20109657Y-39454024D01*
X20009693Y-39387231D01*
X19937598Y-39339059D01*
X19899248Y-39323174D01*
X19746420Y-39259870D01*
X19746412Y-39259868D01*
X19543469Y-39219500D01*
X19543465Y-39219500D01*
X19336535Y-39219500D01*
X19336530Y-39219500D01*
X19133587Y-39259868D01*
X19133579Y-39259870D01*
X18942403Y-39339058D01*
X18770342Y-39454024D01*
X18624024Y-39600342D01*
X18509058Y-39772403D01*
X18429870Y-39963579D01*
X18429868Y-39963587D01*
X18389500Y-40166530D01*
X14015500Y-40166530D01*
X14015500Y-39447975D01*
X14015499Y-39447973D01*
X14003868Y-39389496D01*
X14003867Y-39389495D01*
X13959552Y-39323173D01*
X13893230Y-39278858D01*
X13893229Y-39278857D01*
X13834752Y-39267226D01*
X13834748Y-39267226D01*
X13539500Y-39267226D01*
X13472461Y-39247541D01*
X13426706Y-39194737D01*
X13415500Y-39143226D01*
X13415500Y-37964500D01*
X13435185Y-37897461D01*
X13487989Y-37851706D01*
X13539500Y-37840500D01*
X15386142Y-37840500D01*
X15386144Y-37840500D01*
X15475288Y-37816614D01*
X15497278Y-37803918D01*
X15555212Y-37770470D01*
X15699152Y-37626530D01*
X18389500Y-37626530D01*
X18389500Y-37833469D01*
X18405318Y-37912989D01*
X18429870Y-38036420D01*
X18509059Y-38227598D01*
X18544897Y-38281233D01*
X18624024Y-38399657D01*
X18770342Y-38545975D01*
X18770345Y-38545977D01*
X18942402Y-38660941D01*
X19133580Y-38740130D01*
X19336530Y-38780499D01*
X19336534Y-38780500D01*
X19336535Y-38780500D01*
X19543466Y-38780500D01*
X19543467Y-38780499D01*
X19746420Y-38740130D01*
X19937598Y-38660941D01*
X20109655Y-38545977D01*
X20255977Y-38399655D01*
X20370941Y-38227598D01*
X20450130Y-38036420D01*
X20490500Y-37833465D01*
X20490500Y-37626535D01*
X20450130Y-37423580D01*
X20370941Y-37232402D01*
X20255977Y-37060345D01*
X20255975Y-37060342D01*
X20109657Y-36914024D01*
X20023626Y-36856541D01*
X19937598Y-36799059D01*
X19746420Y-36719870D01*
X19746412Y-36719868D01*
X19543469Y-36679500D01*
X19543465Y-36679500D01*
X19336535Y-36679500D01*
X19336530Y-36679500D01*
X19133587Y-36719868D01*
X19133579Y-36719870D01*
X18942403Y-36799058D01*
X18770342Y-36914024D01*
X18624024Y-37060342D01*
X18509058Y-37232403D01*
X18429870Y-37423579D01*
X18429868Y-37423587D01*
X18389500Y-37626530D01*
X15699152Y-37626530D01*
X15920470Y-37405212D01*
X15966614Y-37325288D01*
X15990499Y-37236144D01*
X15990499Y-37164500D01*
X16010184Y-37097461D01*
X16062988Y-37051706D01*
X16103857Y-37042815D01*
X16103688Y-37041097D01*
X16109742Y-37040500D01*
X16109748Y-37040500D01*
X16124568Y-37037552D01*
X16168229Y-37028868D01*
X16168229Y-37028867D01*
X16168231Y-37028867D01*
X16234552Y-36984552D01*
X16278867Y-36918231D01*
X16278867Y-36918229D01*
X16278868Y-36918229D01*
X16290499Y-36859752D01*
X16290500Y-36859750D01*
X16290500Y-35781427D01*
X16294725Y-35749334D01*
X16301100Y-35725543D01*
X16301100Y-35633256D01*
X16301100Y-34304464D01*
X16320785Y-34237425D01*
X16337419Y-34216783D01*
X16354457Y-34199745D01*
X16373824Y-34180378D01*
X16424572Y-34071549D01*
X16431100Y-34021963D01*
X16431099Y-33602162D01*
X16424572Y-33552575D01*
X16373824Y-33443746D01*
X16288916Y-33358838D01*
X16180087Y-33308090D01*
X16180085Y-33308089D01*
X16180086Y-33308089D01*
X16130502Y-33301562D01*
X15795086Y-33301562D01*
X15728047Y-33281877D01*
X15682292Y-33229073D01*
X15672348Y-33159915D01*
X15687697Y-33115565D01*
X15706392Y-33083186D01*
X15740500Y-32955892D01*
X15740500Y-32824108D01*
X15706392Y-32696814D01*
X15640500Y-32582686D01*
X15547314Y-32489500D01*
X15462610Y-32440596D01*
X15433187Y-32423608D01*
X15369539Y-32406554D01*
X15305892Y-32389500D01*
X15268504Y-32389500D01*
X15201465Y-32369815D01*
X15155710Y-32317011D01*
X15145766Y-32247853D01*
X15153800Y-32218567D01*
X15165499Y-32159752D01*
X15165500Y-32159750D01*
X15165500Y-31864500D01*
X15168050Y-31855814D01*
X15166762Y-31846853D01*
X15177740Y-31822812D01*
X15185185Y-31797461D01*
X15192025Y-31791533D01*
X15195787Y-31783297D01*
X15218021Y-31769007D01*
X15237989Y-31751706D01*
X15248503Y-31749418D01*
X15254565Y-31745523D01*
X15289500Y-31740500D01*
X15443456Y-31740500D01*
X15510495Y-31760185D01*
X15531137Y-31776819D01*
X18432213Y-34677895D01*
X18465698Y-34739218D01*
X18460714Y-34808910D01*
X18459093Y-34813028D01*
X18429871Y-34883575D01*
X18429868Y-34883587D01*
X18389500Y-35086530D01*
X18389500Y-35293469D01*
X18429868Y-35496412D01*
X18429870Y-35496420D01*
X18509058Y-35687596D01*
X18624024Y-35859657D01*
X18770342Y-36005975D01*
X18770345Y-36005977D01*
X18942402Y-36120941D01*
X19133580Y-36200130D01*
X19336530Y-36240499D01*
X19336534Y-36240500D01*
X19336535Y-36240500D01*
X19543466Y-36240500D01*
X19543467Y-36240499D01*
X19746420Y-36200130D01*
X19937598Y-36120941D01*
X20109655Y-36005977D01*
X20255977Y-35859655D01*
X20370941Y-35687598D01*
X20450130Y-35496420D01*
X20490500Y-35293465D01*
X20490500Y-35086535D01*
X20450130Y-34883580D01*
X20370941Y-34692402D01*
X20255977Y-34520345D01*
X20255975Y-34520342D01*
X20109657Y-34374024D01*
X19960228Y-34274180D01*
X19937598Y-34259059D01*
X19928467Y-34255277D01*
X19746420Y-34179870D01*
X19746412Y-34179868D01*
X19543469Y-34139500D01*
X19543465Y-34139500D01*
X19336535Y-34139500D01*
X19336530Y-34139500D01*
X19133587Y-34179868D01*
X19133575Y-34179871D01*
X19063028Y-34209093D01*
X18993559Y-34216562D01*
X18931080Y-34185287D01*
X18927895Y-34182213D01*
X15855213Y-31109531D01*
X15855208Y-31109527D01*
X15775290Y-31063387D01*
X15775289Y-31063386D01*
X15775288Y-31063386D01*
X15686144Y-31039500D01*
X15686143Y-31039500D01*
X15289500Y-31039500D01*
X15222461Y-31019815D01*
X15176706Y-30967011D01*
X15165500Y-30915500D01*
X15165500Y-30620249D01*
X15165499Y-30620247D01*
X15153868Y-30561770D01*
X15153867Y-30561769D01*
X15109552Y-30495447D01*
X15043230Y-30451132D01*
X15043229Y-30451131D01*
X14984752Y-30439500D01*
X14984748Y-30439500D01*
X14395252Y-30439500D01*
X14395249Y-30439500D01*
X14324791Y-30453515D01*
X14324537Y-30452239D01*
X14267977Y-30458317D01*
X14244089Y-30451303D01*
X14184751Y-30439500D01*
X14184748Y-30439500D01*
X13595252Y-30439500D01*
X13595249Y-30439500D01*
X13524791Y-30453515D01*
X13524537Y-30452239D01*
X13467977Y-30458317D01*
X13444089Y-30451303D01*
X13384751Y-30439500D01*
X13384748Y-30439500D01*
X12795252Y-30439500D01*
X12795249Y-30439500D01*
X12724791Y-30453515D01*
X12724537Y-30452239D01*
X12667977Y-30458317D01*
X12644089Y-30451303D01*
X12584751Y-30439500D01*
X12584748Y-30439500D01*
X11995252Y-30439500D01*
X11995249Y-30439500D01*
X11924791Y-30453515D01*
X11924537Y-30452239D01*
X11867977Y-30458317D01*
X11844089Y-30451303D01*
X11784751Y-30439500D01*
X11784748Y-30439500D01*
X11195252Y-30439500D01*
X11195249Y-30439500D01*
X11124791Y-30453515D01*
X11124537Y-30452239D01*
X11067977Y-30458317D01*
X11044089Y-30451303D01*
X10984751Y-30439500D01*
X10984748Y-30439500D01*
X10710544Y-30439500D01*
X10643505Y-30419815D01*
X10597750Y-30367011D01*
X10587806Y-30297853D01*
X10616831Y-30234297D01*
X10622863Y-30227819D01*
X10794792Y-30055890D01*
X10970470Y-29880212D01*
X11016614Y-29800288D01*
X11040500Y-29711143D01*
X11040500Y-29618856D01*
X11040500Y-28898676D01*
X11060185Y-28831637D01*
X11076819Y-28810995D01*
X11090500Y-28797314D01*
X11156392Y-28683186D01*
X11190500Y-28555892D01*
X11190500Y-28424108D01*
X11156392Y-28296814D01*
X11090500Y-28182686D01*
X10997314Y-28089500D01*
X10940250Y-28056554D01*
X10883187Y-28023608D01*
X10819539Y-28006554D01*
X10755892Y-27989500D01*
X10624108Y-27989500D01*
X10496812Y-28023608D01*
X10382686Y-28089500D01*
X10382683Y-28089502D01*
X10289502Y-28182683D01*
X10289500Y-28182686D01*
X10223608Y-28296812D01*
X10199717Y-28385977D01*
X10189500Y-28424108D01*
X10189500Y-28555892D01*
X10195995Y-28580131D01*
X10223608Y-28683187D01*
X10256554Y-28740250D01*
X10289500Y-28797314D01*
X10289502Y-28797316D01*
X10303181Y-28810995D01*
X10336666Y-28872318D01*
X10339500Y-28898676D01*
X10339500Y-29468456D01*
X10319815Y-29535495D01*
X10303185Y-29556132D01*
X10213726Y-29645592D01*
X10134890Y-29724428D01*
X10073567Y-29757912D01*
X10003875Y-29752928D01*
X9947942Y-29711056D01*
X9923525Y-29645592D01*
X9927433Y-29604657D01*
X9940500Y-29555892D01*
X9940500Y-29424108D01*
X9906392Y-29296814D01*
X9840500Y-29182686D01*
X9826819Y-29169005D01*
X9793334Y-29107682D01*
X9790500Y-29081324D01*
X9790500Y-24986752D01*
X9790500Y-24986750D01*
X9766614Y-24897606D01*
X9735581Y-24843856D01*
X9735581Y-24843855D01*
X9735579Y-24843853D01*
X9720471Y-24817684D01*
X9720467Y-24817679D01*
X9040500Y-24137712D01*
X9022489Y-24110706D01*
X9020679Y-24111752D01*
X8970472Y-24024791D01*
X8970468Y-24024786D01*
X8755213Y-23809531D01*
X8755208Y-23809527D01*
X8675290Y-23763387D01*
X8675289Y-23763386D01*
X8675288Y-23763386D01*
X8586144Y-23739500D01*
X8586143Y-23739500D01*
X6060813Y-23739500D01*
X5993774Y-23719815D01*
X5948019Y-23667011D01*
X5938075Y-23597853D01*
X5939195Y-23591312D01*
X5940500Y-23584750D01*
X5940500Y-22995249D01*
X5940499Y-22995247D01*
X5926485Y-22924790D01*
X5927762Y-22924535D01*
X5921680Y-22867991D01*
X5928694Y-22844100D01*
X5928867Y-22843231D01*
X5940500Y-22784748D01*
X5940500Y-22195252D01*
X5940500Y-22195249D01*
X5940499Y-22195247D01*
X5926485Y-22124790D01*
X5927762Y-22124535D01*
X5921680Y-22067991D01*
X5928694Y-22044100D01*
X5938977Y-21992403D01*
X5940500Y-21984748D01*
X5940500Y-21395252D01*
X5940500Y-21395249D01*
X5940499Y-21395247D01*
X5928868Y-21336770D01*
X5928867Y-21336769D01*
X5884552Y-21270447D01*
X5818230Y-21226132D01*
X5818229Y-21226131D01*
X5759752Y-21214500D01*
X5759748Y-21214500D01*
X5428376Y-21214500D01*
X5416745Y-21211084D01*
X5404677Y-21212214D01*
X5383844Y-21201423D01*
X5361337Y-21194815D01*
X5351861Y-21184858D01*
X5342635Y-21180080D01*
X5330654Y-21162575D01*
X5320871Y-21152295D01*
X5316702Y-21145043D01*
X5316614Y-21144712D01*
X5293520Y-21104712D01*
X5270470Y-21064788D01*
X3875212Y-19669530D01*
X3875211Y-19669529D01*
X3875208Y-19669527D01*
X3795290Y-19623387D01*
X3795289Y-19623386D01*
X3795288Y-19623386D01*
X3706144Y-19599500D01*
X3706143Y-19599500D01*
X3014725Y-19599500D01*
X2947686Y-19579815D01*
X2901931Y-19527011D01*
X2900164Y-19522952D01*
X2870943Y-19452405D01*
X2755975Y-19280342D01*
X2609657Y-19134024D01*
X2518290Y-19072975D01*
X2437598Y-19019059D01*
X2372803Y-18992220D01*
X2246420Y-18939870D01*
X2246412Y-18939868D01*
X2043469Y-18899500D01*
X2043465Y-18899500D01*
X1836535Y-18899500D01*
X1836530Y-18899500D01*
X1633587Y-18939868D01*
X1633579Y-18939870D01*
X1442403Y-19019058D01*
X1270342Y-19134024D01*
X1124024Y-19280342D01*
X1009058Y-19452403D01*
X929870Y-19643579D01*
X929868Y-19643587D01*
X889500Y-19846530D01*
X-9500Y-19846530D01*
X-9500Y-7146530D01*
X889500Y-7146530D01*
X889500Y-7353469D01*
X929868Y-7556412D01*
X929870Y-7556420D01*
X987868Y-7696440D01*
X1009059Y-7747598D01*
X1018752Y-7762104D01*
X1124024Y-7919657D01*
X1270342Y-8065975D01*
X1270345Y-8065977D01*
X1442402Y-8180941D01*
X1633580Y-8260130D01*
X1836530Y-8300499D01*
X1836534Y-8300500D01*
X1836535Y-8300500D01*
X2043466Y-8300500D01*
X2043467Y-8300499D01*
X2246420Y-8260130D01*
X2316972Y-8230905D01*
X2386438Y-8223437D01*
X2448918Y-8254711D01*
X2452104Y-8257786D01*
X4013181Y-9818862D01*
X4046666Y-9880185D01*
X4049500Y-9906543D01*
X4049500Y-11139811D01*
X4029815Y-11206850D01*
X3977011Y-11252605D01*
X3907853Y-11262549D01*
X3844297Y-11233524D01*
X3837819Y-11227492D01*
X2937431Y-10327104D01*
X2903946Y-10265781D01*
X2908930Y-10196089D01*
X2910551Y-10191970D01*
X2942650Y-10114477D01*
X2950130Y-10096420D01*
X2990500Y-9893465D01*
X2990500Y-9686535D01*
X2950130Y-9483580D01*
X2870941Y-9292402D01*
X2755977Y-9120345D01*
X2755975Y-9120342D01*
X2609657Y-8974024D01*
X2447773Y-8865858D01*
X2437598Y-8859059D01*
X2419281Y-8851472D01*
X2246420Y-8779870D01*
X2246412Y-8779868D01*
X2043469Y-8739500D01*
X2043465Y-8739500D01*
X1836535Y-8739500D01*
X1836530Y-8739500D01*
X1633587Y-8779868D01*
X1633579Y-8779870D01*
X1442403Y-8859058D01*
X1270342Y-8974024D01*
X1124024Y-9120342D01*
X1009058Y-9292403D01*
X929870Y-9483579D01*
X929868Y-9483587D01*
X889500Y-9686530D01*
X889500Y-9893469D01*
X929868Y-10096412D01*
X929870Y-10096420D01*
X1009058Y-10287596D01*
X1124024Y-10459657D01*
X1270342Y-10605975D01*
X1270345Y-10605977D01*
X1442402Y-10720941D01*
X1633580Y-10800130D01*
X1772170Y-10827697D01*
X1836530Y-10840499D01*
X1836534Y-10840500D01*
X1836535Y-10840500D01*
X2043466Y-10840500D01*
X2043467Y-10840499D01*
X2246420Y-10800130D01*
X2341970Y-10760550D01*
X2411439Y-10753082D01*
X2473918Y-10784357D01*
X2477104Y-10787431D01*
X3428181Y-11738508D01*
X3461666Y-11799831D01*
X3464500Y-11826189D01*
X3464500Y-13094811D01*
X3444815Y-13161850D01*
X3392011Y-13207605D01*
X3322853Y-13217549D01*
X3259297Y-13188524D01*
X3252819Y-13182492D01*
X2937431Y-12867104D01*
X2903946Y-12805781D01*
X2908930Y-12736089D01*
X2910551Y-12731970D01*
X2950130Y-12636420D01*
X2990500Y-12433465D01*
X2990500Y-12226535D01*
X2950130Y-12023580D01*
X2870941Y-11832402D01*
X2755977Y-11660345D01*
X2755975Y-11660342D01*
X2609657Y-11514024D01*
X2497633Y-11439173D01*
X2437598Y-11399059D01*
X2246420Y-11319870D01*
X2246412Y-11319868D01*
X2043469Y-11279500D01*
X2043465Y-11279500D01*
X1836535Y-11279500D01*
X1836530Y-11279500D01*
X1633587Y-11319868D01*
X1633579Y-11319870D01*
X1442403Y-11399058D01*
X1270342Y-11514024D01*
X1124024Y-11660342D01*
X1009058Y-11832403D01*
X929870Y-12023579D01*
X929868Y-12023587D01*
X889500Y-12226530D01*
X889500Y-12433469D01*
X929868Y-12636412D01*
X929870Y-12636420D01*
X1009058Y-12827596D01*
X1124024Y-12999657D01*
X1270342Y-13145975D01*
X1270345Y-13145977D01*
X1442402Y-13260941D01*
X1633580Y-13340130D01*
X1836530Y-13380499D01*
X1836534Y-13380500D01*
X1836535Y-13380500D01*
X2043466Y-13380500D01*
X2043467Y-13380499D01*
X2246420Y-13340130D01*
X2341970Y-13300550D01*
X2411439Y-13293082D01*
X2473918Y-13324357D01*
X2477104Y-13327431D01*
X2848181Y-13698508D01*
X2862884Y-13725435D01*
X2879477Y-13751254D01*
X2880368Y-13757454D01*
X2881666Y-13759831D01*
X2884500Y-13786189D01*
X2884500Y-14029505D01*
X2864815Y-14096544D01*
X2812011Y-14142299D01*
X2742853Y-14152243D01*
X2679297Y-14123218D01*
X2672819Y-14117186D01*
X2609657Y-14054024D01*
X2444777Y-13943856D01*
X2437598Y-13939059D01*
X2435046Y-13938002D01*
X2246420Y-13859870D01*
X2246412Y-13859868D01*
X2043469Y-13819500D01*
X2043465Y-13819500D01*
X1836535Y-13819500D01*
X1836530Y-13819500D01*
X1633587Y-13859868D01*
X1633579Y-13859870D01*
X1442403Y-13939058D01*
X1270342Y-14054024D01*
X1124024Y-14200342D01*
X1009058Y-14372403D01*
X929870Y-14563579D01*
X929868Y-14563587D01*
X889500Y-14766530D01*
X889500Y-14973469D01*
X929868Y-15176412D01*
X929870Y-15176420D01*
X1009058Y-15367596D01*
X1124024Y-15539657D01*
X1270342Y-15685975D01*
X1270345Y-15685977D01*
X1442402Y-15800941D01*
X1633580Y-15880130D01*
X1825555Y-15918316D01*
X1836530Y-15920499D01*
X1836534Y-15920500D01*
X1836535Y-15920500D01*
X1918811Y-15920500D01*
X1985850Y-15940185D01*
X2006492Y-15956819D01*
X2210933Y-16161260D01*
X2244418Y-16222583D01*
X2239434Y-16292275D01*
X2197562Y-16348208D01*
X2132098Y-16372625D01*
X2099061Y-16370558D01*
X2043469Y-16359500D01*
X2043465Y-16359500D01*
X1836535Y-16359500D01*
X1836530Y-16359500D01*
X1633587Y-16399868D01*
X1633579Y-16399870D01*
X1442403Y-16479058D01*
X1270342Y-16594024D01*
X1124024Y-16740342D01*
X1009058Y-16912403D01*
X929870Y-17103579D01*
X929868Y-17103587D01*
X889500Y-17306530D01*
X889500Y-17513469D01*
X929868Y-17716412D01*
X929870Y-17716420D01*
X997800Y-17880418D01*
X1009059Y-17907598D01*
X1023366Y-17929010D01*
X1124024Y-18079657D01*
X1270342Y-18225975D01*
X1270345Y-18225977D01*
X1442402Y-18340941D01*
X1633580Y-18420130D01*
X1836530Y-18460499D01*
X1836534Y-18460500D01*
X1836535Y-18460500D01*
X2043466Y-18460500D01*
X2043467Y-18460499D01*
X2246420Y-18420130D01*
X2437598Y-18340941D01*
X2609655Y-18225977D01*
X2699972Y-18135659D01*
X2761293Y-18102175D01*
X2830984Y-18107159D01*
X2875333Y-18135660D01*
X4990138Y-20250465D01*
X5064361Y-20293318D01*
X5147147Y-20315500D01*
X6090500Y-20315500D01*
X6157539Y-20335185D01*
X6203294Y-20387989D01*
X6214500Y-20439500D01*
X6214500Y-20759752D01*
X6226131Y-20818229D01*
X6226132Y-20818230D01*
X6270447Y-20884552D01*
X6336769Y-20928867D01*
X6336770Y-20928868D01*
X6395247Y-20940499D01*
X6395250Y-20940500D01*
X6395252Y-20940500D01*
X6984750Y-20940500D01*
X6984751Y-20940499D01*
X6999485Y-20937568D01*
X7055210Y-20926485D01*
X7055464Y-20927762D01*
X7112009Y-20921680D01*
X7135899Y-20928694D01*
X7195247Y-20940499D01*
X7195250Y-20940500D01*
X7195252Y-20940500D01*
X7784750Y-20940500D01*
X7784751Y-20940499D01*
X7799485Y-20937568D01*
X7855210Y-20926485D01*
X7855464Y-20927762D01*
X7912009Y-20921680D01*
X7935899Y-20928694D01*
X7995247Y-20940499D01*
X7995250Y-20940500D01*
X7995252Y-20940500D01*
X8584750Y-20940500D01*
X8584751Y-20940499D01*
X8599485Y-20937568D01*
X8655210Y-20926485D01*
X8655464Y-20927762D01*
X8712009Y-20921680D01*
X8735899Y-20928694D01*
X8795247Y-20940499D01*
X8795250Y-20940500D01*
X8795252Y-20940500D01*
X9384750Y-20940500D01*
X9384751Y-20940499D01*
X9399485Y-20937568D01*
X9455210Y-20926485D01*
X9455464Y-20927762D01*
X9512009Y-20921680D01*
X9535899Y-20928694D01*
X9595247Y-20940499D01*
X9595250Y-20940500D01*
X9595252Y-20940500D01*
X10184750Y-20940500D01*
X10184751Y-20940499D01*
X10199485Y-20937568D01*
X10255210Y-20926485D01*
X10255424Y-20927563D01*
X10312670Y-20921403D01*
X10335499Y-20928105D01*
X10395297Y-20939999D01*
X10395301Y-20940000D01*
X10415000Y-20940000D01*
X10965000Y-20940000D01*
X10984696Y-20940000D01*
X11055015Y-20926013D01*
X11055257Y-20927233D01*
X11112007Y-20921128D01*
X11136329Y-20928269D01*
X11195304Y-20940000D01*
X11215000Y-20940000D01*
X11215000Y-20265000D01*
X10965000Y-20265000D01*
X10965000Y-20940000D01*
X10415000Y-20940000D01*
X10415000Y-19715000D01*
X10965000Y-19715000D01*
X11215000Y-19715000D01*
X11215000Y-19040000D01*
X11195297Y-19040000D01*
X11124986Y-19053986D01*
X11124743Y-19052768D01*
X11067979Y-19058869D01*
X11043649Y-19051725D01*
X10984702Y-19040000D01*
X10965000Y-19040000D01*
X10965000Y-19715000D01*
X10415000Y-19715000D01*
X10415000Y-19072975D01*
X10318937Y-19035023D01*
X10291455Y-19013612D01*
X10263919Y-18992220D01*
X10263889Y-18992136D01*
X10263820Y-18992082D01*
X10252390Y-18959537D01*
X10240677Y-18926329D01*
X10240672Y-18926170D01*
X10240669Y-18926160D01*
X10240672Y-18926146D01*
X10240500Y-18919697D01*
X10240500Y-18393358D01*
X10240500Y-18393356D01*
X10216614Y-18304212D01*
X10208138Y-18289531D01*
X10170470Y-18224288D01*
X10077319Y-18131137D01*
X10065609Y-18109693D01*
X10050323Y-18090629D01*
X10047556Y-18076631D01*
X10043834Y-18069814D01*
X10041679Y-18056410D01*
X10041000Y-18049946D01*
X10041000Y-18024108D01*
X10036535Y-18007447D01*
X10035516Y-17997739D01*
X10040116Y-17972592D01*
X10040724Y-17947031D01*
X10046299Y-17938793D01*
X10048089Y-17929010D01*
X10065554Y-17910342D01*
X10079885Y-17889168D01*
X10089028Y-17885252D01*
X10095824Y-17877989D01*
X10120611Y-17871726D01*
X10144113Y-17861662D01*
X10153921Y-17863311D01*
X10163565Y-17860875D01*
X10187801Y-17869007D01*
X10213016Y-17873247D01*
X10221808Y-17880418D01*
X10229805Y-17883102D01*
X10238703Y-17894199D01*
X10257209Y-17909294D01*
X10259528Y-17912316D01*
X10259530Y-17912318D01*
X10877682Y-18530470D01*
X10945911Y-18569862D01*
X10957606Y-18576614D01*
X11046750Y-18600500D01*
X11773455Y-18600500D01*
X11802892Y-18609143D01*
X11832881Y-18615667D01*
X11837897Y-18619422D01*
X11840494Y-18620185D01*
X11861135Y-18636818D01*
X11903180Y-18678862D01*
X11936666Y-18740184D01*
X11939500Y-18766544D01*
X11939500Y-18919697D01*
X11919815Y-18986736D01*
X11867011Y-19032491D01*
X11797853Y-19042435D01*
X11791314Y-19041315D01*
X11784704Y-19040000D01*
X11765000Y-19040000D01*
X11765000Y-20940000D01*
X11784699Y-20940000D01*
X11784702Y-20939999D01*
X11855014Y-20926014D01*
X11855296Y-20927432D01*
X11911341Y-20921404D01*
X11936747Y-20928863D01*
X11995247Y-20940499D01*
X11995250Y-20940500D01*
X11995252Y-20940500D01*
X12584750Y-20940500D01*
X12584751Y-20940499D01*
X12599485Y-20937568D01*
X12655210Y-20926485D01*
X12655464Y-20927762D01*
X12712009Y-20921680D01*
X12735899Y-20928694D01*
X12795247Y-20940499D01*
X12795250Y-20940500D01*
X12795252Y-20940500D01*
X13384750Y-20940500D01*
X13384751Y-20940499D01*
X13399485Y-20937568D01*
X13455210Y-20926485D01*
X13455464Y-20927762D01*
X13512009Y-20921680D01*
X13535899Y-20928694D01*
X13595247Y-20940499D01*
X13595250Y-20940500D01*
X13595252Y-20940500D01*
X14184750Y-20940500D01*
X14184751Y-20940499D01*
X14199485Y-20937568D01*
X14255210Y-20926485D01*
X14255464Y-20927762D01*
X14312009Y-20921680D01*
X14335899Y-20928694D01*
X14395247Y-20940499D01*
X14395250Y-20940500D01*
X14794456Y-20940500D01*
X14861495Y-20960185D01*
X14907250Y-21012989D01*
X14917194Y-21082147D01*
X14888169Y-21145703D01*
X14882137Y-21152181D01*
X14579531Y-21454786D01*
X14579530Y-21454788D01*
X14541609Y-21520470D01*
X14533386Y-21534712D01*
X14509500Y-21623856D01*
X14509500Y-22056144D01*
X14523811Y-22109552D01*
X14523810Y-22109552D01*
X14523811Y-22109554D01*
X14533384Y-22145284D01*
X14533385Y-22145286D01*
X14579527Y-22225208D01*
X14579529Y-22225211D01*
X14579530Y-22225212D01*
X15124788Y-22770470D01*
X15204712Y-22816614D01*
X15293856Y-22840500D01*
X15293857Y-22840500D01*
X15319187Y-22840500D01*
X15386226Y-22860185D01*
X15431981Y-22912989D01*
X15441925Y-22982147D01*
X15440805Y-22988688D01*
X15439500Y-22995249D01*
X15439500Y-23584752D01*
X15453515Y-23655209D01*
X15452239Y-23655462D01*
X15458317Y-23712023D01*
X15451303Y-23735910D01*
X15439500Y-23795247D01*
X15439500Y-24384752D01*
X15450750Y-24441309D01*
X15444523Y-24510900D01*
X15401660Y-24566078D01*
X15335770Y-24589322D01*
X15329133Y-24589500D01*
X11420436Y-24589500D01*
X11402680Y-24594258D01*
X11338496Y-24594258D01*
X11324803Y-24590589D01*
X11193019Y-24590589D01*
X11065723Y-24624697D01*
X10951597Y-24690589D01*
X10951594Y-24690591D01*
X10858413Y-24783772D01*
X10858411Y-24783775D01*
X10792519Y-24897901D01*
X10768713Y-24986750D01*
X10758411Y-25025197D01*
X10758411Y-25156981D01*
X10765851Y-25184748D01*
X10792519Y-25284276D01*
X10823936Y-25338691D01*
X10858411Y-25398403D01*
X10951597Y-25491589D01*
X11065725Y-25557481D01*
X11193019Y-25591589D01*
X11193021Y-25591589D01*
X11324801Y-25591589D01*
X11324803Y-25591589D01*
X11452097Y-25557481D01*
X11566225Y-25491589D01*
X11659411Y-25398403D01*
X11725303Y-25284275D01*
X11725803Y-25282409D01*
X11726654Y-25281011D01*
X11728411Y-25276771D01*
X11729072Y-25277044D01*
X11762166Y-25222748D01*
X11825013Y-25192217D01*
X11845578Y-25190500D01*
X15329133Y-25190500D01*
X15396172Y-25210185D01*
X15441927Y-25262989D01*
X15451871Y-25332147D01*
X15450750Y-25338691D01*
X15439500Y-25395247D01*
X15439500Y-25984752D01*
X15450750Y-26041309D01*
X15444523Y-26110900D01*
X15401660Y-26166078D01*
X15335770Y-26189322D01*
X15329133Y-26189500D01*
X10978676Y-26189500D01*
X10911637Y-26169815D01*
X10890995Y-26153181D01*
X10847316Y-26109502D01*
X10847314Y-26109500D01*
X10753718Y-26055462D01*
X10733187Y-26043608D01*
X10669539Y-26026554D01*
X10605892Y-26009500D01*
X10474108Y-26009500D01*
X10346812Y-26043608D01*
X10232686Y-26109500D01*
X10232683Y-26109502D01*
X10139502Y-26202683D01*
X10139500Y-26202686D01*
X10073608Y-26316812D01*
X10039500Y-26444108D01*
X10039500Y-26575892D01*
X10047222Y-26604712D01*
X10073608Y-26703187D01*
X10102959Y-26754023D01*
X10139500Y-26817314D01*
X10232686Y-26910500D01*
X10346814Y-26976392D01*
X10474108Y-27010500D01*
X10474110Y-27010500D01*
X10605890Y-27010500D01*
X10605892Y-27010500D01*
X10733186Y-26976392D01*
X10847314Y-26910500D01*
X10930995Y-26826819D01*
X10992318Y-26793334D01*
X11018676Y-26790500D01*
X14969942Y-26790500D01*
X15036981Y-26810185D01*
X15082736Y-26862989D01*
X15092680Y-26932147D01*
X15063655Y-26995703D01*
X15055313Y-27003561D01*
X15055535Y-27003783D01*
X14159531Y-27899786D01*
X14159527Y-27899791D01*
X14127820Y-27954711D01*
X14127820Y-27954712D01*
X14113386Y-27979710D01*
X14089500Y-28068856D01*
X14089500Y-29081324D01*
X14069815Y-29148363D01*
X14053181Y-29169005D01*
X14039502Y-29182683D01*
X14039500Y-29182686D01*
X13973608Y-29296812D01*
X13963132Y-29335910D01*
X13939500Y-29424108D01*
X13939500Y-29555892D01*
X13949831Y-29594447D01*
X13973608Y-29683187D01*
X13989748Y-29711141D01*
X14039500Y-29797314D01*
X14132686Y-29890500D01*
X14246814Y-29956392D01*
X14374108Y-29990500D01*
X14374110Y-29990500D01*
X14505890Y-29990500D01*
X14505892Y-29990500D01*
X14633186Y-29956392D01*
X14747314Y-29890500D01*
X14840500Y-29797314D01*
X14906392Y-29683186D01*
X14940500Y-29555892D01*
X14940500Y-29424108D01*
X14906392Y-29296814D01*
X14840500Y-29182686D01*
X14826819Y-29169005D01*
X14793334Y-29107682D01*
X14790500Y-29081324D01*
X14790500Y-28311544D01*
X14810185Y-28244505D01*
X14826819Y-28223863D01*
X15227819Y-27822863D01*
X15289142Y-27789378D01*
X15358834Y-27794362D01*
X15414767Y-27836234D01*
X15439184Y-27901698D01*
X15439500Y-27910544D01*
X15439500Y-28384752D01*
X15453515Y-28455209D01*
X15452239Y-28455462D01*
X15458317Y-28512023D01*
X15451303Y-28535910D01*
X15439500Y-28595247D01*
X15439500Y-29184752D01*
X15453515Y-29255209D01*
X15452239Y-29255462D01*
X15458317Y-29312023D01*
X15451303Y-29335910D01*
X15439500Y-29395247D01*
X15439500Y-29984752D01*
X15451131Y-30043229D01*
X15451132Y-30043230D01*
X15495447Y-30109552D01*
X15561769Y-30153867D01*
X15561770Y-30153868D01*
X15620247Y-30165499D01*
X15620250Y-30165500D01*
X15620252Y-30165500D01*
X15915500Y-30165500D01*
X15982539Y-30185185D01*
X16028294Y-30237989D01*
X16039500Y-30289500D01*
X16039500Y-30586144D01*
X16048639Y-30620249D01*
X16063386Y-30675287D01*
X16063387Y-30675290D01*
X16109527Y-30755208D01*
X16109529Y-30755211D01*
X16109530Y-30755212D01*
X18124787Y-32770469D01*
X18181801Y-32803386D01*
X18204712Y-32816614D01*
X18293856Y-32840500D01*
X18322667Y-32840500D01*
X18339589Y-32845408D01*
X18354789Y-32855105D01*
X18372087Y-32860185D01*
X18383629Y-32873505D01*
X18398492Y-32882988D01*
X18406036Y-32899365D01*
X18417842Y-32912989D01*
X18426664Y-32940306D01*
X18427641Y-32945212D01*
X18429870Y-32956420D01*
X18482378Y-33083186D01*
X18509059Y-33147598D01*
X18545350Y-33201911D01*
X18624024Y-33319657D01*
X18770342Y-33465975D01*
X18770345Y-33465977D01*
X18942402Y-33580941D01*
X19133580Y-33660130D01*
X19317094Y-33696633D01*
X19336530Y-33700499D01*
X19336534Y-33700500D01*
X19336535Y-33700500D01*
X19543466Y-33700500D01*
X19543467Y-33700499D01*
X19746420Y-33660130D01*
X19937598Y-33580941D01*
X20109655Y-33465977D01*
X20255977Y-33319655D01*
X20370941Y-33147598D01*
X20450130Y-32956420D01*
X20490500Y-32753465D01*
X20490500Y-32546535D01*
X20450130Y-32343580D01*
X20370941Y-32152402D01*
X20255977Y-31980345D01*
X20255975Y-31980342D01*
X20109657Y-31834024D01*
X19969687Y-31740500D01*
X19937598Y-31719059D01*
X19746420Y-31639870D01*
X19746412Y-31639868D01*
X19543469Y-31599500D01*
X19543465Y-31599500D01*
X19336535Y-31599500D01*
X19336530Y-31599500D01*
X19133587Y-31639868D01*
X19133579Y-31639870D01*
X18942403Y-31719058D01*
X18770342Y-31834024D01*
X18624025Y-31980341D01*
X18588604Y-32033352D01*
X18534991Y-32078156D01*
X18465666Y-32086862D01*
X18402639Y-32056706D01*
X18397822Y-32052140D01*
X16776819Y-30431137D01*
X16762115Y-30404209D01*
X16745523Y-30378391D01*
X16744631Y-30372190D01*
X16743334Y-30369814D01*
X16740500Y-30343456D01*
X16740500Y-30289500D01*
X16760185Y-30222461D01*
X16812989Y-30176706D01*
X16864500Y-30165500D01*
X17159750Y-30165500D01*
X17159751Y-30165499D01*
X17174568Y-30162552D01*
X17218229Y-30153868D01*
X17218229Y-30153867D01*
X17218231Y-30153867D01*
X17284552Y-30109552D01*
X17328867Y-30043231D01*
X17328867Y-30043229D01*
X17328868Y-30043229D01*
X17340499Y-29984752D01*
X17340500Y-29984750D01*
X17340500Y-29395249D01*
X17339195Y-29388688D01*
X17345424Y-29319096D01*
X17388289Y-29263920D01*
X17454179Y-29240678D01*
X17460813Y-29240500D01*
X18023456Y-29240500D01*
X18090495Y-29260185D01*
X18111137Y-29276819D01*
X18432213Y-29597895D01*
X18465698Y-29659218D01*
X18460714Y-29728910D01*
X18459093Y-29733028D01*
X18429871Y-29803575D01*
X18429868Y-29803587D01*
X18389500Y-30006530D01*
X18389500Y-30213469D01*
X18429868Y-30416412D01*
X18429870Y-30416420D01*
X18509058Y-30607596D01*
X18624024Y-30779657D01*
X18770342Y-30925975D01*
X18770345Y-30925977D01*
X18942402Y-31040941D01*
X19133580Y-31120130D01*
X19336530Y-31160499D01*
X19336534Y-31160500D01*
X19336535Y-31160500D01*
X19543466Y-31160500D01*
X19543467Y-31160499D01*
X19746420Y-31120130D01*
X19937598Y-31040941D01*
X20109655Y-30925977D01*
X20255977Y-30779655D01*
X20370941Y-30607598D01*
X20450130Y-30416420D01*
X20490500Y-30213465D01*
X20490500Y-30006535D01*
X20450130Y-29803580D01*
X20370941Y-29612402D01*
X20255977Y-29440345D01*
X20255975Y-29440342D01*
X20109657Y-29294024D01*
X19943026Y-29182686D01*
X19937598Y-29179059D01*
X19860959Y-29147314D01*
X19746420Y-29099870D01*
X19746412Y-29099868D01*
X19543469Y-29059500D01*
X19543465Y-29059500D01*
X19336535Y-29059500D01*
X19336530Y-29059500D01*
X19133587Y-29099868D01*
X19133575Y-29099871D01*
X19063028Y-29129093D01*
X18993559Y-29136562D01*
X18931080Y-29105287D01*
X18927895Y-29102213D01*
X18477863Y-28652181D01*
X18467250Y-28632744D01*
X18452750Y-28616011D01*
X18450833Y-28602679D01*
X18444378Y-28590858D01*
X18445957Y-28568771D01*
X18442806Y-28546853D01*
X18448401Y-28534601D01*
X18449362Y-28521166D01*
X18462632Y-28503439D01*
X18471831Y-28483297D01*
X18483162Y-28476014D01*
X18491234Y-28465233D01*
X18511979Y-28457495D01*
X18530609Y-28445523D01*
X18552527Y-28442371D01*
X18556698Y-28440816D01*
X18565544Y-28440500D01*
X18592859Y-28440500D01*
X18654858Y-28457112D01*
X18700211Y-28483297D01*
X18746114Y-28509800D01*
X18816233Y-28528587D01*
X18860691Y-28540499D01*
X18860694Y-28540499D01*
X18979309Y-28540499D01*
X18987368Y-28539438D01*
X18987730Y-28542188D01*
X19044038Y-28543509D01*
X19053761Y-28547067D01*
X19133580Y-28580130D01*
X19281385Y-28609530D01*
X19336530Y-28620499D01*
X19336534Y-28620500D01*
X19336535Y-28620500D01*
X19543466Y-28620500D01*
X19543467Y-28620499D01*
X19746420Y-28580130D01*
X19937598Y-28500941D01*
X20109655Y-28385977D01*
X20255977Y-28239655D01*
X20370941Y-28067598D01*
X20450130Y-27876420D01*
X20490500Y-27673465D01*
X20490500Y-27466535D01*
X20450130Y-27263580D01*
X20370941Y-27072402D01*
X20255977Y-26900345D01*
X20255975Y-26900342D01*
X20109657Y-26754024D01*
X20019608Y-26693856D01*
X19937598Y-26639059D01*
X19854670Y-26604709D01*
X19746420Y-26559870D01*
X19746412Y-26559868D01*
X19543469Y-26519500D01*
X19543465Y-26519500D01*
X19336535Y-26519500D01*
X19336530Y-26519500D01*
X19133587Y-26559868D01*
X19133579Y-26559870D01*
X18942403Y-26639058D01*
X18770342Y-26754024D01*
X18624024Y-26900342D01*
X18509058Y-27072403D01*
X18429870Y-27263579D01*
X18429868Y-27263587D01*
X18389500Y-27466530D01*
X18389500Y-27615500D01*
X18369815Y-27682539D01*
X18317011Y-27728294D01*
X18265500Y-27739500D01*
X17460813Y-27739500D01*
X17393774Y-27719815D01*
X17348019Y-27667011D01*
X17338075Y-27597853D01*
X17339195Y-27591312D01*
X17340500Y-27584750D01*
X17340500Y-26995249D01*
X17339195Y-26988688D01*
X17345424Y-26919096D01*
X17388289Y-26863920D01*
X17454179Y-26840678D01*
X17460813Y-26840500D01*
X18026142Y-26840500D01*
X18026144Y-26840500D01*
X18115288Y-26816614D01*
X18195212Y-26770470D01*
X18927896Y-26037784D01*
X18989217Y-26004301D01*
X19058908Y-26009285D01*
X19063028Y-26010906D01*
X19133580Y-26040130D01*
X19336530Y-26080499D01*
X19336534Y-26080500D01*
X19336535Y-26080500D01*
X19543466Y-26080500D01*
X19543467Y-26080499D01*
X19746420Y-26040130D01*
X19937598Y-25960941D01*
X20109655Y-25845977D01*
X20255977Y-25699655D01*
X20370941Y-25527598D01*
X20450130Y-25336420D01*
X20490500Y-25133465D01*
X20490500Y-24926535D01*
X20450130Y-24723580D01*
X20370941Y-24532402D01*
X20255977Y-24360345D01*
X20255975Y-24360342D01*
X20109657Y-24214024D01*
X19995447Y-24137712D01*
X19937598Y-24099059D01*
X19746420Y-24019870D01*
X19746412Y-24019868D01*
X19543469Y-23979500D01*
X19543465Y-23979500D01*
X19336535Y-23979500D01*
X19336530Y-23979500D01*
X19133587Y-24019868D01*
X19133579Y-24019870D01*
X18942403Y-24099058D01*
X18770342Y-24214024D01*
X18624024Y-24360342D01*
X18509058Y-24532403D01*
X18429870Y-24723579D01*
X18429868Y-24723587D01*
X18389500Y-24926530D01*
X18389500Y-25133469D01*
X18429868Y-25336412D01*
X18429870Y-25336420D01*
X18455545Y-25398405D01*
X18459093Y-25406969D01*
X18461230Y-25426846D01*
X18468216Y-25445576D01*
X18464888Y-25460872D01*
X18466562Y-25476438D01*
X18457613Y-25494314D01*
X18453364Y-25513849D01*
X18436677Y-25536139D01*
X18435287Y-25538917D01*
X18432213Y-25542103D01*
X18325725Y-25648591D01*
X18264402Y-25682076D01*
X18194710Y-25677092D01*
X18138777Y-25635220D01*
X18118271Y-25593006D01*
X18105894Y-25546814D01*
X18040002Y-25432686D01*
X18026321Y-25419005D01*
X17992836Y-25357682D01*
X17990002Y-25331324D01*
X17990002Y-25043360D01*
X17990002Y-25043358D01*
X17966116Y-24954214D01*
X17966113Y-24954208D01*
X17919975Y-24874296D01*
X17919972Y-24874293D01*
X17919971Y-24874290D01*
X17854714Y-24809033D01*
X17697861Y-24652179D01*
X17664378Y-24590858D01*
X17669362Y-24521166D01*
X17711234Y-24465233D01*
X17776698Y-24440816D01*
X17785544Y-24440500D01*
X17846142Y-24440500D01*
X17846144Y-24440500D01*
X17935288Y-24416614D01*
X18015212Y-24370470D01*
X18430470Y-23955212D01*
X18476614Y-23875288D01*
X18494234Y-23809530D01*
X18500500Y-23786144D01*
X18500500Y-23335495D01*
X18520185Y-23268456D01*
X18572989Y-23222701D01*
X18642147Y-23212757D01*
X18705703Y-23241782D01*
X18712181Y-23247814D01*
X18770342Y-23305975D01*
X18770345Y-23305977D01*
X18942402Y-23420941D01*
X19133580Y-23500130D01*
X19336530Y-23540499D01*
X19336534Y-23540500D01*
X19336535Y-23540500D01*
X19543466Y-23540500D01*
X19543467Y-23540499D01*
X19746420Y-23500130D01*
X19937598Y-23420941D01*
X20109655Y-23305977D01*
X20255977Y-23159655D01*
X20370941Y-22987598D01*
X20450130Y-22796420D01*
X20490500Y-22593465D01*
X20490500Y-22386535D01*
X20450130Y-22183580D01*
X20370941Y-21992402D01*
X20255977Y-21820345D01*
X20255975Y-21820342D01*
X20109657Y-21674024D01*
X20023626Y-21616541D01*
X19937598Y-21559059D01*
X19878819Y-21534712D01*
X19746420Y-21479870D01*
X19746412Y-21479868D01*
X19543469Y-21439500D01*
X19543465Y-21439500D01*
X19336535Y-21439500D01*
X19336530Y-21439500D01*
X19133587Y-21479868D01*
X19133579Y-21479870D01*
X18942403Y-21559058D01*
X18770342Y-21674024D01*
X18770341Y-21674025D01*
X18712181Y-21732186D01*
X18692744Y-21742798D01*
X18676011Y-21757299D01*
X18662679Y-21759215D01*
X18650858Y-21765671D01*
X18628771Y-21764091D01*
X18606853Y-21767243D01*
X18594601Y-21761647D01*
X18581166Y-21760687D01*
X18563439Y-21747416D01*
X18543297Y-21738218D01*
X18536014Y-21726886D01*
X18525233Y-21718815D01*
X18517495Y-21698069D01*
X18505523Y-21679440D01*
X18502371Y-21657521D01*
X18500816Y-21653351D01*
X18500500Y-21644505D01*
X18500500Y-21436543D01*
X18520185Y-21369504D01*
X18536815Y-21348866D01*
X18927896Y-20957784D01*
X18989217Y-20924301D01*
X19058908Y-20929285D01*
X19063028Y-20930906D01*
X19133580Y-20960130D01*
X19336530Y-21000499D01*
X19336534Y-21000500D01*
X19336535Y-21000500D01*
X19543466Y-21000500D01*
X19543467Y-21000499D01*
X19746420Y-20960130D01*
X19937598Y-20880941D01*
X20109655Y-20765977D01*
X20255977Y-20619655D01*
X20370941Y-20447598D01*
X20450130Y-20256420D01*
X20490500Y-20053465D01*
X20490500Y-19846535D01*
X20450130Y-19643580D01*
X20370941Y-19452402D01*
X20255977Y-19280345D01*
X20255975Y-19280342D01*
X20109657Y-19134024D01*
X20018290Y-19072975D01*
X19937598Y-19019059D01*
X19872803Y-18992220D01*
X19746420Y-18939870D01*
X19746412Y-18939868D01*
X19543469Y-18899500D01*
X19543465Y-18899500D01*
X19336535Y-18899500D01*
X19336530Y-18899500D01*
X19133587Y-18939868D01*
X19133579Y-18939870D01*
X18942403Y-19019058D01*
X18770342Y-19134024D01*
X18624024Y-19280342D01*
X18509058Y-19452403D01*
X18429870Y-19643579D01*
X18429868Y-19643587D01*
X18389500Y-19846530D01*
X18389500Y-20053469D01*
X18428685Y-20250464D01*
X18429870Y-20256420D01*
X18454341Y-20315499D01*
X18459093Y-20326970D01*
X18466562Y-20396440D01*
X18435287Y-20458919D01*
X18432213Y-20462104D01*
X18212181Y-20682136D01*
X18150858Y-20715621D01*
X18081166Y-20710637D01*
X18025233Y-20668765D01*
X18000816Y-20603301D01*
X18000500Y-20594455D01*
X18000500Y-19396542D01*
X18020185Y-19329503D01*
X18036815Y-19308865D01*
X18927894Y-18417785D01*
X18989217Y-18384301D01*
X19058909Y-18389285D01*
X19063022Y-18390903D01*
X19133580Y-18420130D01*
X19336530Y-18460499D01*
X19336534Y-18460500D01*
X19336535Y-18460500D01*
X19543466Y-18460500D01*
X19543467Y-18460499D01*
X19746420Y-18420130D01*
X19937598Y-18340941D01*
X20109655Y-18225977D01*
X20255977Y-18079655D01*
X20370941Y-17907598D01*
X20450130Y-17716420D01*
X20490500Y-17513465D01*
X20490500Y-17306535D01*
X20450130Y-17103580D01*
X20370941Y-16912402D01*
X20255977Y-16740345D01*
X20255975Y-16740342D01*
X20109657Y-16594024D01*
X20019985Y-16534108D01*
X19937598Y-16479059D01*
X19844540Y-16440513D01*
X19746420Y-16399870D01*
X19746412Y-16399868D01*
X19543469Y-16359500D01*
X19543465Y-16359500D01*
X19336535Y-16359500D01*
X19336530Y-16359500D01*
X19133587Y-16399868D01*
X19133579Y-16399870D01*
X18942403Y-16479058D01*
X18770342Y-16594024D01*
X18624024Y-16740342D01*
X18509058Y-16912403D01*
X18429870Y-17103579D01*
X18429868Y-17103587D01*
X18389500Y-17306530D01*
X18389500Y-17513469D01*
X18429868Y-17716412D01*
X18429870Y-17716420D01*
X18459093Y-17786970D01*
X18466562Y-17856440D01*
X18435287Y-17918919D01*
X18432213Y-17922104D01*
X17369531Y-18984786D01*
X17369527Y-18984791D01*
X17340663Y-19034785D01*
X17340664Y-19034786D01*
X17340663Y-19034788D01*
X17323386Y-19064712D01*
X17312640Y-19104818D01*
X17299500Y-19153856D01*
X17299500Y-21091451D01*
X17279815Y-21158490D01*
X17227011Y-21204245D01*
X17165840Y-21214439D01*
X17165840Y-21214500D01*
X17165475Y-21214500D01*
X17163351Y-21214854D01*
X17159755Y-21214500D01*
X17159748Y-21214500D01*
X17148233Y-21214500D01*
X17124247Y-21207456D01*
X17099422Y-21204489D01*
X17091298Y-21197782D01*
X17081194Y-21194815D01*
X17064824Y-21175923D01*
X17045543Y-21160004D01*
X17042335Y-21149969D01*
X17035439Y-21142011D01*
X17031881Y-21117267D01*
X17024268Y-21093452D01*
X17026169Y-21077545D01*
X17025495Y-21072853D01*
X17028458Y-21058408D01*
X17031677Y-21046394D01*
X17031677Y-21046393D01*
X17040627Y-21012989D01*
X17050500Y-20976144D01*
X17050500Y-15266543D01*
X17070185Y-15199504D01*
X17086814Y-15178867D01*
X17499151Y-14766530D01*
X18389500Y-14766530D01*
X18389500Y-14973469D01*
X18429868Y-15176412D01*
X18429870Y-15176420D01*
X18509058Y-15367596D01*
X18624024Y-15539657D01*
X18770342Y-15685975D01*
X18770345Y-15685977D01*
X18942402Y-15800941D01*
X19133580Y-15880130D01*
X19325555Y-15918316D01*
X19336530Y-15920499D01*
X19336534Y-15920500D01*
X19336535Y-15920500D01*
X19543466Y-15920500D01*
X19543467Y-15920499D01*
X19746420Y-15880130D01*
X19937598Y-15800941D01*
X20109655Y-15685977D01*
X20255977Y-15539655D01*
X20370941Y-15367598D01*
X20450130Y-15176420D01*
X20490500Y-14973465D01*
X20490500Y-14766535D01*
X20450130Y-14563580D01*
X20370941Y-14372402D01*
X20255977Y-14200345D01*
X20255975Y-14200342D01*
X20109657Y-14054024D01*
X19944777Y-13943856D01*
X19937598Y-13939059D01*
X19935046Y-13938002D01*
X19746420Y-13859870D01*
X19746412Y-13859868D01*
X19543469Y-13819500D01*
X19543465Y-13819500D01*
X19336535Y-13819500D01*
X19336530Y-13819500D01*
X19133587Y-13859868D01*
X19133579Y-13859870D01*
X18942403Y-13939058D01*
X18770342Y-14054024D01*
X18624024Y-14200342D01*
X18509058Y-14372403D01*
X18429870Y-14563579D01*
X18429868Y-14563587D01*
X18389500Y-14766530D01*
X17499151Y-14766530D01*
X18927896Y-13337784D01*
X18989217Y-13304301D01*
X19058909Y-13309285D01*
X19063028Y-13310906D01*
X19133580Y-13340130D01*
X19336530Y-13380499D01*
X19336534Y-13380500D01*
X19336535Y-13380500D01*
X19543466Y-13380500D01*
X19543467Y-13380499D01*
X19746420Y-13340130D01*
X19937598Y-13260941D01*
X20109655Y-13145977D01*
X20255977Y-12999655D01*
X20370941Y-12827598D01*
X20450130Y-12636420D01*
X20490500Y-12433465D01*
X20490500Y-12226535D01*
X20450130Y-12023580D01*
X20370941Y-11832402D01*
X20255977Y-11660345D01*
X20255975Y-11660342D01*
X20109657Y-11514024D01*
X19997633Y-11439173D01*
X19937598Y-11399059D01*
X19746420Y-11319870D01*
X19746412Y-11319868D01*
X19543469Y-11279500D01*
X19543465Y-11279500D01*
X19336535Y-11279500D01*
X19336530Y-11279500D01*
X19133587Y-11319868D01*
X19133579Y-11319870D01*
X18942403Y-11399058D01*
X18770342Y-11514024D01*
X18624024Y-11660342D01*
X18509058Y-11832403D01*
X18429870Y-12023579D01*
X18429868Y-12023587D01*
X18389500Y-12226530D01*
X18389500Y-12433469D01*
X18429868Y-12636412D01*
X18429870Y-12636420D01*
X18455102Y-12697336D01*
X18459093Y-12706969D01*
X18466562Y-12776438D01*
X18435287Y-12838917D01*
X18432213Y-12842103D01*
X16602181Y-14672136D01*
X16540858Y-14705621D01*
X16471166Y-14700637D01*
X16415233Y-14658765D01*
X16390816Y-14593301D01*
X16390500Y-14584455D01*
X16390500Y-14186544D01*
X16410185Y-14119505D01*
X16426819Y-14098863D01*
X17016407Y-13509275D01*
X17620470Y-12905212D01*
X17666614Y-12825288D01*
X17690500Y-12736143D01*
X17690500Y-12643856D01*
X17690500Y-12086543D01*
X17710185Y-12019504D01*
X17726814Y-11998867D01*
X18927896Y-10797784D01*
X18989217Y-10764301D01*
X19058909Y-10769285D01*
X19063028Y-10770906D01*
X19133580Y-10800130D01*
X19272170Y-10827697D01*
X19336530Y-10840499D01*
X19336534Y-10840500D01*
X19336535Y-10840500D01*
X19543466Y-10840500D01*
X19543467Y-10840499D01*
X19746420Y-10800130D01*
X19937598Y-10720941D01*
X20109655Y-10605977D01*
X20255977Y-10459655D01*
X20370941Y-10287598D01*
X20450130Y-10096420D01*
X20490500Y-9893465D01*
X20490500Y-9686535D01*
X20450130Y-9483580D01*
X20370941Y-9292402D01*
X20255977Y-9120345D01*
X20255975Y-9120342D01*
X20109657Y-8974024D01*
X19947773Y-8865858D01*
X19937598Y-8859059D01*
X19919281Y-8851472D01*
X19746420Y-8779870D01*
X19746412Y-8779868D01*
X19543469Y-8739500D01*
X19543465Y-8739500D01*
X19336535Y-8739500D01*
X19336530Y-8739500D01*
X19133587Y-8779868D01*
X19133579Y-8779870D01*
X18942403Y-8859058D01*
X18770342Y-8974024D01*
X18624024Y-9120342D01*
X18509058Y-9292403D01*
X18429870Y-9483579D01*
X18429868Y-9483587D01*
X18389500Y-9686530D01*
X18389500Y-9893469D01*
X18429868Y-10096412D01*
X18429870Y-10096420D01*
X18437347Y-10114472D01*
X18459093Y-10166969D01*
X18466562Y-10236438D01*
X18435287Y-10298917D01*
X18432213Y-10302103D01*
X17059531Y-11674786D01*
X17059527Y-11674791D01*
X17037650Y-11712685D01*
X17037650Y-11712686D01*
X17013386Y-11754710D01*
X16989500Y-11843856D01*
X16989500Y-12493456D01*
X16969815Y-12560495D01*
X16953181Y-12581137D01*
X15802181Y-13732137D01*
X15782744Y-13742749D01*
X15766011Y-13757250D01*
X15752679Y-13759166D01*
X15740858Y-13765622D01*
X15718771Y-13764042D01*
X15696853Y-13767194D01*
X15684601Y-13761598D01*
X15671166Y-13760638D01*
X15653439Y-13747367D01*
X15633297Y-13738169D01*
X15626014Y-13726837D01*
X15615233Y-13718766D01*
X15607495Y-13698020D01*
X15595523Y-13679391D01*
X15592371Y-13657472D01*
X15590816Y-13653302D01*
X15590500Y-13644456D01*
X15590500Y-13479438D01*
X15610185Y-13412399D01*
X15626819Y-13391757D01*
X16032873Y-12985703D01*
X16520470Y-12498106D01*
X16566614Y-12418182D01*
X16574563Y-12388515D01*
X16579390Y-12370501D01*
X16583535Y-12355030D01*
X16590500Y-12329038D01*
X16590500Y-10646542D01*
X16610185Y-10579503D01*
X16626814Y-10558866D01*
X18927894Y-8257785D01*
X18989217Y-8224301D01*
X19058909Y-8229285D01*
X19063022Y-8230903D01*
X19133580Y-8260130D01*
X19336530Y-8300499D01*
X19336534Y-8300500D01*
X19336535Y-8300500D01*
X19543466Y-8300500D01*
X19543467Y-8300499D01*
X19746420Y-8260130D01*
X19937598Y-8180941D01*
X20109655Y-8065977D01*
X20255977Y-7919655D01*
X20370941Y-7747598D01*
X20450130Y-7556420D01*
X20490500Y-7353465D01*
X20490500Y-7146535D01*
X20450130Y-6943580D01*
X20370941Y-6752402D01*
X20255977Y-6580345D01*
X20255975Y-6580342D01*
X20109657Y-6434024D01*
X20020314Y-6374328D01*
X19937598Y-6319059D01*
X19933380Y-6317312D01*
X19746420Y-6239870D01*
X19746412Y-6239868D01*
X19543469Y-6199500D01*
X19543465Y-6199500D01*
X19336535Y-6199500D01*
X19336530Y-6199500D01*
X19133587Y-6239868D01*
X19133579Y-6239870D01*
X18942403Y-6319058D01*
X18770342Y-6434024D01*
X18624024Y-6580342D01*
X18509058Y-6752403D01*
X18429870Y-6943579D01*
X18429868Y-6943587D01*
X18389500Y-7146530D01*
X18389500Y-7353469D01*
X18429868Y-7556412D01*
X18429870Y-7556420D01*
X18459092Y-7626969D01*
X18459093Y-7626970D01*
X18466562Y-7696440D01*
X18435287Y-7758919D01*
X18432213Y-7762104D01*
X15959531Y-10234786D01*
X15959527Y-10234791D01*
X15913387Y-10314709D01*
X15913386Y-10314712D01*
X15889500Y-10403856D01*
X15889500Y-12086349D01*
X15869815Y-12153388D01*
X15853181Y-12174030D01*
X15672181Y-12355030D01*
X15610858Y-12388515D01*
X15541166Y-12383531D01*
X15485233Y-12341659D01*
X15460816Y-12276195D01*
X15460500Y-12267349D01*
X15460500Y-12135683D01*
X15454068Y-12086828D01*
X15454068Y-12086827D01*
X15404065Y-11979596D01*
X15320404Y-11895935D01*
X15312733Y-11888264D01*
X15315561Y-11885435D01*
X15284843Y-11847023D01*
X15277635Y-11777526D01*
X15309143Y-11715165D01*
X15312903Y-11711906D01*
X15312733Y-11711736D01*
X15354969Y-11669500D01*
X15404065Y-11620404D01*
X15454068Y-11513173D01*
X15460500Y-11464316D01*
X15460500Y-11115684D01*
X15454068Y-11066827D01*
X15404065Y-10959596D01*
X15326819Y-10882350D01*
X15312115Y-10855422D01*
X15295523Y-10829604D01*
X15294631Y-10823403D01*
X15293334Y-10821027D01*
X15290500Y-10794669D01*
X15290500Y-10793009D01*
X15310185Y-10725970D01*
X15326814Y-10705332D01*
X15399636Y-10632511D01*
X15450645Y-10528170D01*
X15460500Y-10460528D01*
X15460500Y-10099472D01*
X15450645Y-10031830D01*
X15399636Y-9927489D01*
X15399634Y-9927487D01*
X15399634Y-9927486D01*
X15354475Y-9882327D01*
X15320990Y-9821004D01*
X15325974Y-9751312D01*
X15354475Y-9706965D01*
X15401546Y-9659893D01*
X15427143Y-9605000D01*
X14452856Y-9605000D01*
X14478453Y-9659893D01*
X14525525Y-9706965D01*
X14559010Y-9768288D01*
X14554026Y-9837980D01*
X14525525Y-9882327D01*
X14480365Y-9927486D01*
X14429355Y-10031828D01*
X14427170Y-10046828D01*
X14419500Y-10099472D01*
X14419500Y-10460528D01*
X14427947Y-10518506D01*
X14429355Y-10528171D01*
X14467391Y-10605975D01*
X14480364Y-10632511D01*
X14553182Y-10705329D01*
X14567888Y-10732260D01*
X14584477Y-10758074D01*
X14585368Y-10764273D01*
X14586666Y-10766650D01*
X14589500Y-10793009D01*
X14589500Y-10794669D01*
X14569815Y-10861708D01*
X14553181Y-10882350D01*
X14475935Y-10959595D01*
X14425931Y-11066828D01*
X14419500Y-11115683D01*
X14419500Y-11464316D01*
X14425931Y-11513171D01*
X14475935Y-11620404D01*
X14567267Y-11711736D01*
X14564443Y-11714559D01*
X14595183Y-11753042D01*
X14602352Y-11822542D01*
X14570808Y-11884886D01*
X14567101Y-11888098D01*
X14567267Y-11888264D01*
X14475935Y-11979595D01*
X14425931Y-12086828D01*
X14419500Y-12135683D01*
X14419500Y-12354167D01*
X14399815Y-12421206D01*
X14383181Y-12441848D01*
X14156193Y-12668835D01*
X14094870Y-12702320D01*
X14025178Y-12697336D01*
X13969245Y-12655464D01*
X13944828Y-12590000D01*
X13953522Y-12542892D01*
X13951414Y-12542278D01*
X13954068Y-12533172D01*
X13955737Y-12520499D01*
X13960500Y-12484316D01*
X13960500Y-12135684D01*
X13954068Y-12086827D01*
X13904065Y-11979596D01*
X13820404Y-11895935D01*
X13812733Y-11888264D01*
X13815561Y-11885435D01*
X13784843Y-11847023D01*
X13777635Y-11777526D01*
X13809143Y-11715165D01*
X13812903Y-11711906D01*
X13812733Y-11711736D01*
X13854969Y-11669500D01*
X13904065Y-11620404D01*
X13954068Y-11513173D01*
X13960500Y-11464316D01*
X13960500Y-11115684D01*
X13954068Y-11066827D01*
X13904065Y-10959596D01*
X13833489Y-10889020D01*
X13800004Y-10827697D01*
X13804988Y-10758005D01*
X13833487Y-10713659D01*
X13899636Y-10647511D01*
X13950645Y-10543170D01*
X13960500Y-10475528D01*
X13960500Y-10114472D01*
X13950645Y-10046830D01*
X13899636Y-9942489D01*
X13899634Y-9942487D01*
X13899634Y-9942486D01*
X13854475Y-9897327D01*
X13820990Y-9836004D01*
X13825974Y-9766312D01*
X13854475Y-9721965D01*
X13901546Y-9674893D01*
X13927143Y-9620000D01*
X12952856Y-9620000D01*
X12978453Y-9674893D01*
X13025525Y-9721965D01*
X13059010Y-9783288D01*
X13054026Y-9852980D01*
X13025525Y-9897327D01*
X12980365Y-9942486D01*
X12929355Y-10046828D01*
X12929355Y-10046830D01*
X12919500Y-10114472D01*
X12919500Y-10475528D01*
X12921035Y-10486062D01*
X12929355Y-10543171D01*
X12980365Y-10647513D01*
X13046510Y-10713658D01*
X13079995Y-10774981D01*
X13075011Y-10844673D01*
X13046511Y-10889020D01*
X12975934Y-10959597D01*
X12925931Y-11066828D01*
X12919500Y-11115683D01*
X12919500Y-11464316D01*
X12925931Y-11513171D01*
X12975935Y-11620404D01*
X13067267Y-11711736D01*
X13064443Y-11714559D01*
X13095183Y-11753042D01*
X13102352Y-11822542D01*
X13070808Y-11884886D01*
X13067101Y-11888098D01*
X13067267Y-11888264D01*
X12975935Y-11979595D01*
X12925931Y-12086828D01*
X12919500Y-12135683D01*
X12919500Y-12485500D01*
X12916949Y-12494185D01*
X12918238Y-12503147D01*
X12907259Y-12527187D01*
X12899815Y-12552539D01*
X12892974Y-12558466D01*
X12889213Y-12566703D01*
X12866978Y-12580992D01*
X12847011Y-12598294D01*
X12836496Y-12600581D01*
X12830435Y-12604477D01*
X12795500Y-12609500D01*
X12584500Y-12609500D01*
X12517461Y-12589815D01*
X12471706Y-12537011D01*
X12460500Y-12485500D01*
X12460500Y-12135683D01*
X12454068Y-12086828D01*
X12454068Y-12086827D01*
X12404065Y-11979596D01*
X12320404Y-11895935D01*
X12312733Y-11888264D01*
X12315561Y-11885435D01*
X12284843Y-11847023D01*
X12277635Y-11777526D01*
X12309143Y-11715165D01*
X12312903Y-11711906D01*
X12312733Y-11711736D01*
X12354969Y-11669500D01*
X12404065Y-11620404D01*
X12454068Y-11513173D01*
X12460500Y-11464316D01*
X12460500Y-11115684D01*
X12454068Y-11066827D01*
X12404065Y-10959596D01*
X12328489Y-10884020D01*
X12295004Y-10822697D01*
X12299988Y-10753005D01*
X12328487Y-10708659D01*
X12399636Y-10637511D01*
X12450645Y-10533170D01*
X12460500Y-10465528D01*
X12460500Y-10104472D01*
X12450645Y-10036830D01*
X12399636Y-9932489D01*
X12399634Y-9932487D01*
X12399634Y-9932486D01*
X12354475Y-9887327D01*
X12320990Y-9826004D01*
X12325974Y-9756312D01*
X12354475Y-9711965D01*
X12401546Y-9664893D01*
X12427143Y-9610000D01*
X11452856Y-9610000D01*
X11478453Y-9664893D01*
X11525525Y-9711965D01*
X11559010Y-9773288D01*
X11554026Y-9842980D01*
X11525525Y-9887327D01*
X11480365Y-9932486D01*
X11429355Y-10036828D01*
X11429355Y-10036830D01*
X11419500Y-10104472D01*
X11419500Y-10465528D01*
X11427947Y-10523506D01*
X11429355Y-10533171D01*
X11480365Y-10637513D01*
X11551510Y-10708658D01*
X11584995Y-10769981D01*
X11580011Y-10839673D01*
X11551511Y-10884020D01*
X11475934Y-10959597D01*
X11425931Y-11066828D01*
X11419500Y-11115683D01*
X11419500Y-11464316D01*
X11425931Y-11513171D01*
X11475935Y-11620404D01*
X11567267Y-11711736D01*
X11564443Y-11714559D01*
X11595183Y-11753042D01*
X11602352Y-11822542D01*
X11570808Y-11884886D01*
X11567792Y-11887987D01*
X11559958Y-11895765D01*
X11559596Y-11895935D01*
X11532186Y-11923344D01*
X11532043Y-11923487D01*
X11501450Y-11940053D01*
X11471027Y-11956666D01*
X11470709Y-11956700D01*
X11470603Y-11956758D01*
X11470348Y-11956738D01*
X11444669Y-11959500D01*
X11096544Y-11959500D01*
X11029505Y-11939815D01*
X11008863Y-11923181D01*
X10825213Y-11739531D01*
X10825208Y-11739527D01*
X10745290Y-11693387D01*
X10745289Y-11693386D01*
X10745288Y-11693386D01*
X10656144Y-11669500D01*
X10656143Y-11669500D01*
X10548676Y-11669500D01*
X10481637Y-11649815D01*
X10460995Y-11633181D01*
X10447316Y-11619502D01*
X10447314Y-11619500D01*
X10390250Y-11586554D01*
X10333187Y-11553608D01*
X10269539Y-11536554D01*
X10205892Y-11519500D01*
X10074108Y-11519500D01*
X9946812Y-11553608D01*
X9832686Y-11619500D01*
X9832683Y-11619502D01*
X9739502Y-11712683D01*
X9739501Y-11712685D01*
X9673608Y-11826812D01*
X9655087Y-11895935D01*
X9639500Y-11954108D01*
X9639500Y-12085892D01*
X9639751Y-12086827D01*
X9673608Y-12213187D01*
X9681312Y-12226530D01*
X9739500Y-12327314D01*
X9832686Y-12420500D01*
X9946814Y-12486392D01*
X10074108Y-12520500D01*
X10074110Y-12520500D01*
X10205890Y-12520500D01*
X10205892Y-12520500D01*
X10333186Y-12486392D01*
X10407709Y-12443365D01*
X10434775Y-12436799D01*
X10460863Y-12427069D01*
X10468254Y-12428676D01*
X10475608Y-12426893D01*
X10501926Y-12436001D01*
X10529136Y-12441921D01*
X10537826Y-12448427D01*
X10541635Y-12449745D01*
X10557390Y-12463072D01*
X10688080Y-12593762D01*
X10721565Y-12655085D01*
X10716581Y-12724777D01*
X10688085Y-12769120D01*
X10677940Y-12779266D01*
X10616618Y-12812754D01*
X10590254Y-12815589D01*
X10500197Y-12815589D01*
X10372901Y-12849697D01*
X10258775Y-12915589D01*
X10258772Y-12915591D01*
X10165591Y-13008772D01*
X10165589Y-13008775D01*
X10099697Y-13122901D01*
X10093077Y-13147608D01*
X10065589Y-13250197D01*
X10065589Y-13381981D01*
X10077940Y-13428076D01*
X10099697Y-13509276D01*
X10120789Y-13545808D01*
X10165589Y-13623403D01*
X10258775Y-13716589D01*
X10258778Y-13716591D01*
X10265224Y-13721537D01*
X10263066Y-13724348D01*
X10300076Y-13763219D01*
X10313249Y-13831836D01*
X10287234Y-13896682D01*
X10251823Y-13927345D01*
X10233369Y-13938000D01*
X10233363Y-13938004D01*
X10140182Y-14031185D01*
X10140180Y-14031188D01*
X10074288Y-14145314D01*
X10040180Y-14272610D01*
X10040180Y-14404393D01*
X10074288Y-14531689D01*
X10092700Y-14563579D01*
X10140180Y-14645816D01*
X10233366Y-14739002D01*
X10347494Y-14804894D01*
X10474788Y-14839002D01*
X10474790Y-14839002D01*
X10565500Y-14839002D01*
X10632539Y-14858687D01*
X10678294Y-14911491D01*
X10689500Y-14963002D01*
X10689500Y-16637350D01*
X10669815Y-16704389D01*
X10617011Y-16750144D01*
X10547853Y-16760088D01*
X10484297Y-16731063D01*
X10477819Y-16725031D01*
X10162319Y-16409531D01*
X10162314Y-16409527D01*
X10082396Y-16363387D01*
X10082389Y-16363384D01*
X10067892Y-16359499D01*
X10067892Y-16359500D01*
X10025749Y-16348208D01*
X9993250Y-16339500D01*
X9993249Y-16339500D01*
X9764500Y-16339500D01*
X9697461Y-16319815D01*
X9651706Y-16267011D01*
X9640500Y-16215500D01*
X9640500Y-16070249D01*
X9640499Y-16070247D01*
X9628868Y-16011770D01*
X9628867Y-16011769D01*
X9584552Y-15945447D01*
X9518230Y-15901132D01*
X9518229Y-15901131D01*
X9459752Y-15889500D01*
X9459748Y-15889500D01*
X7620252Y-15889500D01*
X7620247Y-15889500D01*
X7561770Y-15901131D01*
X7561769Y-15901132D01*
X7495446Y-15945448D01*
X7445418Y-16020320D01*
X7391806Y-16065124D01*
X7322481Y-16073831D01*
X7259453Y-16043676D01*
X7237736Y-16018053D01*
X7219864Y-15990000D01*
X6260135Y-15990000D01*
X6287192Y-16048024D01*
X6341133Y-16101965D01*
X6345392Y-16109765D01*
X6352522Y-16115073D01*
X6361878Y-16139956D01*
X6374618Y-16163288D01*
X6373983Y-16172153D01*
X6377112Y-16180473D01*
X6371530Y-16206462D01*
X6369634Y-16232980D01*
X6363920Y-16241896D01*
X6362441Y-16248785D01*
X6341721Y-16276538D01*
X6341365Y-16277095D01*
X6286776Y-16331684D01*
X6286521Y-16332228D01*
X6278559Y-16340234D01*
X6256922Y-16352122D01*
X6237639Y-16367535D01*
X6226839Y-16368652D01*
X6217324Y-16373881D01*
X6192696Y-16372185D01*
X6168140Y-16374726D01*
X6158450Y-16369826D01*
X6147620Y-16369081D01*
X6127817Y-16354338D01*
X6105787Y-16343200D01*
X6095605Y-16330357D01*
X6091576Y-16327358D01*
X6090086Y-16323396D01*
X6083259Y-16314785D01*
X6070502Y-16292689D01*
X6070497Y-16292683D01*
X5977316Y-16199502D01*
X5977314Y-16199500D01*
X5911081Y-16161260D01*
X5863187Y-16133608D01*
X5794012Y-16115073D01*
X5735892Y-16099500D01*
X5735891Y-16099500D01*
X5716544Y-16099500D01*
X5649505Y-16079815D01*
X5628863Y-16063181D01*
X4995681Y-15429999D01*
X6260135Y-15429999D01*
X6260135Y-15430000D01*
X6460000Y-15430000D01*
X7020000Y-15430000D01*
X7219865Y-15430000D01*
X7219864Y-15429999D01*
X7192807Y-15371975D01*
X7108025Y-15287193D01*
X7020000Y-15246145D01*
X7020000Y-15430000D01*
X6460000Y-15430000D01*
X6460000Y-15246145D01*
X6371974Y-15287193D01*
X6287192Y-15371975D01*
X6260135Y-15429999D01*
X4995681Y-15429999D01*
X4786819Y-15221137D01*
X4753334Y-15159814D01*
X4750500Y-15133456D01*
X4750500Y-14909702D01*
X7440000Y-14909702D01*
X7451602Y-14968033D01*
X7451603Y-14968034D01*
X7495808Y-15034191D01*
X7561965Y-15078396D01*
X7561966Y-15078397D01*
X7620297Y-15089999D01*
X7620301Y-15090000D01*
X8240000Y-15090000D01*
X8840000Y-15090000D01*
X9459699Y-15090000D01*
X9459702Y-15089999D01*
X9518033Y-15078397D01*
X9518034Y-15078396D01*
X9584191Y-15034191D01*
X9628396Y-14968034D01*
X9628397Y-14968033D01*
X9639999Y-14909702D01*
X9640000Y-14909699D01*
X9640000Y-14590000D01*
X8840000Y-14590000D01*
X8840000Y-15090000D01*
X8240000Y-15090000D01*
X8240000Y-14590000D01*
X7440000Y-14590000D01*
X7440000Y-14909702D01*
X4750500Y-14909702D01*
X4750500Y-13670297D01*
X7440000Y-13670297D01*
X7440000Y-13990000D01*
X8240000Y-13990000D01*
X8840000Y-13990000D01*
X9640000Y-13990000D01*
X9640000Y-13670301D01*
X9639999Y-13670297D01*
X9628397Y-13611966D01*
X9628396Y-13611965D01*
X9584191Y-13545808D01*
X9518034Y-13501603D01*
X9518033Y-13501602D01*
X9459702Y-13490000D01*
X8840000Y-13490000D01*
X8840000Y-13990000D01*
X8240000Y-13990000D01*
X8240000Y-13490000D01*
X7620297Y-13490000D01*
X7561966Y-13501602D01*
X7561965Y-13501603D01*
X7495808Y-13545808D01*
X7451603Y-13611965D01*
X7451602Y-13611966D01*
X7440000Y-13670297D01*
X4750500Y-13670297D01*
X4750500Y-9663858D01*
X4750500Y-9663856D01*
X4726614Y-9574712D01*
X4726611Y-9574706D01*
X4680473Y-9494794D01*
X4680470Y-9494791D01*
X4680469Y-9494788D01*
X4615212Y-9429531D01*
X2947786Y-7762104D01*
X2914301Y-7700781D01*
X2919285Y-7631089D01*
X2920887Y-7627015D01*
X2950130Y-7556420D01*
X2990500Y-7353465D01*
X2990500Y-7146535D01*
X2950130Y-6943580D01*
X2940712Y-6920844D01*
X7010000Y-6920844D01*
X7010000Y-7279702D01*
X7021602Y-7338033D01*
X7021603Y-7338034D01*
X7065808Y-7404191D01*
X7131965Y-7448396D01*
X7131966Y-7448397D01*
X7190297Y-7459999D01*
X7190301Y-7460000D01*
X7210000Y-7460000D01*
X7210000Y-6835000D01*
X7110700Y-6835000D01*
X7010000Y-6920844D01*
X2940712Y-6920844D01*
X2870941Y-6752402D01*
X2755977Y-6580345D01*
X2755975Y-6580342D01*
X2609657Y-6434024D01*
X2520314Y-6374328D01*
X2437598Y-6319059D01*
X2433380Y-6317312D01*
X2246420Y-6239870D01*
X2246412Y-6239868D01*
X2242023Y-6238995D01*
X5739499Y-6238995D01*
X5766418Y-6374322D01*
X5766421Y-6374332D01*
X5819221Y-6501804D01*
X5819228Y-6501817D01*
X5895885Y-6616541D01*
X5895888Y-6616545D01*
X5993454Y-6714111D01*
X5993458Y-6714114D01*
X6108182Y-6790771D01*
X6108195Y-6790778D01*
X6214958Y-6835000D01*
X6235672Y-6843580D01*
X6235676Y-6843580D01*
X6235677Y-6843581D01*
X6371004Y-6870500D01*
X6371007Y-6870500D01*
X6508995Y-6870500D01*
X6600041Y-6852389D01*
X6644328Y-6843580D01*
X6771811Y-6790775D01*
X6886542Y-6714114D01*
X6984114Y-6616542D01*
X7060775Y-6501811D01*
X7113580Y-6374328D01*
X7121441Y-6334807D01*
X7136156Y-6306675D01*
X7149345Y-6277797D01*
X7152233Y-6275940D01*
X7153825Y-6272898D01*
X7181412Y-6257188D01*
X7208123Y-6240023D01*
X7212717Y-6239362D01*
X7214541Y-6238324D01*
X7243058Y-6235000D01*
X7386000Y-6235000D01*
X7453039Y-6254685D01*
X7498794Y-6307489D01*
X7510000Y-6359000D01*
X7510000Y-6535000D01*
X7685500Y-6535000D01*
X7752539Y-6554685D01*
X7798294Y-6607489D01*
X7809500Y-6659000D01*
X7809500Y-7280747D01*
X7810000Y-7290915D01*
X7810000Y-7460000D01*
X7823181Y-7473181D01*
X7856666Y-7534504D01*
X7859500Y-7560862D01*
X7859500Y-8119308D01*
X7882584Y-8205460D01*
X7882584Y-8205461D01*
X7890199Y-8233884D01*
X7905353Y-8260131D01*
X7949511Y-8336614D01*
X7949513Y-8336616D01*
X9428181Y-9815284D01*
X9461666Y-9876607D01*
X9464500Y-9902965D01*
X9464500Y-10486062D01*
X9450383Y-10538751D01*
X9451719Y-10539304D01*
X9448608Y-10546814D01*
X9414500Y-10674108D01*
X9414500Y-10805892D01*
X9419003Y-10822697D01*
X9448608Y-10933187D01*
X9463855Y-10959595D01*
X9514500Y-11047314D01*
X9607686Y-11140500D01*
X9721814Y-11206392D01*
X9849108Y-11240500D01*
X9849110Y-11240500D01*
X9980890Y-11240500D01*
X9980892Y-11240500D01*
X10108186Y-11206392D01*
X10222314Y-11140500D01*
X10315500Y-11047314D01*
X10381392Y-10933186D01*
X10415500Y-10805892D01*
X10415500Y-10674108D01*
X10381392Y-10546814D01*
X10381388Y-10546807D01*
X10378281Y-10539304D01*
X10379616Y-10538751D01*
X10365500Y-10486062D01*
X10365500Y-9605693D01*
X10365500Y-9605691D01*
X10339734Y-9509531D01*
X10339734Y-9509530D01*
X10339734Y-9509529D01*
X10335785Y-9494794D01*
X10334799Y-9491113D01*
X10299245Y-9429531D01*
X10275494Y-9388392D01*
X10275488Y-9388384D01*
X8796819Y-7909715D01*
X8782115Y-7882787D01*
X8765523Y-7856969D01*
X8764631Y-7850768D01*
X8763334Y-7848392D01*
X8760500Y-7822034D01*
X8760500Y-7584500D01*
X8780185Y-7517461D01*
X8832989Y-7471706D01*
X8884500Y-7460500D01*
X9179750Y-7460500D01*
X9235808Y-7449349D01*
X9284192Y-7449349D01*
X9340249Y-7460500D01*
X9590487Y-7460500D01*
X9611243Y-7466594D01*
X9632834Y-7467955D01*
X9644104Y-7476244D01*
X9657526Y-7480185D01*
X9671690Y-7496532D01*
X9689121Y-7509351D01*
X9697388Y-7526188D01*
X9703281Y-7532989D01*
X9706297Y-7540183D01*
X9709500Y-7548553D01*
X9709500Y-7549562D01*
X9729979Y-7625989D01*
X9752213Y-7664499D01*
X9757124Y-7673006D01*
X9757126Y-7673010D01*
X9769535Y-7694504D01*
X9769539Y-7694509D01*
X9769540Y-7694511D01*
X9949540Y-7874511D01*
X10005489Y-7930460D01*
X10005491Y-7930461D01*
X10005495Y-7930464D01*
X10074004Y-7970017D01*
X10074011Y-7970021D01*
X10150438Y-7990500D01*
X10150440Y-7990500D01*
X10869561Y-7990500D01*
X10869562Y-7990500D01*
X10901175Y-7982029D01*
X10971025Y-7983690D01*
X11020951Y-8014122D01*
X11658239Y-8651410D01*
X11691724Y-8712733D01*
X11686740Y-8782425D01*
X11644868Y-8838358D01*
X11622965Y-8851472D01*
X11565107Y-8878452D01*
X11478453Y-8965106D01*
X11452856Y-9019999D01*
X11452856Y-9020000D01*
X12427144Y-9020000D01*
X12427143Y-9019999D01*
X12401546Y-8965106D01*
X12363621Y-8927181D01*
X12330136Y-8865858D01*
X12335120Y-8796166D01*
X12376992Y-8740233D01*
X12442456Y-8715816D01*
X12451302Y-8715500D01*
X12938698Y-8715500D01*
X13005737Y-8735185D01*
X13051492Y-8787989D01*
X13061436Y-8857147D01*
X13032411Y-8920703D01*
X13026379Y-8927181D01*
X12978453Y-8975106D01*
X12952856Y-9029999D01*
X12952856Y-9030000D01*
X13927144Y-9030000D01*
X13927143Y-9029999D01*
X13901546Y-8975106D01*
X13853621Y-8927181D01*
X13820136Y-8865858D01*
X13825120Y-8796166D01*
X13866992Y-8740233D01*
X13932456Y-8715816D01*
X13941302Y-8715500D01*
X14423698Y-8715500D01*
X14490737Y-8735185D01*
X14536492Y-8787989D01*
X14546436Y-8857147D01*
X14517411Y-8920703D01*
X14511379Y-8927181D01*
X14478453Y-8960106D01*
X14452856Y-9014999D01*
X14452856Y-9015000D01*
X15427144Y-9015000D01*
X15427143Y-9014999D01*
X15401546Y-8960106D01*
X15368621Y-8927181D01*
X15335136Y-8865858D01*
X15340120Y-8796166D01*
X15381992Y-8740233D01*
X15447456Y-8715816D01*
X15456302Y-8715500D01*
X15844723Y-8715500D01*
X15911762Y-8735185D01*
X15957517Y-8787989D01*
X15964499Y-8807412D01*
X15964706Y-8808187D01*
X15982126Y-8838358D01*
X16030598Y-8922314D01*
X16123784Y-9015500D01*
X16237912Y-9081392D01*
X16365206Y-9115500D01*
X16365208Y-9115500D01*
X16496988Y-9115500D01*
X16496990Y-9115500D01*
X16624284Y-9081392D01*
X16738412Y-9015500D01*
X16831598Y-8922314D01*
X16897490Y-8808186D01*
X16931598Y-8680892D01*
X16931598Y-8549108D01*
X16897490Y-8421814D01*
X16831598Y-8307686D01*
X16801593Y-8277681D01*
X16768108Y-8216358D01*
X16773092Y-8146666D01*
X16801593Y-8102319D01*
X16831598Y-8072314D01*
X16897490Y-7958186D01*
X16931598Y-7830892D01*
X16931598Y-7699108D01*
X16897490Y-7571814D01*
X16831598Y-7457686D01*
X16738412Y-7364500D01*
X16681348Y-7331554D01*
X16624285Y-7298608D01*
X16553714Y-7279699D01*
X16496990Y-7264500D01*
X16365206Y-7264500D01*
X16237910Y-7298608D01*
X16123784Y-7364500D01*
X16123781Y-7364502D01*
X16030600Y-7457683D01*
X16030598Y-7457686D01*
X15964706Y-7571813D01*
X15964498Y-7572591D01*
X15964142Y-7573173D01*
X15961598Y-7579318D01*
X15960639Y-7578921D01*
X15928134Y-7632252D01*
X15865288Y-7662782D01*
X15844723Y-7664499D01*
X14473388Y-7664499D01*
X14406349Y-7644814D01*
X14360594Y-7592010D01*
X14350650Y-7522852D01*
X14379675Y-7459296D01*
X14404497Y-7437397D01*
X14454191Y-7404191D01*
X14498396Y-7338034D01*
X14498397Y-7338033D01*
X14509999Y-7279702D01*
X14510000Y-7279699D01*
X14510000Y-6863610D01*
X14529685Y-6796571D01*
X14582489Y-6750816D01*
X14651647Y-6740872D01*
X14702891Y-6760508D01*
X14748183Y-6790771D01*
X14748189Y-6790775D01*
X14748191Y-6790776D01*
X14748195Y-6790778D01*
X14854958Y-6835000D01*
X14875672Y-6843580D01*
X14875676Y-6843580D01*
X14875677Y-6843581D01*
X15011004Y-6870500D01*
X15011007Y-6870500D01*
X15148995Y-6870500D01*
X15240041Y-6852389D01*
X15284328Y-6843580D01*
X15411811Y-6790775D01*
X15526542Y-6714114D01*
X15624114Y-6616542D01*
X15700775Y-6501811D01*
X15753580Y-6374328D01*
X15771143Y-6286033D01*
X15780500Y-6238995D01*
X15780500Y-5001004D01*
X15753581Y-4865677D01*
X15753580Y-4865676D01*
X15753580Y-4865672D01*
X15745769Y-4846814D01*
X15700778Y-4738195D01*
X15700771Y-4738182D01*
X15624114Y-4623458D01*
X15624111Y-4623454D01*
X15526545Y-4525888D01*
X15526541Y-4525885D01*
X15411817Y-4449228D01*
X15411804Y-4449221D01*
X15284332Y-4396421D01*
X15284322Y-4396418D01*
X15148995Y-4369500D01*
X15148993Y-4369500D01*
X15011007Y-4369500D01*
X15011005Y-4369500D01*
X14875677Y-4396418D01*
X14875667Y-4396421D01*
X14748195Y-4449221D01*
X14748182Y-4449228D01*
X14633458Y-4525885D01*
X14633454Y-4525888D01*
X14535888Y-4623454D01*
X14535885Y-4623458D01*
X14459228Y-4738182D01*
X14459223Y-4738192D01*
X14410155Y-4856653D01*
X14366314Y-4911056D01*
X14300019Y-4933121D01*
X14232320Y-4915842D01*
X14188207Y-4871201D01*
X14174127Y-4846814D01*
X14110515Y-4736635D01*
X14003365Y-4629485D01*
X13923499Y-4583374D01*
X13872136Y-4553719D01*
X13768267Y-4525888D01*
X13725766Y-4514500D01*
X13574234Y-4514500D01*
X13427865Y-4553719D01*
X13427864Y-4553719D01*
X13427862Y-4553720D01*
X13427861Y-4553720D01*
X13376500Y-4583374D01*
X13308600Y-4599847D01*
X13242573Y-4576994D01*
X13199382Y-4522073D01*
X13194795Y-4508340D01*
X13190500Y-4492448D01*
X13190500Y-4443856D01*
X13166614Y-4354712D01*
X13149626Y-4325288D01*
X13120470Y-4274788D01*
X13120466Y-4274784D01*
X13115524Y-4268343D01*
X13117454Y-4266861D01*
X13089878Y-4216358D01*
X13094862Y-4146666D01*
X13123363Y-4102319D01*
X13448863Y-3776819D01*
X13475790Y-3762115D01*
X13501609Y-3745523D01*
X13507809Y-3744631D01*
X13510186Y-3743334D01*
X13536544Y-3740500D01*
X13612860Y-3740500D01*
X13674859Y-3757112D01*
X13766114Y-3809799D01*
X13880691Y-3840500D01*
X16102035Y-3840500D01*
X16169074Y-3860185D01*
X16189716Y-3876819D01*
X17383386Y-5070489D01*
X17486113Y-5129799D01*
X17510321Y-5136284D01*
X17510324Y-5136286D01*
X17510325Y-5136286D01*
X17540447Y-5144357D01*
X17600691Y-5160500D01*
X18411309Y-5160500D01*
X18478348Y-5180185D01*
X18514411Y-5215609D01*
X18624022Y-5379655D01*
X18770342Y-5525975D01*
X18770345Y-5525977D01*
X18942402Y-5640941D01*
X19133580Y-5720130D01*
X19336530Y-5760499D01*
X19336534Y-5760500D01*
X19336535Y-5760500D01*
X19543466Y-5760500D01*
X19543467Y-5760499D01*
X19746420Y-5720130D01*
X19937598Y-5640941D01*
X20109655Y-5525977D01*
X20255977Y-5379655D01*
X20370941Y-5207598D01*
X20450130Y-5016420D01*
X20490500Y-4813465D01*
X20490500Y-4606535D01*
X20450130Y-4403580D01*
X20370941Y-4212402D01*
X20255977Y-4040345D01*
X20255976Y-4040344D01*
X20255975Y-4040342D01*
X20109657Y-3894024D01*
X19983601Y-3809797D01*
X19937598Y-3779059D01*
X19932190Y-3776819D01*
X19746420Y-3699870D01*
X19746412Y-3699868D01*
X19543469Y-3659500D01*
X19543465Y-3659500D01*
X19336535Y-3659500D01*
X19336530Y-3659500D01*
X19133587Y-3699868D01*
X19133579Y-3699870D01*
X18942403Y-3779058D01*
X18770342Y-3894024D01*
X18624022Y-4040344D01*
X18514411Y-4204391D01*
X18460799Y-4249196D01*
X18411309Y-4259500D01*
X17897965Y-4259500D01*
X17830926Y-4239815D01*
X17810284Y-4223181D01*
X16616616Y-3029513D01*
X16616614Y-3029511D01*
X16565250Y-2999856D01*
X16513888Y-2970201D01*
X16501780Y-2966957D01*
X16489673Y-2963713D01*
X16489670Y-2963712D01*
X16451478Y-2953478D01*
X16399309Y-2939500D01*
X13880691Y-2939500D01*
X13766114Y-2970201D01*
X13674859Y-3022887D01*
X13612860Y-3039500D01*
X13293856Y-3039500D01*
X13204712Y-3063386D01*
X13204709Y-3063387D01*
X13124791Y-3109527D01*
X13124786Y-3109531D01*
X12627681Y-3606637D01*
X12566358Y-3640122D01*
X12496666Y-3635138D01*
X12462601Y-3613245D01*
X12461657Y-3614476D01*
X12455208Y-3609527D01*
X12375290Y-3563387D01*
X12375289Y-3563386D01*
X12375288Y-3563386D01*
X12286144Y-3539500D01*
X9193856Y-3539500D01*
X9104712Y-3563386D01*
X9104709Y-3563387D01*
X9024791Y-3609527D01*
X9024786Y-3609531D01*
X8359531Y-4274786D01*
X8359529Y-4274789D01*
X8337511Y-4312925D01*
X8337510Y-4312927D01*
X8330374Y-4325288D01*
X8313386Y-4354712D01*
X8289500Y-4443856D01*
X8289500Y-4471278D01*
X8284166Y-4488872D01*
X8274686Y-4503340D01*
X8269815Y-4519932D01*
X8255940Y-4531954D01*
X8245876Y-4547316D01*
X8230079Y-4554362D01*
X8217011Y-4565687D01*
X8198837Y-4568300D01*
X8182068Y-4575781D01*
X8164971Y-4573169D01*
X8147853Y-4575631D01*
X8121600Y-4566544D01*
X8113000Y-4565231D01*
X8109896Y-4562494D01*
X8103500Y-4560280D01*
X8092138Y-4553720D01*
X8092135Y-4553719D01*
X7945766Y-4514500D01*
X7794234Y-4514500D01*
X7647863Y-4553719D01*
X7516635Y-4629485D01*
X7516632Y-4629487D01*
X7409487Y-4736632D01*
X7409485Y-4736635D01*
X7331792Y-4871201D01*
X7281224Y-4919416D01*
X7212617Y-4932638D01*
X7147752Y-4906670D01*
X7109844Y-4856652D01*
X7060778Y-4738195D01*
X7060771Y-4738182D01*
X6984114Y-4623458D01*
X6984111Y-4623454D01*
X6886545Y-4525888D01*
X6886541Y-4525885D01*
X6771817Y-4449228D01*
X6771804Y-4449221D01*
X6644332Y-4396421D01*
X6644322Y-4396418D01*
X6508995Y-4369500D01*
X6508993Y-4369500D01*
X6371007Y-4369500D01*
X6371005Y-4369500D01*
X6235677Y-4396418D01*
X6235667Y-4396421D01*
X6108195Y-4449221D01*
X6108182Y-4449228D01*
X5993458Y-4525885D01*
X5993454Y-4525888D01*
X5895888Y-4623454D01*
X5895885Y-4623458D01*
X5819228Y-4738182D01*
X5819221Y-4738195D01*
X5766421Y-4865667D01*
X5766418Y-4865677D01*
X5739500Y-5001004D01*
X5739500Y-5001007D01*
X5739500Y-6238993D01*
X5739500Y-6238995D01*
X5739499Y-6238995D01*
X2242023Y-6238995D01*
X2043469Y-6199500D01*
X2043465Y-6199500D01*
X1836535Y-6199500D01*
X1836530Y-6199500D01*
X1633587Y-6239868D01*
X1633579Y-6239870D01*
X1442403Y-6319058D01*
X1270342Y-6434024D01*
X1124024Y-6580342D01*
X1009058Y-6752403D01*
X929870Y-6943579D01*
X929868Y-6943587D01*
X889500Y-7146530D01*
X-9500Y-7146530D01*
X-9500Y-4606530D01*
X889500Y-4606530D01*
X889500Y-4813469D01*
X929868Y-5016412D01*
X929870Y-5016420D01*
X1009058Y-5207596D01*
X1124024Y-5379657D01*
X1270342Y-5525975D01*
X1270345Y-5525977D01*
X1442402Y-5640941D01*
X1633580Y-5720130D01*
X1836530Y-5760499D01*
X1836534Y-5760500D01*
X1836535Y-5760500D01*
X2043466Y-5760500D01*
X2043467Y-5760499D01*
X2246420Y-5720130D01*
X2437598Y-5640941D01*
X2609655Y-5525977D01*
X2755977Y-5379655D01*
X2870941Y-5207598D01*
X2950130Y-5016420D01*
X2955577Y-4989038D01*
X2959220Y-4970724D01*
X2983866Y-4846816D01*
X2990500Y-4813465D01*
X2990500Y-4606535D01*
X2950130Y-4403580D01*
X2870941Y-4212402D01*
X2755977Y-4040345D01*
X2755976Y-4040344D01*
X2755975Y-4040342D01*
X2609657Y-3894024D01*
X2483601Y-3809797D01*
X2437598Y-3779059D01*
X2432190Y-3776819D01*
X2246420Y-3699870D01*
X2246412Y-3699868D01*
X2043469Y-3659500D01*
X2043465Y-3659500D01*
X1836535Y-3659500D01*
X1836530Y-3659500D01*
X1633587Y-3699868D01*
X1633579Y-3699870D01*
X1442403Y-3779058D01*
X1270342Y-3894024D01*
X1124024Y-4040342D01*
X1009058Y-4212403D01*
X929870Y-4403579D01*
X929868Y-4403587D01*
X889500Y-4606530D01*
X-9500Y-4606530D01*
X-9500Y-1300297D01*
X890000Y-1300297D01*
X890000Y-1870000D01*
X1535856Y-1870000D01*
X1474075Y-1977007D01*
X1440000Y-2104174D01*
X1440000Y-2235826D01*
X1474075Y-2362993D01*
X1535856Y-2470000D01*
X890000Y-2470000D01*
X890000Y-3039702D01*
X901602Y-3098033D01*
X901603Y-3098034D01*
X945808Y-3164191D01*
X1011965Y-3208396D01*
X1011966Y-3208397D01*
X1070297Y-3219999D01*
X1070301Y-3220000D01*
X1640000Y-3220000D01*
X1640000Y-2574144D01*
X1747007Y-2635925D01*
X1874174Y-2670000D01*
X2005826Y-2670000D01*
X2132993Y-2635925D01*
X2240000Y-2574144D01*
X2240000Y-3220000D01*
X2809699Y-3220000D01*
X2809702Y-3219999D01*
X2868033Y-3208397D01*
X2868034Y-3208396D01*
X2934191Y-3164191D01*
X2978396Y-3098034D01*
X2978397Y-3098033D01*
X2989999Y-3039702D01*
X2990000Y-3039699D01*
X2990000Y-2470000D01*
X2344144Y-2470000D01*
X2405925Y-2362993D01*
X2440000Y-2235826D01*
X2440000Y-2104174D01*
X2405925Y-1977007D01*
X2344144Y-1870000D01*
X2990000Y-1870000D01*
X2990000Y-1808995D01*
X5739499Y-1808995D01*
X5766418Y-1944322D01*
X5766421Y-1944332D01*
X5819221Y-2071804D01*
X5819228Y-2071817D01*
X5895885Y-2186541D01*
X5895888Y-2186545D01*
X5993454Y-2284111D01*
X5993458Y-2284114D01*
X6108182Y-2360771D01*
X6108195Y-2360778D01*
X6235667Y-2413578D01*
X6235672Y-2413580D01*
X6235676Y-2413580D01*
X6235677Y-2413581D01*
X6371004Y-2440500D01*
X6371007Y-2440500D01*
X6508995Y-2440500D01*
X6600041Y-2422389D01*
X6644328Y-2413580D01*
X6771811Y-2360775D01*
X6886542Y-2284114D01*
X6984114Y-2186542D01*
X7060775Y-2071811D01*
X7113580Y-1944328D01*
X7140500Y-1808995D01*
X14379499Y-1808995D01*
X14406418Y-1944322D01*
X14406421Y-1944332D01*
X14459221Y-2071804D01*
X14459228Y-2071817D01*
X14535885Y-2186541D01*
X14535888Y-2186545D01*
X14633454Y-2284111D01*
X14633458Y-2284114D01*
X14748182Y-2360771D01*
X14748195Y-2360778D01*
X14875667Y-2413578D01*
X14875672Y-2413580D01*
X14875676Y-2413580D01*
X14875677Y-2413581D01*
X15011004Y-2440500D01*
X15011007Y-2440500D01*
X15148995Y-2440500D01*
X15240041Y-2422389D01*
X15284328Y-2413580D01*
X15411811Y-2360775D01*
X15526542Y-2284114D01*
X15624114Y-2186542D01*
X15700775Y-2071811D01*
X15753580Y-1944328D01*
X15780500Y-1808993D01*
X15780500Y-1300297D01*
X18390000Y-1300297D01*
X18390000Y-1870000D01*
X19035856Y-1870000D01*
X18974075Y-1977007D01*
X18940000Y-2104174D01*
X18940000Y-2235826D01*
X18974075Y-2362993D01*
X19035856Y-2470000D01*
X18390000Y-2470000D01*
X18390000Y-3039702D01*
X18401602Y-3098033D01*
X18401603Y-3098034D01*
X18445808Y-3164191D01*
X18511965Y-3208396D01*
X18511966Y-3208397D01*
X18570297Y-3219999D01*
X18570301Y-3220000D01*
X19140000Y-3220000D01*
X19140000Y-2574144D01*
X19247007Y-2635925D01*
X19374174Y-2670000D01*
X19505826Y-2670000D01*
X19632993Y-2635925D01*
X19740000Y-2574144D01*
X19740000Y-3220000D01*
X20309699Y-3220000D01*
X20309702Y-3219999D01*
X20368033Y-3208397D01*
X20368034Y-3208396D01*
X20434191Y-3164191D01*
X20478396Y-3098034D01*
X20478397Y-3098033D01*
X20489999Y-3039702D01*
X20490000Y-3039699D01*
X20490000Y-2470000D01*
X19844144Y-2470000D01*
X19905925Y-2362993D01*
X19940000Y-2235826D01*
X19940000Y-2104174D01*
X19905925Y-1977007D01*
X19844144Y-1870000D01*
X20490000Y-1870000D01*
X20490000Y-1300301D01*
X20489999Y-1300297D01*
X20478397Y-1241966D01*
X20478396Y-1241965D01*
X20434191Y-1175808D01*
X20368034Y-1131603D01*
X20368033Y-1131602D01*
X20309702Y-1120000D01*
X19740000Y-1120000D01*
X19740000Y-1765855D01*
X19632993Y-1704075D01*
X19505826Y-1670000D01*
X19374174Y-1670000D01*
X19247007Y-1704075D01*
X19140000Y-1765855D01*
X19140000Y-1120000D01*
X18570297Y-1120000D01*
X18511966Y-1131602D01*
X18511965Y-1131603D01*
X18445808Y-1175808D01*
X18401603Y-1241965D01*
X18401602Y-1241966D01*
X18390000Y-1300297D01*
X15780500Y-1300297D01*
X15780500Y-1071007D01*
X15780500Y-1071004D01*
X15753581Y-935677D01*
X15753580Y-935676D01*
X15753580Y-935672D01*
X15753578Y-935667D01*
X15700778Y-808195D01*
X15700771Y-808182D01*
X15624114Y-693458D01*
X15624111Y-693454D01*
X15526545Y-595888D01*
X15526541Y-595885D01*
X15411817Y-519228D01*
X15411804Y-519221D01*
X15284332Y-466421D01*
X15284322Y-466418D01*
X15148995Y-439500D01*
X15148993Y-439500D01*
X15011007Y-439500D01*
X15011005Y-439500D01*
X14875677Y-466418D01*
X14875667Y-466421D01*
X14748195Y-519221D01*
X14748182Y-519228D01*
X14633458Y-595885D01*
X14633454Y-595888D01*
X14535888Y-693454D01*
X14535885Y-693458D01*
X14459228Y-808182D01*
X14459221Y-808195D01*
X14406421Y-935667D01*
X14406418Y-935677D01*
X14379500Y-1071004D01*
X14379500Y-1071007D01*
X14379500Y-1808993D01*
X14379500Y-1808995D01*
X14379499Y-1808995D01*
X7140500Y-1808995D01*
X7140500Y-1808993D01*
X7140500Y-1071007D01*
X7140500Y-1071004D01*
X7113581Y-935677D01*
X7113580Y-935676D01*
X7113580Y-935672D01*
X7113578Y-935667D01*
X7060778Y-808195D01*
X7060771Y-808182D01*
X6984114Y-693458D01*
X6984111Y-693454D01*
X6886545Y-595888D01*
X6886541Y-595885D01*
X6771817Y-519228D01*
X6771804Y-519221D01*
X6644332Y-466421D01*
X6644322Y-466418D01*
X6508995Y-439500D01*
X6508993Y-439500D01*
X6371007Y-439500D01*
X6371005Y-439500D01*
X6235677Y-466418D01*
X6235667Y-466421D01*
X6108195Y-519221D01*
X6108182Y-519228D01*
X5993458Y-595885D01*
X5993454Y-595888D01*
X5895888Y-693454D01*
X5895885Y-693458D01*
X5819228Y-808182D01*
X5819221Y-808195D01*
X5766421Y-935667D01*
X5766418Y-935677D01*
X5739500Y-1071004D01*
X5739500Y-1071007D01*
X5739500Y-1808993D01*
X5739500Y-1808995D01*
X5739499Y-1808995D01*
X2990000Y-1808995D01*
X2990000Y-1300301D01*
X2989999Y-1300297D01*
X2978397Y-1241966D01*
X2978396Y-1241965D01*
X2934192Y-1175809D01*
X2922532Y-1168018D01*
X2922531Y-1168017D01*
X2868034Y-1131603D01*
X2868033Y-1131602D01*
X2809702Y-1120000D01*
X2240000Y-1120000D01*
X2240000Y-1765855D01*
X2132993Y-1704075D01*
X2005826Y-1670000D01*
X1874174Y-1670000D01*
X1747007Y-1704075D01*
X1640000Y-1765855D01*
X1640000Y-1120000D01*
X1070297Y-1120000D01*
X1011966Y-1131602D01*
X1011965Y-1131603D01*
X945808Y-1175808D01*
X901603Y-1241965D01*
X901602Y-1241966D01*
X890000Y-1300297D01*
X-9500Y-1300297D01*
X-9500Y-214000D01*
X10185Y-146961D01*
X62989Y-101206D01*
X114500Y-90000D01*
X21065500Y-90000D01*
X21132539Y-109685D01*
G37*
%TD.AperFunction*%
%TD*%
M02*
