%TF.GenerationSoftware,KiCad,Pcbnew,9.0.1*%
%TF.CreationDate,2026-05-31T13:24:01+05:30*%
%TF.ProjectId,8051DevBoardV2,38303531-4465-4764-926f-61726456322e,rev?*%
%TF.SameCoordinates,PX2e4f780PY569a690*%
%TF.FileFunction,Soldermask,Bot*%
%TF.FilePolarity,Negative*%
%FSLAX46Y46*%
G04 Gerber Fmt 4.6, Leading zero omitted, Abs format (unit mm)*
G04 Created by KiCad (PCBNEW 9.0.1) date 2026-05-31 13:24:01*
%MOMM*%
%LPD*%
G01*
G04 APERTURE LIST*
G04 Aperture macros list*
%AMRoundRect*
0 Rectangle with rounded corners*
0 $1 Rounding radius*
0 $2 $3 $4 $5 $6 $7 $8 $9 X,Y pos of 4 corners*
0 Add a 4 corners polygon primitive as box body*
4,1,4,$2,$3,$4,$5,$6,$7,$8,$9,$2,$3,0*
0 Add four circle primitives for the rounded corners*
1,1,$1+$1,$2,$3*
1,1,$1+$1,$4,$5*
1,1,$1+$1,$6,$7*
1,1,$1+$1,$8,$9*
0 Add four rect primitives between the rounded corners*
20,1,$1+$1,$2,$3,$4,$5,0*
20,1,$1+$1,$4,$5,$6,$7,0*
20,1,$1+$1,$6,$7,$8,$9,0*
20,1,$1+$1,$8,$9,$2,$3,0*%
G04 Aperture macros list end*
%ADD10C,0.650000*%
%ADD11O,1.000000X2.100000*%
%ADD12O,1.000000X1.600000*%
%ADD13R,1.700000X1.700000*%
%ADD14O,1.700000X1.700000*%
%ADD15RoundRect,0.135000X0.185000X-0.135000X0.185000X0.135000X-0.185000X0.135000X-0.185000X-0.135000X0*%
%ADD16RoundRect,0.140000X-0.170000X0.140000X-0.170000X-0.140000X0.170000X-0.140000X0.170000X0.140000X0*%
%ADD17R,2.000000X1.500000*%
%ADD18R,2.000000X3.800000*%
%ADD19R,1.750000X0.450000*%
%ADD20RoundRect,0.135000X-0.185000X0.135000X-0.185000X-0.135000X0.185000X-0.135000X0.185000X0.135000X0*%
%ADD21RoundRect,0.140000X0.140000X0.170000X-0.140000X0.170000X-0.140000X-0.170000X0.140000X-0.170000X0*%
G04 APERTURE END LIST*
D10*
%TO.C,J1*%
X13650000Y-5090000D03*
X7870000Y-5090000D03*
D11*
X15080000Y-5620000D03*
D12*
X15080000Y-1440000D03*
D11*
X6440000Y-5620000D03*
D12*
X6440000Y-1440000D03*
%TD*%
D13*
%TO.C,J6*%
X12986471Y-45599551D03*
D14*
X10446471Y-45599551D03*
X7906471Y-45599551D03*
%TD*%
D13*
%TO.C,J4*%
X12965000Y-40317726D03*
D14*
X10425000Y-40317726D03*
X7885000Y-40317726D03*
%TD*%
D13*
%TO.C,J5*%
X12976805Y-42990000D03*
D14*
X10436805Y-42990000D03*
X7896805Y-42990000D03*
%TD*%
D15*
%TO.C,R2*%
X11440000Y-3510000D03*
X11440000Y-2490000D03*
%TD*%
D16*
%TO.C,C2*%
X5940000Y-12510000D03*
X5940000Y-13470000D03*
%TD*%
D15*
%TO.C,R1*%
X9940000Y-3500000D03*
X9940000Y-2480000D03*
%TD*%
D13*
%TO.C,J3*%
X1940000Y-2170000D03*
D14*
X1940000Y-4710000D03*
X1940000Y-7250000D03*
X1940000Y-9790000D03*
X1940000Y-12330000D03*
X1940000Y-14870000D03*
X1940000Y-17410000D03*
X1940000Y-19950000D03*
X1940000Y-22490000D03*
X1940000Y-25030000D03*
X1940000Y-27570000D03*
X1940000Y-30110000D03*
X1940000Y-32650000D03*
X1940000Y-35190000D03*
X1940000Y-37730000D03*
X1940000Y-40270000D03*
X1940000Y-42810000D03*
X1940000Y-45350000D03*
%TD*%
D17*
%TO.C,U2*%
X7940000Y-14590000D03*
X7940000Y-12290000D03*
D18*
X14240000Y-12290000D03*
D17*
X7940000Y-9990000D03*
%TD*%
D19*
%TO.C,U1*%
X7090000Y-27715000D03*
X7090000Y-27065000D03*
X7090000Y-26415000D03*
X7090000Y-25765000D03*
X7090000Y-25115000D03*
X7090000Y-24465000D03*
X7090000Y-23815000D03*
X7090000Y-23165000D03*
X7090000Y-22515000D03*
X7090000Y-21865000D03*
X7090000Y-21215000D03*
X7090000Y-20565000D03*
X7090000Y-19915000D03*
X7090000Y-19265000D03*
X14290000Y-19265000D03*
X14290000Y-19915000D03*
X14290000Y-20565000D03*
X14290000Y-21215000D03*
X14290000Y-21865000D03*
X14290000Y-22515000D03*
X14290000Y-23165000D03*
X14290000Y-23815000D03*
X14290000Y-24465000D03*
X14290000Y-25115000D03*
X14290000Y-25765000D03*
X14290000Y-26415000D03*
X14290000Y-27065000D03*
X14290000Y-27715000D03*
%TD*%
D20*
%TO.C,R9*%
X10940000Y-36980000D03*
X10940000Y-38000000D03*
%TD*%
%TO.C,R8*%
X8040000Y-36990000D03*
X8040000Y-38010000D03*
%TD*%
D21*
%TO.C,C1*%
X8940000Y-7990000D03*
X7980000Y-7990000D03*
%TD*%
D13*
%TO.C,J2*%
X19440000Y-2170000D03*
D14*
X19440000Y-4710000D03*
X19440000Y-7250000D03*
X19440000Y-9790000D03*
X19440000Y-12330000D03*
X19440000Y-14870000D03*
X19440000Y-17410000D03*
X19440000Y-19950000D03*
X19440000Y-22490000D03*
X19440000Y-25030000D03*
X19440000Y-27570000D03*
X19440000Y-30110000D03*
X19440000Y-32650000D03*
X19440000Y-35190000D03*
X19440000Y-37730000D03*
X19440000Y-40270000D03*
X19440000Y-42810000D03*
X19440000Y-45350000D03*
%TD*%
D20*
%TO.C,R7*%
X9540000Y-36980000D03*
X9540000Y-38000000D03*
%TD*%
M02*
