M48
; DRILL file {KiCad 9.0.1} date 2026-05-31T13:23:55+0530
; FORMAT={-:-/ absolute / metric / decimal}
; #@! TF.CreationDate,2026-05-31T13:23:55+05:30
; #@! TF.GenerationSoftware,Kicad,Pcbnew,9.0.1
; #@! TF.FileFunction,Plated,1,2,PTH
FMAT,2
METRIC
; #@! TA.AperFunction,Plated,PTH,ViaDrill
T1C0.300
; #@! TA.AperFunction,Plated,PTH,ComponentDrill
T2C0.600
; #@! TA.AperFunction,Plated,PTH,ComponentDrill
T3C1.000
%
G90
G05
T1
X5.67Y-16.6
X5.76Y-15.67
X6.54Y-7.69
X7.19Y-29.34
X8.19Y-29.99
X9.35Y-22.41
X9.44Y-29.49
X9.54Y-18.09
X9.915Y-10.74
X9.94Y-4.539
X10.14Y-12.02
X10.54Y-26.51
X10.541Y-14.339
X10.566Y-13.316
X10.69Y-28.49
X10.803Y-34.517
X10.84Y-9.29
X11.259Y-25.091
X11.44Y-4.539
X11.44Y-32.69
X11.8Y-22.39
X12.34Y-32.69
X13.14Y-32.69
X13.94Y-32.69
X14.44Y-16.69
X14.44Y-29.49
X15.24Y-32.89
X15.95Y-20.58
X16.431Y-7.765
X16.431Y-8.615
X16.54Y-5.69
X17.64Y-25.74
T3
X1.94Y-2.17
X1.94Y-4.71
X1.94Y-7.25
X1.94Y-9.79
X1.94Y-12.33
X1.94Y-14.87
X1.94Y-17.41
X1.94Y-19.95
X1.94Y-22.49
X1.94Y-25.03
X1.94Y-27.57
X1.94Y-30.11
X1.94Y-32.65
X1.94Y-35.19
X1.94Y-37.73
X1.94Y-40.27
X1.94Y-42.81
X1.94Y-45.35
X7.885Y-40.318
X7.897Y-42.99
X7.906Y-45.6
X10.425Y-40.318
X10.437Y-42.99
X10.446Y-45.6
X12.965Y-40.318
X12.977Y-42.99
X12.986Y-45.6
X19.44Y-2.17
X19.44Y-4.71
X19.44Y-7.25
X19.44Y-9.79
X19.44Y-12.33
X19.44Y-14.87
X19.44Y-17.41
X19.44Y-19.95
X19.44Y-22.49
X19.44Y-25.03
X19.44Y-27.57
X19.44Y-30.11
X19.44Y-32.65
X19.44Y-35.19
X19.44Y-37.73
X19.44Y-40.27
X19.44Y-42.81
X19.44Y-45.35
T2
G00X6.44Y-1.74
M15
G01X6.44Y-1.14
M16
G05
G00X6.44Y-6.17
M15
G01X6.44Y-5.07
M16
G05
G00X15.08Y-1.74
M15
G01X15.08Y-1.14
M16
G05
G00X15.08Y-6.17
M15
G01X15.08Y-5.07
M16
G05
M30
