%TF.GenerationSoftware,KiCad,Pcbnew,9.0.1*%
%TF.CreationDate,2026-05-31T13:24:01+05:30*%
%TF.ProjectId,8051DevBoardV2,38303531-4465-4764-926f-61726456322e,rev?*%
%TF.SameCoordinates,PX2e4f780PY569a690*%
%TF.FileFunction,Legend,Top*%
%TF.FilePolarity,Positive*%
%FSLAX46Y46*%
G04 Gerber Fmt 4.6, Leading zero omitted, Abs format (unit mm)*
G04 Created by KiCad (PCBNEW 9.0.1) date 2026-05-31 13:24:01*
%MOMM*%
%LPD*%
G01*
G04 APERTURE LIST*
%ADD10C,0.150000*%
%ADD11C,0.200000*%
%ADD12C,0.050000*%
%ADD13C,0.062500*%
%ADD14C,0.125000*%
%ADD15C,0.120000*%
%ADD16C,0.100000*%
%ADD17C,0.127000*%
G04 APERTURE END LIST*
D10*
X3690000Y-25240000D02*
X3190000Y-25240000D01*
X17690000Y-27740000D02*
X18190000Y-27740000D01*
X18190000Y-45740000D02*
X17690000Y-45740000D01*
X3190000Y-27490000D02*
X3690000Y-27490000D01*
X4576813Y-10261703D02*
X9476813Y-10261703D01*
X9476813Y-12686703D01*
X4576813Y-12686703D01*
X4576813Y-10261703D01*
X18190000Y-25240000D02*
X17690000Y-25240000D01*
X3190000Y-7240000D02*
X3690000Y-7240000D01*
X17690000Y-25240000D02*
X17690000Y-7240000D01*
X3690000Y-27490000D02*
X3690000Y-45490000D01*
X3690000Y-7240000D02*
X3690000Y-25240000D01*
X17690000Y-45740000D02*
X17690000Y-27740000D01*
X17690000Y-7240000D02*
X18140000Y-7240000D01*
X3690000Y-45490000D02*
X3190000Y-45490000D01*
D11*
X3559673Y-45011980D02*
X3607292Y-45059600D01*
X3607292Y-45059600D02*
X3559673Y-45107219D01*
X3559673Y-45107219D02*
X3512054Y-45059600D01*
X3512054Y-45059600D02*
X3559673Y-45011980D01*
X3559673Y-45011980D02*
X3559673Y-45107219D01*
D12*
X14649084Y-42940471D02*
X14839560Y-42940471D01*
X14610989Y-43026185D02*
X14744322Y-42726185D01*
X14744322Y-42726185D02*
X14877655Y-43026185D01*
X15201465Y-43026185D02*
X15010989Y-43026185D01*
X15010989Y-43026185D02*
X15010989Y-42726185D01*
X15334799Y-42869042D02*
X15468132Y-42869042D01*
X15525275Y-43026185D02*
X15334799Y-43026185D01*
X15334799Y-43026185D02*
X15334799Y-42726185D01*
X15334799Y-42726185D02*
X15525275Y-42726185D01*
X15982418Y-42711900D02*
X15639561Y-43097614D01*
X16115752Y-43026185D02*
X16115752Y-42726185D01*
X16115752Y-42726185D02*
X16268133Y-42726185D01*
X16268133Y-42726185D02*
X16306228Y-42740471D01*
X16306228Y-42740471D02*
X16325275Y-42754757D01*
X16325275Y-42754757D02*
X16344323Y-42783328D01*
X16344323Y-42783328D02*
X16344323Y-42826185D01*
X16344323Y-42826185D02*
X16325275Y-42854757D01*
X16325275Y-42854757D02*
X16306228Y-42869042D01*
X16306228Y-42869042D02*
X16268133Y-42883328D01*
X16268133Y-42883328D02*
X16115752Y-42883328D01*
X16744323Y-43026185D02*
X16610990Y-42883328D01*
X16515752Y-43026185D02*
X16515752Y-42726185D01*
X16515752Y-42726185D02*
X16668133Y-42726185D01*
X16668133Y-42726185D02*
X16706228Y-42740471D01*
X16706228Y-42740471D02*
X16725275Y-42754757D01*
X16725275Y-42754757D02*
X16744323Y-42783328D01*
X16744323Y-42783328D02*
X16744323Y-42826185D01*
X16744323Y-42826185D02*
X16725275Y-42854757D01*
X16725275Y-42854757D02*
X16706228Y-42869042D01*
X16706228Y-42869042D02*
X16668133Y-42883328D01*
X16668133Y-42883328D02*
X16515752Y-42883328D01*
X16991942Y-42726185D02*
X17068133Y-42726185D01*
X17068133Y-42726185D02*
X17106228Y-42740471D01*
X17106228Y-42740471D02*
X17144323Y-42769042D01*
X17144323Y-42769042D02*
X17163371Y-42826185D01*
X17163371Y-42826185D02*
X17163371Y-42926185D01*
X17163371Y-42926185D02*
X17144323Y-42983328D01*
X17144323Y-42983328D02*
X17106228Y-43011900D01*
X17106228Y-43011900D02*
X17068133Y-43026185D01*
X17068133Y-43026185D02*
X16991942Y-43026185D01*
X16991942Y-43026185D02*
X16953847Y-43011900D01*
X16953847Y-43011900D02*
X16915752Y-42983328D01*
X16915752Y-42983328D02*
X16896704Y-42926185D01*
X16896704Y-42926185D02*
X16896704Y-42826185D01*
X16896704Y-42826185D02*
X16915752Y-42769042D01*
X16915752Y-42769042D02*
X16953847Y-42740471D01*
X16953847Y-42740471D02*
X16991942Y-42726185D01*
X17544323Y-42740471D02*
X17506228Y-42726185D01*
X17506228Y-42726185D02*
X17449085Y-42726185D01*
X17449085Y-42726185D02*
X17391942Y-42740471D01*
X17391942Y-42740471D02*
X17353847Y-42769042D01*
X17353847Y-42769042D02*
X17334800Y-42797614D01*
X17334800Y-42797614D02*
X17315752Y-42854757D01*
X17315752Y-42854757D02*
X17315752Y-42897614D01*
X17315752Y-42897614D02*
X17334800Y-42954757D01*
X17334800Y-42954757D02*
X17353847Y-42983328D01*
X17353847Y-42983328D02*
X17391942Y-43011900D01*
X17391942Y-43011900D02*
X17449085Y-43026185D01*
X17449085Y-43026185D02*
X17487181Y-43026185D01*
X17487181Y-43026185D02*
X17544323Y-43011900D01*
X17544323Y-43011900D02*
X17563371Y-42997614D01*
X17563371Y-42997614D02*
X17563371Y-42897614D01*
X17563371Y-42897614D02*
X17487181Y-42897614D01*
D13*
G36*
X11935596Y-8465993D02*
G01*
X11942708Y-8473105D01*
X11951428Y-8490543D01*
X11951428Y-8566203D01*
X11856785Y-8566203D01*
X11856785Y-8490545D01*
X11865504Y-8473107D01*
X11872617Y-8465993D01*
X11890055Y-8457274D01*
X11918158Y-8457274D01*
X11935596Y-8465993D01*
G37*
G36*
X11935596Y-7823136D02*
G01*
X11942708Y-7830248D01*
X11951428Y-7847686D01*
X11951428Y-7923346D01*
X11856785Y-7923346D01*
X11856785Y-7847688D01*
X11865504Y-7830250D01*
X11872617Y-7823136D01*
X11890055Y-7814417D01*
X11918158Y-7814417D01*
X11935596Y-7823136D01*
G37*
G36*
X12189845Y-8662036D02*
G01*
X11760952Y-8662036D01*
X11760952Y-8483167D01*
X11794285Y-8483167D01*
X11794285Y-8597453D01*
X11796664Y-8609412D01*
X11813576Y-8626324D01*
X11825535Y-8628703D01*
X12125535Y-8628703D01*
X12137494Y-8626324D01*
X12154406Y-8609412D01*
X12154406Y-8585494D01*
X12137494Y-8568582D01*
X12125535Y-8566203D01*
X12013928Y-8566203D01*
X12013928Y-8483167D01*
X12013622Y-8481631D01*
X12013849Y-8480952D01*
X12012526Y-8476122D01*
X12011549Y-8471208D01*
X12011042Y-8470701D01*
X12010629Y-8469192D01*
X11996343Y-8440620D01*
X11993271Y-8436663D01*
X11990490Y-8432500D01*
X11976205Y-8418214D01*
X11972038Y-8415429D01*
X11968082Y-8412359D01*
X11939510Y-8398073D01*
X11938000Y-8397659D01*
X11937494Y-8397153D01*
X11932579Y-8396175D01*
X11927750Y-8394853D01*
X11927070Y-8395079D01*
X11925535Y-8394774D01*
X11882678Y-8394774D01*
X11881142Y-8395079D01*
X11880463Y-8394853D01*
X11875633Y-8396175D01*
X11870719Y-8397153D01*
X11870212Y-8397659D01*
X11868703Y-8398073D01*
X11840131Y-8412359D01*
X11836173Y-8415430D01*
X11832010Y-8418213D01*
X11817724Y-8432499D01*
X11814940Y-8436665D01*
X11811871Y-8440620D01*
X11797584Y-8469191D01*
X11797170Y-8470701D01*
X11796664Y-8471208D01*
X11795686Y-8476121D01*
X11794364Y-8480952D01*
X11794590Y-8481631D01*
X11794285Y-8483167D01*
X11760952Y-8483167D01*
X11760952Y-8073829D01*
X11794679Y-8073829D01*
X11807214Y-8094198D01*
X11818297Y-8099282D01*
X11997820Y-8142025D01*
X11903198Y-8167258D01*
X11892256Y-8172638D01*
X11890121Y-8176324D01*
X11886435Y-8178459D01*
X11884342Y-8186307D01*
X11880272Y-8193337D01*
X11881369Y-8197453D01*
X11880272Y-8201569D01*
X11884342Y-8208598D01*
X11886435Y-8216447D01*
X11890121Y-8218581D01*
X11892256Y-8222268D01*
X11903198Y-8227648D01*
X11997820Y-8252880D01*
X11818297Y-8295624D01*
X11807214Y-8300708D01*
X11794679Y-8321077D01*
X11800219Y-8344345D01*
X11820588Y-8356880D01*
X11832773Y-8356424D01*
X12132773Y-8284996D01*
X12143856Y-8279912D01*
X12146306Y-8275930D01*
X12150349Y-8273590D01*
X12152339Y-8266126D01*
X12156391Y-8259543D01*
X12155308Y-8254994D01*
X12156512Y-8250480D01*
X12152641Y-8243793D01*
X12150851Y-8236275D01*
X12146870Y-8233825D01*
X12144529Y-8229781D01*
X12133587Y-8224401D01*
X12032532Y-8197453D01*
X12133587Y-8170505D01*
X12144529Y-8165125D01*
X12146870Y-8161080D01*
X12150851Y-8158631D01*
X12152641Y-8151112D01*
X12156512Y-8144426D01*
X12155308Y-8139911D01*
X12156391Y-8135363D01*
X12152339Y-8128779D01*
X12150349Y-8121316D01*
X12146306Y-8118975D01*
X12143856Y-8114994D01*
X12132773Y-8109910D01*
X11832773Y-8038482D01*
X11820588Y-8038026D01*
X11800219Y-8050561D01*
X11794679Y-8073829D01*
X11760952Y-8073829D01*
X11760952Y-7840310D01*
X11794285Y-7840310D01*
X11794285Y-7954596D01*
X11796664Y-7966555D01*
X11813576Y-7983467D01*
X11825535Y-7985846D01*
X12125535Y-7985846D01*
X12137494Y-7983467D01*
X12154406Y-7966555D01*
X12154406Y-7942637D01*
X12137494Y-7925725D01*
X12125535Y-7923346D01*
X12013928Y-7923346D01*
X12013928Y-7899437D01*
X12143456Y-7808768D01*
X12151888Y-7799961D01*
X12156045Y-7776408D01*
X12142329Y-7756814D01*
X12118776Y-7752657D01*
X12107614Y-7757566D01*
X12010303Y-7825683D01*
X11996343Y-7797763D01*
X11993271Y-7793806D01*
X11990490Y-7789643D01*
X11976205Y-7775357D01*
X11972038Y-7772572D01*
X11968082Y-7769502D01*
X11939510Y-7755216D01*
X11938000Y-7754802D01*
X11937494Y-7754296D01*
X11932579Y-7753318D01*
X11927750Y-7751996D01*
X11927070Y-7752222D01*
X11925535Y-7751917D01*
X11882678Y-7751917D01*
X11881142Y-7752222D01*
X11880463Y-7751996D01*
X11875633Y-7753318D01*
X11870719Y-7754296D01*
X11870212Y-7754802D01*
X11868703Y-7755216D01*
X11840131Y-7769502D01*
X11836173Y-7772573D01*
X11832010Y-7775356D01*
X11817724Y-7789642D01*
X11814940Y-7793808D01*
X11811871Y-7797763D01*
X11797584Y-7826334D01*
X11797170Y-7827844D01*
X11796664Y-7828351D01*
X11795686Y-7833264D01*
X11794364Y-7838095D01*
X11794590Y-7838774D01*
X11794285Y-7840310D01*
X11760952Y-7840310D01*
X11760952Y-7718584D01*
X12189845Y-7718584D01*
X12189845Y-8662036D01*
G37*
D11*
X3559673Y-7761980D02*
X3607292Y-7809600D01*
X3607292Y-7809600D02*
X3559673Y-7857219D01*
X3559673Y-7857219D02*
X3512054Y-7809600D01*
X3512054Y-7809600D02*
X3559673Y-7761980D01*
X3559673Y-7761980D02*
X3559673Y-7857219D01*
D13*
G36*
X15139524Y-8647514D02*
G01*
X14710952Y-8647514D01*
X14710952Y-8413882D01*
X14744285Y-8413882D01*
X14744285Y-8585310D01*
X14746664Y-8597269D01*
X14763576Y-8614181D01*
X14787494Y-8614181D01*
X14804406Y-8597269D01*
X14806785Y-8585310D01*
X14806785Y-8530846D01*
X15075535Y-8530846D01*
X15087494Y-8528467D01*
X15104406Y-8511555D01*
X15104406Y-8487637D01*
X15087494Y-8470725D01*
X15075535Y-8468346D01*
X14806785Y-8468346D01*
X14806785Y-8413882D01*
X14804406Y-8401923D01*
X14787494Y-8385011D01*
X14763576Y-8385011D01*
X14746664Y-8401923D01*
X14744285Y-8413882D01*
X14710952Y-8413882D01*
X14710952Y-8136389D01*
X14744879Y-8136389D01*
X14749570Y-8159841D01*
X14758201Y-8168455D01*
X14869198Y-8242453D01*
X14758201Y-8316451D01*
X14749570Y-8325065D01*
X14744879Y-8348517D01*
X14758147Y-8368418D01*
X14781599Y-8373109D01*
X14792869Y-8368455D01*
X14925535Y-8280011D01*
X15058201Y-8368455D01*
X15069471Y-8373109D01*
X15092923Y-8368418D01*
X15106191Y-8348517D01*
X15101500Y-8325064D01*
X15092869Y-8316451D01*
X14981872Y-8242453D01*
X15092869Y-8168455D01*
X15101500Y-8159842D01*
X15106191Y-8136389D01*
X15092923Y-8116488D01*
X15069471Y-8111797D01*
X15058201Y-8116451D01*
X14925535Y-8204895D01*
X14792869Y-8116451D01*
X14781599Y-8111797D01*
X14758147Y-8116488D01*
X14744879Y-8136389D01*
X14710952Y-8136389D01*
X14710952Y-8078464D01*
X15139524Y-8078464D01*
X15139524Y-8647514D01*
G37*
D14*
X17691380Y-1859047D02*
X17715190Y-1811428D01*
X17715190Y-1811428D02*
X17715190Y-1739999D01*
X17715190Y-1739999D02*
X17691380Y-1668571D01*
X17691380Y-1668571D02*
X17643761Y-1620952D01*
X17643761Y-1620952D02*
X17596142Y-1597142D01*
X17596142Y-1597142D02*
X17500904Y-1573333D01*
X17500904Y-1573333D02*
X17429476Y-1573333D01*
X17429476Y-1573333D02*
X17334238Y-1597142D01*
X17334238Y-1597142D02*
X17286619Y-1620952D01*
X17286619Y-1620952D02*
X17239000Y-1668571D01*
X17239000Y-1668571D02*
X17215190Y-1739999D01*
X17215190Y-1739999D02*
X17215190Y-1787618D01*
X17215190Y-1787618D02*
X17239000Y-1859047D01*
X17239000Y-1859047D02*
X17262809Y-1882856D01*
X17262809Y-1882856D02*
X17429476Y-1882856D01*
X17429476Y-1882856D02*
X17429476Y-1787618D01*
X17215190Y-2097142D02*
X17715190Y-2097142D01*
X17715190Y-2097142D02*
X17215190Y-2382856D01*
X17215190Y-2382856D02*
X17715190Y-2382856D01*
X17215190Y-2620952D02*
X17715190Y-2620952D01*
X17715190Y-2620952D02*
X17715190Y-2740000D01*
X17715190Y-2740000D02*
X17691380Y-2811428D01*
X17691380Y-2811428D02*
X17643761Y-2859047D01*
X17643761Y-2859047D02*
X17596142Y-2882857D01*
X17596142Y-2882857D02*
X17500904Y-2906666D01*
X17500904Y-2906666D02*
X17429476Y-2906666D01*
X17429476Y-2906666D02*
X17334238Y-2882857D01*
X17334238Y-2882857D02*
X17286619Y-2859047D01*
X17286619Y-2859047D02*
X17239000Y-2811428D01*
X17239000Y-2811428D02*
X17215190Y-2740000D01*
X17215190Y-2740000D02*
X17215190Y-2620952D01*
G36*
X13469604Y-38589809D02*
G01*
X12458168Y-38589809D01*
X12458168Y-38196685D01*
X12520668Y-38196685D01*
X12523023Y-38220958D01*
X12525116Y-38223516D01*
X12525116Y-38226821D01*
X12539985Y-38241690D01*
X12553313Y-38257980D01*
X12556604Y-38258309D01*
X12558941Y-38260646D01*
X12579978Y-38260646D01*
X12600912Y-38262739D01*
X12603470Y-38260646D01*
X12606775Y-38260646D01*
X12627052Y-38247098D01*
X12643690Y-38230459D01*
X12669039Y-38217785D01*
X12758580Y-38217785D01*
X12783931Y-38230461D01*
X12793397Y-38239927D01*
X12806072Y-38265276D01*
X12806072Y-38354817D01*
X12793396Y-38380167D01*
X12783931Y-38389633D01*
X12758580Y-38402309D01*
X12669040Y-38402309D01*
X12643689Y-38389634D01*
X12627053Y-38372997D01*
X12606776Y-38359448D01*
X12558942Y-38359447D01*
X12525116Y-38393272D01*
X12525115Y-38441106D01*
X12538663Y-38461383D01*
X12562472Y-38485193D01*
X12570799Y-38490757D01*
X12578717Y-38496902D01*
X12626335Y-38520711D01*
X12629354Y-38521537D01*
X12630368Y-38522551D01*
X12640195Y-38524505D01*
X12649856Y-38527151D01*
X12651214Y-38526698D01*
X12654286Y-38527309D01*
X12773334Y-38527309D01*
X12776403Y-38526698D01*
X12777764Y-38527152D01*
X12787430Y-38524504D01*
X12797252Y-38522551D01*
X12798265Y-38521537D01*
X12801284Y-38520711D01*
X12848903Y-38496902D01*
X12856817Y-38490759D01*
X12865148Y-38485193D01*
X12888957Y-38461383D01*
X12894524Y-38453049D01*
X12900663Y-38445141D01*
X12924474Y-38397522D01*
X12925300Y-38394502D01*
X12926314Y-38393489D01*
X12928268Y-38383663D01*
X12930914Y-38374002D01*
X12930460Y-38372642D01*
X12931072Y-38369571D01*
X12931072Y-38250523D01*
X12930460Y-38247451D01*
X12930914Y-38246092D01*
X12928268Y-38236430D01*
X12926314Y-38226605D01*
X12925300Y-38225591D01*
X12924474Y-38222572D01*
X12900663Y-38174953D01*
X12894522Y-38167041D01*
X12888956Y-38158710D01*
X12865147Y-38134901D01*
X12856815Y-38129334D01*
X12848904Y-38123194D01*
X12801285Y-38099384D01*
X12798266Y-38098557D01*
X12797252Y-38097543D01*
X12787421Y-38095587D01*
X12777765Y-38092943D01*
X12776405Y-38093396D01*
X12773334Y-38092785D01*
X12656682Y-38092785D01*
X12663229Y-38027309D01*
X12844762Y-38027309D01*
X12868680Y-38022551D01*
X12902504Y-37988727D01*
X12902504Y-37960378D01*
X12949087Y-37960378D01*
X12952136Y-37984573D01*
X13118802Y-38484573D01*
X13130880Y-38505759D01*
X13135056Y-38507847D01*
X13137145Y-38512024D01*
X13155940Y-38518289D01*
X13173664Y-38527151D01*
X13178095Y-38525674D01*
X13182526Y-38527151D01*
X13200250Y-38518289D01*
X13219045Y-38512024D01*
X13221133Y-38507847D01*
X13225310Y-38505759D01*
X13237388Y-38484573D01*
X13404055Y-37984574D01*
X13407104Y-37960378D01*
X13385712Y-37917594D01*
X13340331Y-37902467D01*
X13297547Y-37923859D01*
X13285469Y-37945045D01*
X13178095Y-38267165D01*
X13070722Y-37945045D01*
X13058644Y-37923859D01*
X13015860Y-37902467D01*
X12970479Y-37917594D01*
X12949087Y-37960378D01*
X12902504Y-37960378D01*
X12902504Y-37940891D01*
X12868680Y-37907067D01*
X12844762Y-37902309D01*
X12606667Y-37902309D01*
X12591712Y-37905283D01*
X12588613Y-37904974D01*
X12587116Y-37906198D01*
X12582749Y-37907067D01*
X12567871Y-37921944D01*
X12551591Y-37935265D01*
X12550292Y-37939523D01*
X12548925Y-37940891D01*
X12548925Y-37944006D01*
X12544477Y-37958591D01*
X12520668Y-38196685D01*
X12458168Y-38196685D01*
X12458168Y-37839809D01*
X13469604Y-37839809D01*
X13469604Y-38589809D01*
G37*
D10*
G36*
X8379364Y-10672805D02*
G01*
X8379364Y-10936587D01*
X7865996Y-10936587D01*
X7865996Y-11220336D01*
X7918104Y-11170197D01*
X7975886Y-11135144D01*
X8040546Y-11113908D01*
X8113933Y-11106580D01*
X8199225Y-11113370D01*
X8268941Y-11132276D01*
X8326025Y-11161941D01*
X8372678Y-11202201D01*
X8406306Y-11251412D01*
X8433798Y-11323838D01*
X8452977Y-11426936D01*
X8460330Y-11569665D01*
X8460330Y-11805878D01*
X8455279Y-11970035D01*
X8443386Y-12064073D01*
X8417168Y-12142697D01*
X8371121Y-12216389D01*
X8330591Y-12258401D01*
X8279732Y-12294192D01*
X8216881Y-12323734D01*
X8149963Y-12343595D01*
X8070260Y-12356417D01*
X7975631Y-12361012D01*
X7870235Y-12354455D01*
X7776863Y-12335656D01*
X7693805Y-12305507D01*
X7618976Y-12261404D01*
X7562039Y-12206575D01*
X7520606Y-12140094D01*
X7494766Y-12064379D01*
X7476480Y-11954421D01*
X7469407Y-11799925D01*
X7469407Y-11710349D01*
X7883398Y-11710349D01*
X7883398Y-11812015D01*
X7886831Y-11958712D01*
X7894664Y-12036688D01*
X7908784Y-12074259D01*
X7933679Y-12095437D01*
X7972516Y-12103091D01*
X8000758Y-12098118D01*
X8022250Y-12083857D01*
X8037108Y-12063357D01*
X8042767Y-12042366D01*
X8046339Y-11848834D01*
X8046339Y-11523595D01*
X8040279Y-11439052D01*
X8026830Y-11397932D01*
X8001679Y-11373215D01*
X7962350Y-11364501D01*
X7935602Y-11368937D01*
X7914081Y-11381812D01*
X7897734Y-11400308D01*
X7888985Y-11418998D01*
X7883398Y-11511047D01*
X7473528Y-11511047D01*
X7490931Y-10672805D01*
X8379364Y-10672805D01*
G37*
G36*
X9177855Y-10672805D02*
G01*
X9177855Y-12331703D01*
X8763955Y-12331703D01*
X8763955Y-11440979D01*
X8760707Y-11266372D01*
X8754704Y-11209071D01*
X8737910Y-11175367D01*
X8703963Y-11150086D01*
X8649785Y-11136592D01*
X8519040Y-11130028D01*
X8478008Y-11130028D01*
X8478008Y-10938053D01*
X8597572Y-10905018D01*
X8701195Y-10861631D01*
X8790828Y-10808480D01*
X8868056Y-10745667D01*
X8934039Y-10672805D01*
X9177855Y-10672805D01*
G37*
D13*
X14574213Y-40377761D02*
X14574213Y-39949190D01*
X14931355Y-40120618D02*
X15098022Y-40120618D01*
X15169450Y-40277761D02*
X14931355Y-40277761D01*
X14931355Y-40277761D02*
X14931355Y-39977761D01*
X14931355Y-39977761D02*
X15169450Y-39977761D01*
X15359927Y-40192047D02*
X15598022Y-40192047D01*
X15312308Y-40277761D02*
X15478974Y-39977761D01*
X15478974Y-39977761D02*
X15645641Y-40277761D01*
X16169450Y-39963476D02*
X15740879Y-40349190D01*
X16264689Y-39977761D02*
X16431355Y-40277761D01*
X16431355Y-40277761D02*
X16598022Y-39977761D01*
X16764688Y-40277761D02*
X16764688Y-39977761D01*
X16764688Y-39977761D02*
X16955164Y-39977761D01*
X16955164Y-39977761D02*
X17002783Y-39992047D01*
X17002783Y-39992047D02*
X17026593Y-40006333D01*
X17026593Y-40006333D02*
X17050402Y-40034904D01*
X17050402Y-40034904D02*
X17050402Y-40077761D01*
X17050402Y-40077761D02*
X17026593Y-40106333D01*
X17026593Y-40106333D02*
X17002783Y-40120618D01*
X17002783Y-40120618D02*
X16955164Y-40134904D01*
X16955164Y-40134904D02*
X16764688Y-40134904D01*
X17264688Y-40277761D02*
X17264688Y-39977761D01*
X17264688Y-39977761D02*
X17455164Y-39977761D01*
X17455164Y-39977761D02*
X17502783Y-39992047D01*
X17502783Y-39992047D02*
X17526593Y-40006333D01*
X17526593Y-40006333D02*
X17550402Y-40034904D01*
X17550402Y-40034904D02*
X17550402Y-40077761D01*
X17550402Y-40077761D02*
X17526593Y-40106333D01*
X17526593Y-40106333D02*
X17502783Y-40120618D01*
X17502783Y-40120618D02*
X17455164Y-40134904D01*
X17455164Y-40134904D02*
X17264688Y-40134904D01*
D14*
G36*
X17049539Y-33860356D02*
G01*
X17065743Y-33892764D01*
X17086023Y-33973883D01*
X17086023Y-34101353D01*
X17065743Y-34182472D01*
X17049539Y-34214880D01*
X17027397Y-34237023D01*
X16936316Y-34237023D01*
X16914176Y-34214883D01*
X16897970Y-34182471D01*
X16877690Y-34101351D01*
X16877690Y-33973885D01*
X16897970Y-33892765D01*
X16914176Y-33860354D01*
X16936316Y-33838214D01*
X17027397Y-33838214D01*
X17049539Y-33860356D01*
G37*
G36*
X17252690Y-33196589D02*
G01*
X17232409Y-33277710D01*
X17216204Y-33310120D01*
X17194064Y-33332261D01*
X17174411Y-33332261D01*
X17152271Y-33310121D01*
X17136065Y-33277709D01*
X17115785Y-33196589D01*
X17115785Y-32885833D01*
X17252690Y-32885833D01*
X17252690Y-33196589D01*
G37*
G36*
X17440190Y-37324528D02*
G01*
X16690190Y-37324528D01*
X16690190Y-36632858D01*
X16752690Y-36632858D01*
X16752690Y-37204286D01*
X16757448Y-37228204D01*
X16791272Y-37262028D01*
X16839108Y-37262028D01*
X16872932Y-37228204D01*
X16877690Y-37204286D01*
X16877690Y-36981072D01*
X17315190Y-36981072D01*
X17327393Y-36978644D01*
X17330701Y-36979117D01*
X17332752Y-36977578D01*
X17339108Y-36976314D01*
X17353117Y-36962304D01*
X17368970Y-36950415D01*
X17369630Y-36945791D01*
X17372932Y-36942490D01*
X17372932Y-36922677D01*
X17375734Y-36903061D01*
X17372932Y-36897217D01*
X17372932Y-36894654D01*
X17370570Y-36892292D01*
X17365190Y-36881072D01*
X17297143Y-36790343D01*
X17255111Y-36706280D01*
X17232967Y-36617700D01*
X17222550Y-36595650D01*
X17181533Y-36571039D01*
X17135125Y-36582641D01*
X17110514Y-36623658D01*
X17111699Y-36648016D01*
X17135508Y-36743254D01*
X17138431Y-36749442D01*
X17140240Y-36756047D01*
X17187859Y-36851285D01*
X17191321Y-36855745D01*
X17191478Y-36856072D01*
X16877690Y-36856072D01*
X16877690Y-36632858D01*
X16872932Y-36608940D01*
X16839108Y-36575116D01*
X16791272Y-36575116D01*
X16757448Y-36608940D01*
X16752690Y-36632858D01*
X16690190Y-36632858D01*
X16690190Y-35490000D01*
X16752690Y-35490000D01*
X16752690Y-35585238D01*
X16757448Y-35609156D01*
X16791272Y-35642980D01*
X16839108Y-35642980D01*
X16872932Y-35609156D01*
X16877690Y-35585238D01*
X16877690Y-35497695D01*
X16895435Y-35426714D01*
X16912507Y-35409643D01*
X17086023Y-35409643D01*
X17086023Y-35585238D01*
X17090781Y-35609156D01*
X17124605Y-35642980D01*
X17172441Y-35642980D01*
X17206265Y-35609156D01*
X17211023Y-35585238D01*
X17211023Y-35409643D01*
X17315190Y-35409643D01*
X17339108Y-35404885D01*
X17372932Y-35371061D01*
X17372932Y-35323225D01*
X17339108Y-35289401D01*
X17315190Y-35284643D01*
X17211023Y-35284643D01*
X17211023Y-35204286D01*
X17206265Y-35180368D01*
X17172441Y-35146544D01*
X17124605Y-35146544D01*
X17090781Y-35180368D01*
X17086023Y-35204286D01*
X17086023Y-35284643D01*
X16886619Y-35284643D01*
X16862701Y-35289401D01*
X16862698Y-35289403D01*
X16842425Y-35302949D01*
X16794806Y-35350568D01*
X16791045Y-35356196D01*
X16788783Y-35357554D01*
X16785511Y-35364479D01*
X16781258Y-35370845D01*
X16781258Y-35373481D01*
X16778366Y-35379603D01*
X16754556Y-35474841D01*
X16754183Y-35482490D01*
X16752690Y-35490000D01*
X16690190Y-35490000D01*
X16690190Y-34704177D01*
X16757448Y-34704177D01*
X16757448Y-34752013D01*
X16791272Y-34785837D01*
X16815190Y-34790595D01*
X17027397Y-34790595D01*
X17049539Y-34812737D01*
X17065743Y-34845145D01*
X17086023Y-34926264D01*
X17086023Y-35013809D01*
X17090781Y-35037727D01*
X17124605Y-35071551D01*
X17172441Y-35071551D01*
X17206265Y-35037727D01*
X17211023Y-35013809D01*
X17211023Y-34918571D01*
X17209529Y-34911061D01*
X17209157Y-34903413D01*
X17185348Y-34808175D01*
X17182424Y-34801986D01*
X17180616Y-34795382D01*
X17174709Y-34783568D01*
X17206265Y-34752013D01*
X17206265Y-34704177D01*
X17172441Y-34670353D01*
X17148523Y-34665595D01*
X16815190Y-34665595D01*
X16791272Y-34670353D01*
X16757448Y-34704177D01*
X16690190Y-34704177D01*
X16690190Y-33966190D01*
X16752690Y-33966190D01*
X16752690Y-34109047D01*
X16754183Y-34116556D01*
X16754556Y-34124206D01*
X16778366Y-34219444D01*
X16781290Y-34225633D01*
X16783098Y-34232235D01*
X16806907Y-34279854D01*
X16813050Y-34287769D01*
X16818615Y-34296098D01*
X16866234Y-34343717D01*
X16886507Y-34357262D01*
X16886510Y-34357265D01*
X16910428Y-34362023D01*
X17053285Y-34362023D01*
X17077203Y-34357265D01*
X17077205Y-34357262D01*
X17097479Y-34343717D01*
X17145098Y-34296098D01*
X17150664Y-34287766D01*
X17156805Y-34279855D01*
X17180616Y-34232236D01*
X17182424Y-34225631D01*
X17185348Y-34219443D01*
X17209157Y-34124205D01*
X17209529Y-34116556D01*
X17211023Y-34109047D01*
X17211023Y-33966190D01*
X17209529Y-33958680D01*
X17209157Y-33951032D01*
X17185348Y-33855794D01*
X17182424Y-33849605D01*
X17180616Y-33843001D01*
X17156805Y-33795382D01*
X17150664Y-33787470D01*
X17145098Y-33779139D01*
X17097479Y-33731520D01*
X17077205Y-33717974D01*
X17077203Y-33717972D01*
X17053285Y-33713214D01*
X16910428Y-33713214D01*
X16886510Y-33717972D01*
X16886507Y-33717974D01*
X16866234Y-33731520D01*
X16818615Y-33779139D01*
X16813050Y-33787467D01*
X16806907Y-33795383D01*
X16783098Y-33843002D01*
X16781290Y-33849603D01*
X16778366Y-33855793D01*
X16754556Y-33951031D01*
X16754183Y-33958680D01*
X16752690Y-33966190D01*
X16690190Y-33966190D01*
X16690190Y-32799415D01*
X16757448Y-32799415D01*
X16757448Y-32847251D01*
X16791272Y-32881075D01*
X16815190Y-32885833D01*
X16990785Y-32885833D01*
X16990785Y-33204285D01*
X16992278Y-33211794D01*
X16992651Y-33219444D01*
X17016461Y-33314682D01*
X17019385Y-33320871D01*
X17021193Y-33327473D01*
X17045002Y-33375092D01*
X17051145Y-33383007D01*
X17056710Y-33391336D01*
X17104329Y-33438955D01*
X17124602Y-33452500D01*
X17124605Y-33452503D01*
X17148523Y-33457261D01*
X17219952Y-33457261D01*
X17243870Y-33452503D01*
X17243872Y-33452500D01*
X17264146Y-33438955D01*
X17311765Y-33391336D01*
X17317328Y-33383009D01*
X17323473Y-33375092D01*
X17347282Y-33327474D01*
X17349089Y-33320872D01*
X17352014Y-33314682D01*
X17375824Y-33219444D01*
X17376196Y-33211794D01*
X17377690Y-33204285D01*
X17377690Y-32823333D01*
X17372932Y-32799415D01*
X17339108Y-32765591D01*
X17315190Y-32760833D01*
X16815190Y-32760833D01*
X16791272Y-32765591D01*
X16757448Y-32799415D01*
X16690190Y-32799415D01*
X16690190Y-32698333D01*
X17440190Y-32698333D01*
X17440190Y-37324528D01*
G37*
X11414809Y-36263809D02*
X11176714Y-36430475D01*
X11414809Y-36549523D02*
X10914809Y-36549523D01*
X10914809Y-36549523D02*
X10914809Y-36359047D01*
X10914809Y-36359047D02*
X10938619Y-36311428D01*
X10938619Y-36311428D02*
X10962428Y-36287618D01*
X10962428Y-36287618D02*
X11010047Y-36263809D01*
X11010047Y-36263809D02*
X11081476Y-36263809D01*
X11081476Y-36263809D02*
X11129095Y-36287618D01*
X11129095Y-36287618D02*
X11152904Y-36311428D01*
X11152904Y-36311428D02*
X11176714Y-36359047D01*
X11176714Y-36359047D02*
X11176714Y-36549523D01*
X11391000Y-36073332D02*
X11414809Y-36001904D01*
X11414809Y-36001904D02*
X11414809Y-35882856D01*
X11414809Y-35882856D02*
X11391000Y-35835237D01*
X11391000Y-35835237D02*
X11367190Y-35811428D01*
X11367190Y-35811428D02*
X11319571Y-35787618D01*
X11319571Y-35787618D02*
X11271952Y-35787618D01*
X11271952Y-35787618D02*
X11224333Y-35811428D01*
X11224333Y-35811428D02*
X11200523Y-35835237D01*
X11200523Y-35835237D02*
X11176714Y-35882856D01*
X11176714Y-35882856D02*
X11152904Y-35978094D01*
X11152904Y-35978094D02*
X11129095Y-36025713D01*
X11129095Y-36025713D02*
X11105285Y-36049523D01*
X11105285Y-36049523D02*
X11057666Y-36073332D01*
X11057666Y-36073332D02*
X11010047Y-36073332D01*
X11010047Y-36073332D02*
X10962428Y-36049523D01*
X10962428Y-36049523D02*
X10938619Y-36025713D01*
X10938619Y-36025713D02*
X10914809Y-35978094D01*
X10914809Y-35978094D02*
X10914809Y-35859047D01*
X10914809Y-35859047D02*
X10938619Y-35787618D01*
X10914809Y-35644761D02*
X10914809Y-35359047D01*
X11414809Y-35501904D02*
X10914809Y-35501904D01*
X3664809Y-4835237D02*
X3664809Y-5073332D01*
X3664809Y-5073332D02*
X3902904Y-5097141D01*
X3902904Y-5097141D02*
X3879095Y-5073332D01*
X3879095Y-5073332D02*
X3855285Y-5025713D01*
X3855285Y-5025713D02*
X3855285Y-4906665D01*
X3855285Y-4906665D02*
X3879095Y-4859046D01*
X3879095Y-4859046D02*
X3902904Y-4835237D01*
X3902904Y-4835237D02*
X3950523Y-4811427D01*
X3950523Y-4811427D02*
X4069571Y-4811427D01*
X4069571Y-4811427D02*
X4117190Y-4835237D01*
X4117190Y-4835237D02*
X4141000Y-4859046D01*
X4141000Y-4859046D02*
X4164809Y-4906665D01*
X4164809Y-4906665D02*
X4164809Y-5025713D01*
X4164809Y-5025713D02*
X4141000Y-5073332D01*
X4141000Y-5073332D02*
X4117190Y-5097141D01*
X3664809Y-4668570D02*
X4164809Y-4501904D01*
X4164809Y-4501904D02*
X3664809Y-4335237D01*
G36*
X4227728Y-19169878D02*
G01*
X4243933Y-19202288D01*
X4264214Y-19283409D01*
X4264214Y-19594166D01*
X4127309Y-19594166D01*
X4127309Y-19283409D01*
X4147589Y-19202289D01*
X4163795Y-19169878D01*
X4185935Y-19147738D01*
X4205588Y-19147738D01*
X4227728Y-19169878D01*
G37*
G36*
X4465825Y-18265118D02*
G01*
X4482029Y-18297526D01*
X4502309Y-18378645D01*
X4502309Y-18506115D01*
X4482029Y-18587234D01*
X4465825Y-18619642D01*
X4443683Y-18641785D01*
X4352602Y-18641785D01*
X4330461Y-18619644D01*
X4314255Y-18587234D01*
X4293976Y-18506115D01*
X4293976Y-18378645D01*
X4314255Y-18297526D01*
X4330461Y-18265116D01*
X4352602Y-18242976D01*
X4443683Y-18242976D01*
X4465825Y-18265118D01*
G37*
G36*
X4689809Y-19781666D02*
G01*
X3939809Y-19781666D01*
X3939809Y-19275714D01*
X4002309Y-19275714D01*
X4002309Y-19656666D01*
X4007067Y-19680584D01*
X4040891Y-19714408D01*
X4064809Y-19719166D01*
X4564809Y-19719166D01*
X4588727Y-19714408D01*
X4622551Y-19680584D01*
X4622551Y-19632748D01*
X4588727Y-19598924D01*
X4564809Y-19594166D01*
X4389214Y-19594166D01*
X4389214Y-19275714D01*
X4387720Y-19268204D01*
X4387348Y-19260555D01*
X4363538Y-19165317D01*
X4360613Y-19159126D01*
X4358806Y-19152525D01*
X4334997Y-19104907D01*
X4328852Y-19096989D01*
X4323289Y-19088663D01*
X4275670Y-19041044D01*
X4255396Y-19027498D01*
X4255394Y-19027496D01*
X4231476Y-19022738D01*
X4160047Y-19022738D01*
X4136129Y-19027496D01*
X4136126Y-19027498D01*
X4115853Y-19041044D01*
X4068234Y-19088663D01*
X4062669Y-19096991D01*
X4056526Y-19104907D01*
X4032717Y-19152526D01*
X4030909Y-19159127D01*
X4027985Y-19165317D01*
X4004175Y-19260555D01*
X4003802Y-19268204D01*
X4002309Y-19275714D01*
X3939809Y-19275714D01*
X3939809Y-18370952D01*
X4168976Y-18370952D01*
X4168976Y-18513809D01*
X4170469Y-18521318D01*
X4170842Y-18528967D01*
X4194651Y-18624205D01*
X4197576Y-18630397D01*
X4199384Y-18636998D01*
X4223194Y-18684617D01*
X4229334Y-18692528D01*
X4234901Y-18700860D01*
X4282520Y-18748479D01*
X4302793Y-18762024D01*
X4302796Y-18762027D01*
X4326714Y-18766785D01*
X4469571Y-18766785D01*
X4493489Y-18762027D01*
X4493491Y-18762024D01*
X4513765Y-18748479D01*
X4561384Y-18700860D01*
X4566950Y-18692528D01*
X4573091Y-18684617D01*
X4596902Y-18636998D01*
X4598710Y-18630393D01*
X4601634Y-18624205D01*
X4625443Y-18528967D01*
X4625815Y-18521318D01*
X4627309Y-18513809D01*
X4627309Y-18370952D01*
X4625815Y-18363442D01*
X4625443Y-18355794D01*
X4601634Y-18260556D01*
X4598710Y-18254367D01*
X4596902Y-18247763D01*
X4573091Y-18200144D01*
X4566950Y-18192232D01*
X4561384Y-18183901D01*
X4513765Y-18136282D01*
X4493491Y-18122736D01*
X4493489Y-18122734D01*
X4469571Y-18117976D01*
X4326714Y-18117976D01*
X4302796Y-18122734D01*
X4302793Y-18122736D01*
X4282520Y-18136282D01*
X4234901Y-18183901D01*
X4229334Y-18192232D01*
X4223194Y-18200144D01*
X4199384Y-18247763D01*
X4197576Y-18254363D01*
X4194651Y-18260556D01*
X4170842Y-18355794D01*
X4170469Y-18363442D01*
X4168976Y-18370952D01*
X3939809Y-18370952D01*
X3939809Y-17466190D01*
X4168976Y-17466190D01*
X4168976Y-17561428D01*
X4170469Y-17568937D01*
X4170842Y-17576586D01*
X4194651Y-17671824D01*
X4197576Y-17678016D01*
X4199384Y-17684617D01*
X4205290Y-17696429D01*
X4173734Y-17727986D01*
X4173734Y-17775822D01*
X4207558Y-17809646D01*
X4231476Y-17814404D01*
X4564809Y-17814404D01*
X4588727Y-17809646D01*
X4622551Y-17775822D01*
X4622551Y-17727986D01*
X4588727Y-17694162D01*
X4564809Y-17689404D01*
X4352602Y-17689404D01*
X4330461Y-17667263D01*
X4314255Y-17634853D01*
X4293976Y-17553734D01*
X4293976Y-17466190D01*
X4289218Y-17442272D01*
X4255394Y-17408448D01*
X4207558Y-17408448D01*
X4173734Y-17442272D01*
X4168976Y-17466190D01*
X3939809Y-17466190D01*
X3939809Y-17108938D01*
X4007067Y-17108938D01*
X4007067Y-17156774D01*
X4040891Y-17190598D01*
X4064809Y-17195356D01*
X4168976Y-17195356D01*
X4168976Y-17275713D01*
X4173734Y-17299631D01*
X4207558Y-17333455D01*
X4255394Y-17333455D01*
X4289218Y-17299631D01*
X4293976Y-17275713D01*
X4293976Y-17195356D01*
X4493380Y-17195356D01*
X4517292Y-17190598D01*
X4517297Y-17190599D01*
X4537574Y-17177051D01*
X4585194Y-17129432D01*
X4588955Y-17123801D01*
X4591217Y-17122445D01*
X4594486Y-17115523D01*
X4598742Y-17109155D01*
X4598742Y-17106516D01*
X4601634Y-17100395D01*
X4625443Y-17005157D01*
X4625815Y-16997508D01*
X4627309Y-16989999D01*
X4627309Y-16894761D01*
X4622551Y-16870843D01*
X4588727Y-16837019D01*
X4540891Y-16837019D01*
X4507067Y-16870843D01*
X4502309Y-16894761D01*
X4502309Y-16982305D01*
X4484564Y-17053282D01*
X4467491Y-17070356D01*
X4293976Y-17070356D01*
X4293976Y-16894761D01*
X4289218Y-16870843D01*
X4255394Y-16837019D01*
X4207558Y-16837019D01*
X4173734Y-16870843D01*
X4168976Y-16894761D01*
X4168976Y-17070356D01*
X4064809Y-17070356D01*
X4040891Y-17075114D01*
X4007067Y-17108938D01*
X3939809Y-17108938D01*
X3939809Y-15466189D01*
X4002309Y-15466189D01*
X4002309Y-15704284D01*
X4003802Y-15711793D01*
X4004175Y-15719443D01*
X4027985Y-15814681D01*
X4030909Y-15820870D01*
X4032717Y-15827472D01*
X4056526Y-15875091D01*
X4071478Y-15894356D01*
X4116857Y-15909483D01*
X4159643Y-15888091D01*
X4174770Y-15842711D01*
X4168330Y-15819190D01*
X4147589Y-15777708D01*
X4127309Y-15696588D01*
X4127309Y-15473884D01*
X4147589Y-15392764D01*
X4163795Y-15360353D01*
X4185935Y-15338213D01*
X4188743Y-15338213D01*
X4230615Y-15366127D01*
X4508907Y-15922711D01*
X4523859Y-15941976D01*
X4533618Y-15945229D01*
X4540891Y-15952502D01*
X4555436Y-15952502D01*
X4569239Y-15957103D01*
X4578441Y-15952502D01*
X4588727Y-15952502D01*
X4599013Y-15942216D01*
X4612025Y-15935710D01*
X4615278Y-15925950D01*
X4622551Y-15918678D01*
X4627309Y-15894760D01*
X4627309Y-15275713D01*
X4622551Y-15251795D01*
X4588727Y-15217971D01*
X4540891Y-15217971D01*
X4507067Y-15251795D01*
X4502309Y-15275713D01*
X4502309Y-15630005D01*
X4334997Y-15295381D01*
X4331486Y-15290858D01*
X4331026Y-15288555D01*
X4325142Y-15282683D01*
X4320045Y-15276116D01*
X4317816Y-15275373D01*
X4313764Y-15271329D01*
X4242335Y-15223710D01*
X4233796Y-15220183D01*
X4231584Y-15217971D01*
X4225515Y-15216763D01*
X4219794Y-15214401D01*
X4216724Y-15215014D01*
X4207666Y-15213213D01*
X4160047Y-15213213D01*
X4136129Y-15217971D01*
X4136126Y-15217973D01*
X4115853Y-15231519D01*
X4068234Y-15279138D01*
X4062669Y-15287466D01*
X4056526Y-15295382D01*
X4032717Y-15343001D01*
X4030909Y-15349602D01*
X4027985Y-15355792D01*
X4004175Y-15451030D01*
X4003802Y-15458679D01*
X4002309Y-15466189D01*
X3939809Y-15466189D01*
X3939809Y-15150713D01*
X4689809Y-15150713D01*
X4689809Y-19781666D01*
G37*
G36*
X5448081Y-11439907D02*
G01*
X5479299Y-11739658D01*
X5331745Y-11739658D01*
X5356637Y-11487009D01*
X5413719Y-11037887D01*
X5448081Y-11439907D01*
G37*
G36*
X6948116Y-12498370D02*
G01*
X4697872Y-12498370D01*
X4697872Y-12331703D01*
X4864539Y-12331703D01*
X5311321Y-12331703D01*
X5336874Y-12032749D01*
X5491663Y-12032749D01*
X5513096Y-12331703D01*
X5954748Y-12331703D01*
X5757553Y-11006929D01*
X5838702Y-11006929D01*
X6093875Y-11006929D01*
X6093875Y-12331703D01*
X6525269Y-12331703D01*
X6525269Y-11006929D01*
X6781449Y-11006929D01*
X6781449Y-10672805D01*
X5838702Y-10672805D01*
X5838702Y-11006929D01*
X5757553Y-11006929D01*
X5707818Y-10672805D01*
X5083808Y-10672805D01*
X4942794Y-11739658D01*
X4864539Y-12331703D01*
X4697872Y-12331703D01*
X4697872Y-10506138D01*
X6948116Y-10506138D01*
X6948116Y-12498370D01*
G37*
G36*
X8227667Y-38043246D02*
G01*
X8257682Y-38073261D01*
X8273886Y-38105669D01*
X8294166Y-38186788D01*
X8294166Y-38242829D01*
X8273886Y-38323948D01*
X8257683Y-38356355D01*
X8227665Y-38386373D01*
X8179857Y-38402309D01*
X8133452Y-38402309D01*
X8133452Y-38027309D01*
X8179856Y-38027309D01*
X8227667Y-38043246D01*
G37*
G36*
X8481666Y-38589809D02*
G01*
X6898333Y-38589809D01*
X6898333Y-38179095D01*
X6960833Y-38179095D01*
X6960833Y-38250523D01*
X6962326Y-38258032D01*
X6962699Y-38265681D01*
X6986508Y-38360919D01*
X6989433Y-38367111D01*
X6991241Y-38373712D01*
X7015051Y-38421331D01*
X7021184Y-38429233D01*
X7026757Y-38437574D01*
X7074376Y-38485194D01*
X7076979Y-38486933D01*
X7077621Y-38488216D01*
X7086325Y-38493177D01*
X7094653Y-38498742D01*
X7096086Y-38498742D01*
X7098807Y-38500293D01*
X7170235Y-38524102D01*
X7180178Y-38525355D01*
X7189999Y-38527309D01*
X7237618Y-38527309D01*
X7247444Y-38525354D01*
X7257382Y-38524102D01*
X7328811Y-38500293D01*
X7331531Y-38498742D01*
X7332965Y-38498742D01*
X7341288Y-38493180D01*
X7349997Y-38488216D01*
X7350638Y-38486932D01*
X7353242Y-38485193D01*
X7377051Y-38461383D01*
X7390599Y-38441106D01*
X7390598Y-38441102D01*
X7395356Y-38417190D01*
X7395356Y-38250523D01*
X7390598Y-38226605D01*
X7356774Y-38192781D01*
X7332856Y-38188023D01*
X7237618Y-38188023D01*
X7213700Y-38192781D01*
X7179876Y-38226605D01*
X7179876Y-38274441D01*
X7213700Y-38308265D01*
X7237618Y-38313023D01*
X7270356Y-38313023D01*
X7270356Y-38388016D01*
X7227475Y-38402309D01*
X7200142Y-38402309D01*
X7152333Y-38386373D01*
X7122317Y-38356356D01*
X7106112Y-38323948D01*
X7085833Y-38242829D01*
X7085833Y-38186788D01*
X7106112Y-38105669D01*
X7122318Y-38073259D01*
X7152331Y-38043246D01*
X7200143Y-38027309D01*
X7246674Y-38027309D01*
X7281096Y-38044521D01*
X7304616Y-38050961D01*
X7349996Y-38035835D01*
X7371390Y-37993050D01*
X7361976Y-37964809D01*
X7484642Y-37964809D01*
X7484642Y-38464809D01*
X7489400Y-38488727D01*
X7523224Y-38522551D01*
X7571060Y-38522551D01*
X7604884Y-38488727D01*
X7609642Y-38464809D01*
X7609642Y-38200156D01*
X7778591Y-38495817D01*
X7794588Y-38514223D01*
X7802868Y-38516481D01*
X7808938Y-38522551D01*
X7825124Y-38522551D01*
X7840737Y-38526809D01*
X7848189Y-38522551D01*
X7856774Y-38522551D01*
X7868221Y-38511103D01*
X7882270Y-38503076D01*
X7884528Y-38494796D01*
X7890598Y-38488727D01*
X7895356Y-38464809D01*
X7895356Y-37964809D01*
X8008452Y-37964809D01*
X8008452Y-38464809D01*
X8013210Y-38488727D01*
X8047034Y-38522551D01*
X8070952Y-38527309D01*
X8190000Y-38527309D01*
X8199825Y-38525354D01*
X8209764Y-38524102D01*
X8281192Y-38500293D01*
X8283912Y-38498742D01*
X8285346Y-38498742D01*
X8293679Y-38493173D01*
X8302378Y-38488215D01*
X8303018Y-38486934D01*
X8305623Y-38485194D01*
X8353242Y-38437574D01*
X8358811Y-38429237D01*
X8364948Y-38421331D01*
X8388759Y-38373712D01*
X8390567Y-38367107D01*
X8393491Y-38360919D01*
X8417300Y-38265681D01*
X8417672Y-38258032D01*
X8419166Y-38250523D01*
X8419166Y-38179095D01*
X8417672Y-38171585D01*
X8417300Y-38163937D01*
X8393491Y-38068699D01*
X8390567Y-38062510D01*
X8388759Y-38055906D01*
X8364948Y-38008287D01*
X8358807Y-38000375D01*
X8353241Y-37992044D01*
X8305622Y-37944425D01*
X8303020Y-37942686D01*
X8302379Y-37941404D01*
X8293667Y-37936437D01*
X8285345Y-37930877D01*
X8283914Y-37930877D01*
X8281193Y-37929326D01*
X8209765Y-37905516D01*
X8199823Y-37904263D01*
X8190000Y-37902309D01*
X8070952Y-37902309D01*
X8047034Y-37907067D01*
X8013210Y-37940891D01*
X8008452Y-37964809D01*
X7895356Y-37964809D01*
X7890598Y-37940891D01*
X7856774Y-37907067D01*
X7808938Y-37907067D01*
X7775114Y-37940891D01*
X7770356Y-37964809D01*
X7770356Y-38229461D01*
X7601407Y-37933800D01*
X7585409Y-37915394D01*
X7577128Y-37913135D01*
X7571060Y-37907067D01*
X7554877Y-37907067D01*
X7539261Y-37902808D01*
X7531808Y-37907067D01*
X7523224Y-37907067D01*
X7511778Y-37918512D01*
X7497727Y-37926542D01*
X7495468Y-37934822D01*
X7489400Y-37940891D01*
X7484642Y-37964809D01*
X7361976Y-37964809D01*
X7356263Y-37947670D01*
X7336998Y-37932718D01*
X7289379Y-37908908D01*
X7286360Y-37908081D01*
X7285346Y-37907067D01*
X7275515Y-37905111D01*
X7265859Y-37902467D01*
X7264499Y-37902920D01*
X7261428Y-37902309D01*
X7189999Y-37902309D01*
X7180174Y-37904263D01*
X7170234Y-37905516D01*
X7098806Y-37929326D01*
X7096085Y-37930877D01*
X7094654Y-37930877D01*
X7086331Y-37936437D01*
X7077620Y-37941404D01*
X7076978Y-37942686D01*
X7074377Y-37944425D01*
X7026758Y-37992044D01*
X7021191Y-38000375D01*
X7015051Y-38008287D01*
X6991241Y-38055906D01*
X6989433Y-38062506D01*
X6986508Y-38068699D01*
X6962699Y-38163937D01*
X6962326Y-38171585D01*
X6960833Y-38179095D01*
X6898333Y-38179095D01*
X6898333Y-37839809D01*
X8481666Y-37839809D01*
X8481666Y-38589809D01*
G37*
X17715190Y-4228096D02*
X17215190Y-4394762D01*
X17215190Y-4394762D02*
X17715190Y-4561429D01*
X17215190Y-4728095D02*
X17548523Y-4728095D01*
X17715190Y-4728095D02*
X17691380Y-4704286D01*
X17691380Y-4704286D02*
X17667571Y-4728095D01*
X17667571Y-4728095D02*
X17691380Y-4751905D01*
X17691380Y-4751905D02*
X17715190Y-4728095D01*
X17715190Y-4728095D02*
X17667571Y-4728095D01*
X17548523Y-4966190D02*
X17215190Y-4966190D01*
X17500904Y-4966190D02*
X17524714Y-4990000D01*
X17524714Y-4990000D02*
X17548523Y-5037619D01*
X17548523Y-5037619D02*
X17548523Y-5109047D01*
X17548523Y-5109047D02*
X17524714Y-5156666D01*
X17524714Y-5156666D02*
X17477095Y-5180476D01*
X17477095Y-5180476D02*
X17215190Y-5180476D01*
G36*
X4227728Y-36669878D02*
G01*
X4243933Y-36702288D01*
X4264214Y-36783409D01*
X4264214Y-37094166D01*
X4127309Y-37094166D01*
X4127309Y-36783409D01*
X4147589Y-36702289D01*
X4163795Y-36669878D01*
X4185935Y-36647738D01*
X4205588Y-36647738D01*
X4227728Y-36669878D01*
G37*
G36*
X4465825Y-35765118D02*
G01*
X4482029Y-35797526D01*
X4502309Y-35878645D01*
X4502309Y-36006115D01*
X4482029Y-36087234D01*
X4465825Y-36119642D01*
X4443683Y-36141785D01*
X4352602Y-36141785D01*
X4330461Y-36119644D01*
X4314255Y-36087234D01*
X4293976Y-36006115D01*
X4293976Y-35878645D01*
X4314255Y-35797526D01*
X4330461Y-35765116D01*
X4352602Y-35742976D01*
X4443683Y-35742976D01*
X4465825Y-35765118D01*
G37*
G36*
X4432550Y-32874699D02*
G01*
X4465825Y-32907974D01*
X4482029Y-32940382D01*
X4502309Y-33021501D01*
X4502309Y-33101352D01*
X4482029Y-33182471D01*
X4465825Y-33214879D01*
X4432550Y-33248155D01*
X4359578Y-33284641D01*
X4270040Y-33284641D01*
X4197068Y-33248155D01*
X4163795Y-33214882D01*
X4147589Y-33182470D01*
X4127309Y-33101350D01*
X4127309Y-33021503D01*
X4147589Y-32940383D01*
X4163795Y-32907972D01*
X4197068Y-32874699D01*
X4270040Y-32838213D01*
X4359578Y-32838213D01*
X4432550Y-32874699D01*
G37*
G36*
X4689809Y-37281666D02*
G01*
X3939809Y-37281666D01*
X3939809Y-36775714D01*
X4002309Y-36775714D01*
X4002309Y-37156666D01*
X4007067Y-37180584D01*
X4040891Y-37214408D01*
X4064809Y-37219166D01*
X4564809Y-37219166D01*
X4588727Y-37214408D01*
X4622551Y-37180584D01*
X4622551Y-37132748D01*
X4588727Y-37098924D01*
X4564809Y-37094166D01*
X4389214Y-37094166D01*
X4389214Y-36775714D01*
X4387720Y-36768204D01*
X4387348Y-36760555D01*
X4363538Y-36665317D01*
X4360613Y-36659126D01*
X4358806Y-36652525D01*
X4334997Y-36604907D01*
X4328852Y-36596989D01*
X4323289Y-36588663D01*
X4275670Y-36541044D01*
X4255396Y-36527498D01*
X4255394Y-36527496D01*
X4231476Y-36522738D01*
X4160047Y-36522738D01*
X4136129Y-36527496D01*
X4136126Y-36527498D01*
X4115853Y-36541044D01*
X4068234Y-36588663D01*
X4062669Y-36596991D01*
X4056526Y-36604907D01*
X4032717Y-36652526D01*
X4030909Y-36659127D01*
X4027985Y-36665317D01*
X4004175Y-36760555D01*
X4003802Y-36768204D01*
X4002309Y-36775714D01*
X3939809Y-36775714D01*
X3939809Y-35870952D01*
X4168976Y-35870952D01*
X4168976Y-36013809D01*
X4170469Y-36021318D01*
X4170842Y-36028967D01*
X4194651Y-36124205D01*
X4197576Y-36130397D01*
X4199384Y-36136998D01*
X4223194Y-36184617D01*
X4229334Y-36192528D01*
X4234901Y-36200860D01*
X4282520Y-36248479D01*
X4302793Y-36262024D01*
X4302796Y-36262027D01*
X4326714Y-36266785D01*
X4469571Y-36266785D01*
X4493489Y-36262027D01*
X4493491Y-36262024D01*
X4513765Y-36248479D01*
X4561384Y-36200860D01*
X4566950Y-36192528D01*
X4573091Y-36184617D01*
X4596902Y-36136998D01*
X4598710Y-36130393D01*
X4601634Y-36124205D01*
X4625443Y-36028967D01*
X4625815Y-36021318D01*
X4627309Y-36013809D01*
X4627309Y-35870952D01*
X4625815Y-35863442D01*
X4625443Y-35855794D01*
X4601634Y-35760556D01*
X4598710Y-35754367D01*
X4596902Y-35747763D01*
X4573091Y-35700144D01*
X4566950Y-35692232D01*
X4561384Y-35683901D01*
X4513765Y-35636282D01*
X4493491Y-35622736D01*
X4493489Y-35622734D01*
X4469571Y-35617976D01*
X4326714Y-35617976D01*
X4302796Y-35622734D01*
X4302793Y-35622736D01*
X4282520Y-35636282D01*
X4234901Y-35683901D01*
X4229334Y-35692232D01*
X4223194Y-35700144D01*
X4199384Y-35747763D01*
X4197576Y-35754363D01*
X4194651Y-35760556D01*
X4170842Y-35855794D01*
X4170469Y-35863442D01*
X4168976Y-35870952D01*
X3939809Y-35870952D01*
X3939809Y-34966190D01*
X4168976Y-34966190D01*
X4168976Y-35061428D01*
X4170469Y-35068937D01*
X4170842Y-35076586D01*
X4194651Y-35171824D01*
X4197576Y-35178016D01*
X4199384Y-35184617D01*
X4205290Y-35196429D01*
X4173734Y-35227986D01*
X4173734Y-35275822D01*
X4207558Y-35309646D01*
X4231476Y-35314404D01*
X4564809Y-35314404D01*
X4588727Y-35309646D01*
X4622551Y-35275822D01*
X4622551Y-35227986D01*
X4588727Y-35194162D01*
X4564809Y-35189404D01*
X4352602Y-35189404D01*
X4330461Y-35167263D01*
X4314255Y-35134853D01*
X4293976Y-35053734D01*
X4293976Y-34966190D01*
X4289218Y-34942272D01*
X4255394Y-34908448D01*
X4207558Y-34908448D01*
X4173734Y-34942272D01*
X4168976Y-34966190D01*
X3939809Y-34966190D01*
X3939809Y-34608938D01*
X4007067Y-34608938D01*
X4007067Y-34656774D01*
X4040891Y-34690598D01*
X4064809Y-34695356D01*
X4168976Y-34695356D01*
X4168976Y-34775713D01*
X4173734Y-34799631D01*
X4207558Y-34833455D01*
X4255394Y-34833455D01*
X4289218Y-34799631D01*
X4293976Y-34775713D01*
X4293976Y-34695356D01*
X4493380Y-34695356D01*
X4517292Y-34690598D01*
X4517297Y-34690599D01*
X4537574Y-34677051D01*
X4585194Y-34629432D01*
X4588955Y-34623801D01*
X4591217Y-34622445D01*
X4594486Y-34615523D01*
X4598742Y-34609155D01*
X4598742Y-34606516D01*
X4601634Y-34600395D01*
X4625443Y-34505157D01*
X4625815Y-34497508D01*
X4627309Y-34489999D01*
X4627309Y-34394761D01*
X4622551Y-34370843D01*
X4588727Y-34337019D01*
X4540891Y-34337019D01*
X4507067Y-34370843D01*
X4502309Y-34394761D01*
X4502309Y-34482305D01*
X4484564Y-34553282D01*
X4467491Y-34570356D01*
X4293976Y-34570356D01*
X4293976Y-34394761D01*
X4289218Y-34370843D01*
X4255394Y-34337019D01*
X4207558Y-34337019D01*
X4173734Y-34370843D01*
X4168976Y-34394761D01*
X4168976Y-34570356D01*
X4064809Y-34570356D01*
X4040891Y-34575114D01*
X4007067Y-34608938D01*
X3939809Y-34608938D01*
X3939809Y-33013808D01*
X4002309Y-33013808D01*
X4002309Y-33109046D01*
X4003802Y-33116555D01*
X4004175Y-33124205D01*
X4027985Y-33219443D01*
X4030909Y-33225632D01*
X4032717Y-33232234D01*
X4056526Y-33279853D01*
X4062669Y-33287768D01*
X4068234Y-33296097D01*
X4115853Y-33343716D01*
X4124174Y-33349276D01*
X4132096Y-33355424D01*
X4227334Y-33403043D01*
X4230353Y-33403869D01*
X4231367Y-33404883D01*
X4241194Y-33406837D01*
X4250855Y-33409483D01*
X4252213Y-33409030D01*
X4255285Y-33409641D01*
X4374333Y-33409641D01*
X4377404Y-33409030D01*
X4378763Y-33409483D01*
X4388423Y-33406837D01*
X4398251Y-33404883D01*
X4399264Y-33403869D01*
X4402284Y-33403043D01*
X4497522Y-33355424D01*
X4505443Y-33349276D01*
X4513765Y-33343716D01*
X4561384Y-33296097D01*
X4566950Y-33287765D01*
X4573091Y-33279854D01*
X4596902Y-33232235D01*
X4598710Y-33225630D01*
X4601634Y-33219442D01*
X4625443Y-33124204D01*
X4625815Y-33116555D01*
X4627309Y-33109046D01*
X4627309Y-33013808D01*
X4625815Y-33006298D01*
X4625443Y-32998650D01*
X4601634Y-32903412D01*
X4598710Y-32897223D01*
X4596902Y-32890619D01*
X4573091Y-32843000D01*
X4566950Y-32835088D01*
X4561384Y-32826757D01*
X4513765Y-32779138D01*
X4505443Y-32773577D01*
X4497522Y-32767430D01*
X4402284Y-32719811D01*
X4399264Y-32718984D01*
X4398251Y-32717971D01*
X4388423Y-32716016D01*
X4378763Y-32713371D01*
X4377404Y-32713823D01*
X4374333Y-32713213D01*
X4255285Y-32713213D01*
X4252213Y-32713823D01*
X4250855Y-32713371D01*
X4241194Y-32716016D01*
X4231367Y-32717971D01*
X4230353Y-32718984D01*
X4227334Y-32719811D01*
X4132096Y-32767430D01*
X4124174Y-32773577D01*
X4115853Y-32779138D01*
X4068234Y-32826757D01*
X4062669Y-32835085D01*
X4056526Y-32843001D01*
X4032717Y-32890620D01*
X4030909Y-32897221D01*
X4027985Y-32903411D01*
X4004175Y-32998649D01*
X4003802Y-33006298D01*
X4002309Y-33013808D01*
X3939809Y-33013808D01*
X3939809Y-32650713D01*
X4689809Y-32650713D01*
X4689809Y-37281666D01*
G37*
X3688619Y-2370952D02*
X3664809Y-2418571D01*
X3664809Y-2418571D02*
X3664809Y-2490000D01*
X3664809Y-2490000D02*
X3688619Y-2561428D01*
X3688619Y-2561428D02*
X3736238Y-2609047D01*
X3736238Y-2609047D02*
X3783857Y-2632857D01*
X3783857Y-2632857D02*
X3879095Y-2656666D01*
X3879095Y-2656666D02*
X3950523Y-2656666D01*
X3950523Y-2656666D02*
X4045761Y-2632857D01*
X4045761Y-2632857D02*
X4093380Y-2609047D01*
X4093380Y-2609047D02*
X4141000Y-2561428D01*
X4141000Y-2561428D02*
X4164809Y-2490000D01*
X4164809Y-2490000D02*
X4164809Y-2442381D01*
X4164809Y-2442381D02*
X4141000Y-2370952D01*
X4141000Y-2370952D02*
X4117190Y-2347143D01*
X4117190Y-2347143D02*
X3950523Y-2347143D01*
X3950523Y-2347143D02*
X3950523Y-2442381D01*
X4164809Y-2132857D02*
X3664809Y-2132857D01*
X3664809Y-2132857D02*
X4164809Y-1847143D01*
X4164809Y-1847143D02*
X3664809Y-1847143D01*
X4164809Y-1609047D02*
X3664809Y-1609047D01*
X3664809Y-1609047D02*
X3664809Y-1489999D01*
X3664809Y-1489999D02*
X3688619Y-1418571D01*
X3688619Y-1418571D02*
X3736238Y-1370952D01*
X3736238Y-1370952D02*
X3783857Y-1347142D01*
X3783857Y-1347142D02*
X3879095Y-1323333D01*
X3879095Y-1323333D02*
X3950523Y-1323333D01*
X3950523Y-1323333D02*
X4045761Y-1347142D01*
X4045761Y-1347142D02*
X4093380Y-1370952D01*
X4093380Y-1370952D02*
X4141000Y-1418571D01*
X4141000Y-1418571D02*
X4164809Y-1489999D01*
X4164809Y-1489999D02*
X4164809Y-1609047D01*
D11*
X18059673Y-24761980D02*
X18107292Y-24809600D01*
X18107292Y-24809600D02*
X18059673Y-24857219D01*
X18059673Y-24857219D02*
X18012054Y-24809600D01*
X18012054Y-24809600D02*
X18059673Y-24761980D01*
X18059673Y-24761980D02*
X18059673Y-24857219D01*
D13*
G36*
X13385596Y-8425993D02*
G01*
X13392708Y-8433105D01*
X13401428Y-8450543D01*
X13401428Y-8526203D01*
X13306785Y-8526203D01*
X13306785Y-8450545D01*
X13315504Y-8433107D01*
X13322617Y-8425993D01*
X13340055Y-8417274D01*
X13368158Y-8417274D01*
X13385596Y-8425993D01*
G37*
G36*
X13639524Y-8622036D02*
G01*
X13210952Y-8622036D01*
X13210952Y-8443167D01*
X13244285Y-8443167D01*
X13244285Y-8557453D01*
X13246664Y-8569412D01*
X13263576Y-8586324D01*
X13275535Y-8588703D01*
X13575535Y-8588703D01*
X13587494Y-8586324D01*
X13604406Y-8569412D01*
X13604406Y-8545494D01*
X13587494Y-8528582D01*
X13575535Y-8526203D01*
X13463928Y-8526203D01*
X13463928Y-8502294D01*
X13593456Y-8411625D01*
X13601888Y-8402818D01*
X13606045Y-8379265D01*
X13592329Y-8359671D01*
X13568776Y-8355514D01*
X13557614Y-8360423D01*
X13460303Y-8428540D01*
X13446343Y-8400620D01*
X13443271Y-8396663D01*
X13440490Y-8392500D01*
X13426205Y-8378214D01*
X13422038Y-8375429D01*
X13418082Y-8372359D01*
X13389510Y-8358073D01*
X13388000Y-8357659D01*
X13387494Y-8357153D01*
X13382579Y-8356175D01*
X13377750Y-8354853D01*
X13377070Y-8355079D01*
X13375535Y-8354774D01*
X13332678Y-8354774D01*
X13331142Y-8355079D01*
X13330463Y-8354853D01*
X13325633Y-8356175D01*
X13320719Y-8357153D01*
X13320212Y-8357659D01*
X13318703Y-8358073D01*
X13290131Y-8372359D01*
X13286173Y-8375430D01*
X13282010Y-8378213D01*
X13267724Y-8392499D01*
X13264940Y-8396665D01*
X13261871Y-8400620D01*
X13247584Y-8429191D01*
X13247170Y-8430701D01*
X13246664Y-8431208D01*
X13245686Y-8436121D01*
X13244364Y-8440952D01*
X13244590Y-8441631D01*
X13244285Y-8443167D01*
X13210952Y-8443167D01*
X13210952Y-8079960D01*
X13244879Y-8079960D01*
X13249570Y-8103412D01*
X13258201Y-8112026D01*
X13369198Y-8186024D01*
X13258201Y-8260022D01*
X13249570Y-8268636D01*
X13244879Y-8292088D01*
X13258147Y-8311989D01*
X13281599Y-8316680D01*
X13292869Y-8312026D01*
X13425535Y-8223582D01*
X13558201Y-8312026D01*
X13569471Y-8316680D01*
X13592923Y-8311989D01*
X13606191Y-8292088D01*
X13601500Y-8268635D01*
X13592869Y-8260022D01*
X13481872Y-8186024D01*
X13592869Y-8112026D01*
X13601500Y-8103413D01*
X13606191Y-8079960D01*
X13592923Y-8060059D01*
X13569471Y-8055368D01*
X13558201Y-8060022D01*
X13425535Y-8148466D01*
X13292869Y-8060022D01*
X13281599Y-8055368D01*
X13258147Y-8060059D01*
X13244879Y-8079960D01*
X13210952Y-8079960D01*
X13210952Y-8022035D01*
X13639524Y-8022035D01*
X13639524Y-8622036D01*
G37*
X14595684Y-45659586D02*
X14595684Y-45231015D01*
X14952826Y-45559586D02*
X14952826Y-45259586D01*
X14952826Y-45259586D02*
X15143302Y-45259586D01*
X15143302Y-45259586D02*
X15190921Y-45273872D01*
X15190921Y-45273872D02*
X15214731Y-45288158D01*
X15214731Y-45288158D02*
X15238540Y-45316729D01*
X15238540Y-45316729D02*
X15238540Y-45359586D01*
X15238540Y-45359586D02*
X15214731Y-45388158D01*
X15214731Y-45388158D02*
X15190921Y-45402443D01*
X15190921Y-45402443D02*
X15143302Y-45416729D01*
X15143302Y-45416729D02*
X14952826Y-45416729D01*
X15429017Y-45545301D02*
X15500445Y-45559586D01*
X15500445Y-45559586D02*
X15619493Y-45559586D01*
X15619493Y-45559586D02*
X15667112Y-45545301D01*
X15667112Y-45545301D02*
X15690921Y-45531015D01*
X15690921Y-45531015D02*
X15714731Y-45502443D01*
X15714731Y-45502443D02*
X15714731Y-45473872D01*
X15714731Y-45473872D02*
X15690921Y-45445301D01*
X15690921Y-45445301D02*
X15667112Y-45431015D01*
X15667112Y-45431015D02*
X15619493Y-45416729D01*
X15619493Y-45416729D02*
X15524255Y-45402443D01*
X15524255Y-45402443D02*
X15476636Y-45388158D01*
X15476636Y-45388158D02*
X15452826Y-45373872D01*
X15452826Y-45373872D02*
X15429017Y-45345301D01*
X15429017Y-45345301D02*
X15429017Y-45316729D01*
X15429017Y-45316729D02*
X15452826Y-45288158D01*
X15452826Y-45288158D02*
X15476636Y-45273872D01*
X15476636Y-45273872D02*
X15524255Y-45259586D01*
X15524255Y-45259586D02*
X15643302Y-45259586D01*
X15643302Y-45259586D02*
X15714731Y-45273872D01*
X15929016Y-45402443D02*
X16095683Y-45402443D01*
X16167111Y-45559586D02*
X15929016Y-45559586D01*
X15929016Y-45559586D02*
X15929016Y-45259586D01*
X15929016Y-45259586D02*
X16167111Y-45259586D01*
X16381397Y-45559586D02*
X16381397Y-45259586D01*
X16381397Y-45259586D02*
X16667111Y-45559586D01*
X16667111Y-45559586D02*
X16667111Y-45259586D01*
D14*
G36*
X17049539Y-16360356D02*
G01*
X17065743Y-16392764D01*
X17086023Y-16473883D01*
X17086023Y-16601353D01*
X17065743Y-16682472D01*
X17049539Y-16714880D01*
X17027397Y-16737023D01*
X16936316Y-16737023D01*
X16914176Y-16714883D01*
X16897970Y-16682471D01*
X16877690Y-16601351D01*
X16877690Y-16473885D01*
X16897970Y-16392765D01*
X16914176Y-16360354D01*
X16936316Y-16338214D01*
X17027397Y-16338214D01*
X17049539Y-16360356D01*
G37*
G36*
X17252690Y-15696589D02*
G01*
X17232409Y-15777710D01*
X17216204Y-15810120D01*
X17194064Y-15832261D01*
X17174411Y-15832261D01*
X17152271Y-15810121D01*
X17136065Y-15777709D01*
X17115785Y-15696589D01*
X17115785Y-15385833D01*
X17252690Y-15385833D01*
X17252690Y-15696589D01*
G37*
G36*
X17440190Y-19829286D02*
G01*
X16690190Y-19829286D01*
X16690190Y-19228096D01*
X16752690Y-19228096D01*
X16752690Y-19513810D01*
X16754183Y-19521319D01*
X16754556Y-19528969D01*
X16778366Y-19624207D01*
X16781290Y-19630396D01*
X16783098Y-19636998D01*
X16806907Y-19684617D01*
X16813050Y-19692532D01*
X16818615Y-19700861D01*
X16866234Y-19748480D01*
X16886507Y-19762025D01*
X16886510Y-19762028D01*
X16910428Y-19766786D01*
X17029476Y-19766786D01*
X17053394Y-19762028D01*
X17053396Y-19762025D01*
X17073670Y-19748480D01*
X17121289Y-19700861D01*
X17126852Y-19692534D01*
X17132997Y-19684617D01*
X17156806Y-19636999D01*
X17158613Y-19630397D01*
X17161538Y-19624207D01*
X17172466Y-19580493D01*
X17260925Y-19735295D01*
X17276923Y-19753701D01*
X17285203Y-19755959D01*
X17291272Y-19762028D01*
X17307456Y-19762028D01*
X17323072Y-19766287D01*
X17330525Y-19762028D01*
X17339108Y-19762028D01*
X17350551Y-19750584D01*
X17364605Y-19742554D01*
X17366863Y-19734272D01*
X17372932Y-19728204D01*
X17377690Y-19704286D01*
X17377690Y-19085239D01*
X17372932Y-19061321D01*
X17339108Y-19027497D01*
X17291272Y-19027497D01*
X17257448Y-19061321D01*
X17252690Y-19085239D01*
X17252690Y-19468938D01*
X17178979Y-19339944D01*
X17162981Y-19321538D01*
X17154700Y-19319279D01*
X17148632Y-19313211D01*
X17132449Y-19313211D01*
X17116833Y-19308952D01*
X17109380Y-19313211D01*
X17100796Y-19313211D01*
X17089350Y-19324656D01*
X17075299Y-19332686D01*
X17073040Y-19340966D01*
X17066972Y-19347035D01*
X17062214Y-19370953D01*
X17062214Y-19506114D01*
X17041933Y-19587235D01*
X17025728Y-19619645D01*
X17003588Y-19641786D01*
X16936316Y-19641786D01*
X16914176Y-19619646D01*
X16897970Y-19587234D01*
X16877690Y-19506114D01*
X16877690Y-19235791D01*
X16897970Y-19154671D01*
X16918711Y-19113190D01*
X16925151Y-19089669D01*
X16910024Y-19044289D01*
X16867238Y-19022897D01*
X16821859Y-19038024D01*
X16806907Y-19057289D01*
X16783098Y-19104908D01*
X16781290Y-19111509D01*
X16778366Y-19117699D01*
X16754556Y-19212937D01*
X16754183Y-19220586D01*
X16752690Y-19228096D01*
X16690190Y-19228096D01*
X16690190Y-17990000D01*
X16752690Y-17990000D01*
X16752690Y-18085238D01*
X16757448Y-18109156D01*
X16791272Y-18142980D01*
X16839108Y-18142980D01*
X16872932Y-18109156D01*
X16877690Y-18085238D01*
X16877690Y-17997695D01*
X16895435Y-17926714D01*
X16912507Y-17909643D01*
X17086023Y-17909643D01*
X17086023Y-18085238D01*
X17090781Y-18109156D01*
X17124605Y-18142980D01*
X17172441Y-18142980D01*
X17206265Y-18109156D01*
X17211023Y-18085238D01*
X17211023Y-17909643D01*
X17315190Y-17909643D01*
X17339108Y-17904885D01*
X17372932Y-17871061D01*
X17372932Y-17823225D01*
X17339108Y-17789401D01*
X17315190Y-17784643D01*
X17211023Y-17784643D01*
X17211023Y-17704286D01*
X17206265Y-17680368D01*
X17172441Y-17646544D01*
X17124605Y-17646544D01*
X17090781Y-17680368D01*
X17086023Y-17704286D01*
X17086023Y-17784643D01*
X16886619Y-17784643D01*
X16862701Y-17789401D01*
X16862698Y-17789403D01*
X16842425Y-17802949D01*
X16794806Y-17850568D01*
X16791045Y-17856196D01*
X16788783Y-17857554D01*
X16785511Y-17864479D01*
X16781258Y-17870845D01*
X16781258Y-17873481D01*
X16778366Y-17879603D01*
X16754556Y-17974841D01*
X16754183Y-17982490D01*
X16752690Y-17990000D01*
X16690190Y-17990000D01*
X16690190Y-17204177D01*
X16757448Y-17204177D01*
X16757448Y-17252013D01*
X16791272Y-17285837D01*
X16815190Y-17290595D01*
X17027397Y-17290595D01*
X17049539Y-17312737D01*
X17065743Y-17345145D01*
X17086023Y-17426264D01*
X17086023Y-17513809D01*
X17090781Y-17537727D01*
X17124605Y-17571551D01*
X17172441Y-17571551D01*
X17206265Y-17537727D01*
X17211023Y-17513809D01*
X17211023Y-17418571D01*
X17209529Y-17411061D01*
X17209157Y-17403413D01*
X17185348Y-17308175D01*
X17182424Y-17301986D01*
X17180616Y-17295382D01*
X17174709Y-17283568D01*
X17206265Y-17252013D01*
X17206265Y-17204177D01*
X17172441Y-17170353D01*
X17148523Y-17165595D01*
X16815190Y-17165595D01*
X16791272Y-17170353D01*
X16757448Y-17204177D01*
X16690190Y-17204177D01*
X16690190Y-16466190D01*
X16752690Y-16466190D01*
X16752690Y-16609047D01*
X16754183Y-16616556D01*
X16754556Y-16624206D01*
X16778366Y-16719444D01*
X16781290Y-16725633D01*
X16783098Y-16732235D01*
X16806907Y-16779854D01*
X16813050Y-16787769D01*
X16818615Y-16796098D01*
X16866234Y-16843717D01*
X16886507Y-16857262D01*
X16886510Y-16857265D01*
X16910428Y-16862023D01*
X17053285Y-16862023D01*
X17077203Y-16857265D01*
X17077205Y-16857262D01*
X17097479Y-16843717D01*
X17145098Y-16796098D01*
X17150664Y-16787766D01*
X17156805Y-16779855D01*
X17180616Y-16732236D01*
X17182424Y-16725631D01*
X17185348Y-16719443D01*
X17209157Y-16624205D01*
X17209529Y-16616556D01*
X17211023Y-16609047D01*
X17211023Y-16466190D01*
X17209529Y-16458680D01*
X17209157Y-16451032D01*
X17185348Y-16355794D01*
X17182424Y-16349605D01*
X17180616Y-16343001D01*
X17156805Y-16295382D01*
X17150664Y-16287470D01*
X17145098Y-16279139D01*
X17097479Y-16231520D01*
X17077205Y-16217974D01*
X17077203Y-16217972D01*
X17053285Y-16213214D01*
X16910428Y-16213214D01*
X16886510Y-16217972D01*
X16886507Y-16217974D01*
X16866234Y-16231520D01*
X16818615Y-16279139D01*
X16813050Y-16287467D01*
X16806907Y-16295383D01*
X16783098Y-16343002D01*
X16781290Y-16349603D01*
X16778366Y-16355793D01*
X16754556Y-16451031D01*
X16754183Y-16458680D01*
X16752690Y-16466190D01*
X16690190Y-16466190D01*
X16690190Y-15299415D01*
X16757448Y-15299415D01*
X16757448Y-15347251D01*
X16791272Y-15381075D01*
X16815190Y-15385833D01*
X16990785Y-15385833D01*
X16990785Y-15704285D01*
X16992278Y-15711794D01*
X16992651Y-15719444D01*
X17016461Y-15814682D01*
X17019385Y-15820871D01*
X17021193Y-15827473D01*
X17045002Y-15875092D01*
X17051145Y-15883007D01*
X17056710Y-15891336D01*
X17104329Y-15938955D01*
X17124602Y-15952500D01*
X17124605Y-15952503D01*
X17148523Y-15957261D01*
X17219952Y-15957261D01*
X17243870Y-15952503D01*
X17243872Y-15952500D01*
X17264146Y-15938955D01*
X17311765Y-15891336D01*
X17317328Y-15883009D01*
X17323473Y-15875092D01*
X17347282Y-15827474D01*
X17349089Y-15820872D01*
X17352014Y-15814682D01*
X17375824Y-15719444D01*
X17376196Y-15711794D01*
X17377690Y-15704285D01*
X17377690Y-15323333D01*
X17372932Y-15299415D01*
X17339108Y-15265591D01*
X17315190Y-15260833D01*
X16815190Y-15260833D01*
X16791272Y-15265591D01*
X16757448Y-15299415D01*
X16690190Y-15299415D01*
X16690190Y-15198333D01*
X17440190Y-15198333D01*
X17440190Y-19829286D01*
G37*
D11*
X18059673Y-45261980D02*
X18107292Y-45309600D01*
X18107292Y-45309600D02*
X18059673Y-45357219D01*
X18059673Y-45357219D02*
X18012054Y-45309600D01*
X18012054Y-45309600D02*
X18059673Y-45261980D01*
X18059673Y-45261980D02*
X18059673Y-45357219D01*
D15*
%TO.C,R3*%
X11560000Y-11953641D02*
X11560000Y-11646359D01*
X12320000Y-11953641D02*
X12320000Y-11646359D01*
%TO.C,R5*%
X14560000Y-11953641D02*
X14560000Y-11646359D01*
X15320000Y-11953641D02*
X15320000Y-11646359D01*
D16*
%TO.C,D3*%
X11990000Y-8710000D02*
G75*
G02*
X11890000Y-8710000I-50000J0D01*
G01*
X11890000Y-8710000D02*
G75*
G02*
X11990000Y-8710000I50000J0D01*
G01*
%TO.C,D2*%
X14990000Y-8705000D02*
G75*
G02*
X14890000Y-8705000I-50000J0D01*
G01*
X14890000Y-8705000D02*
G75*
G02*
X14990000Y-8705000I50000J0D01*
G01*
D15*
%TO.C,R6*%
X13016155Y-33411629D02*
X12708873Y-33411629D01*
X13016155Y-34171629D02*
X12708873Y-34171629D01*
%TO.C,J1*%
X6060000Y-490000D02*
X6060000Y1410000D01*
X6060000Y-4390000D02*
X6060000Y-2390000D01*
X15460000Y1410000D02*
X6060000Y1410000D01*
X15460000Y-490000D02*
X15460000Y1410000D01*
X15460000Y-4390000D02*
X15460000Y-2390000D01*
%TO.C,C4*%
X6380000Y-16082164D02*
X6380000Y-16297836D01*
X7100000Y-16082164D02*
X7100000Y-16297836D01*
%TO.C,J6*%
X6576471Y-44269551D02*
X6576471Y-46929551D01*
X11716471Y-44269551D02*
X6576471Y-44269551D01*
X11716471Y-44269551D02*
X11716471Y-46929551D01*
X11716471Y-46929551D02*
X6576471Y-46929551D01*
X12986471Y-44269551D02*
X14316471Y-44269551D01*
X14316471Y-44269551D02*
X14316471Y-45599551D01*
D17*
%TO.C,Y1*%
X8040000Y-15770000D02*
X8040000Y-15210000D01*
X9760000Y-13890000D02*
X11320000Y-13890000D01*
X9760000Y-17090000D02*
X11320000Y-17090000D01*
X13040000Y-15770000D02*
X13040000Y-15210000D01*
D11*
X8640000Y-18040000D02*
G75*
G02*
X8440000Y-18040000I-100000J0D01*
G01*
X8440000Y-18040000D02*
G75*
G02*
X8640000Y-18040000I100000J0D01*
G01*
D15*
%TO.C,R4*%
X13060000Y-11953641D02*
X13060000Y-11646359D01*
X13820000Y-11953641D02*
X13820000Y-11646359D01*
D16*
%TO.C,D1*%
X13490000Y-8720000D02*
G75*
G02*
X13390000Y-8720000I-50000J0D01*
G01*
X13390000Y-8720000D02*
G75*
G02*
X13490000Y-8720000I50000J0D01*
G01*
D15*
%TO.C,J4*%
X6555000Y-38987726D02*
X6555000Y-41647726D01*
X11695000Y-38987726D02*
X6555000Y-38987726D01*
X11695000Y-38987726D02*
X11695000Y-41647726D01*
X11695000Y-41647726D02*
X6555000Y-41647726D01*
X12965000Y-38987726D02*
X14295000Y-38987726D01*
X14295000Y-38987726D02*
X14295000Y-40317726D01*
D10*
%TO.C,U3*%
X5515000Y-20515000D02*
X5515000Y-21190000D01*
X5515000Y-20515000D02*
X6190000Y-20515000D01*
X5515000Y-30865000D02*
X5515000Y-30190000D01*
X5515000Y-30865000D02*
X6190000Y-30865000D01*
X15865000Y-20515000D02*
X15190000Y-20515000D01*
X15865000Y-20515000D02*
X15865000Y-21190000D01*
X15865000Y-30290000D02*
X17140000Y-30290000D01*
X15865000Y-30865000D02*
X15190000Y-30865000D01*
X15865000Y-30865000D02*
X15865000Y-30290000D01*
D15*
%TO.C,C3*%
X13980000Y-14897836D02*
X13980000Y-14682164D01*
X14700000Y-14897836D02*
X14700000Y-14682164D01*
%TO.C,SW1*%
X12290000Y-34590000D02*
X15590000Y-34590000D01*
X12290000Y-34890000D02*
X12290000Y-34590000D01*
X12290000Y-37090000D02*
X12290000Y-37390000D01*
X12290000Y-37390000D02*
X15590000Y-37390000D01*
X15590000Y-34590000D02*
X15590000Y-34890000D01*
X15590000Y-37390000D02*
X15590000Y-37090000D01*
%TO.C,C5*%
X15578436Y-33452062D02*
X15362764Y-33452062D01*
X15578436Y-34172062D02*
X15362764Y-34172062D01*
%TO.C,C6*%
X10352164Y-33130000D02*
X10567836Y-33130000D01*
X10352164Y-33850000D02*
X10567836Y-33850000D01*
%TO.C,J5*%
X6566805Y-41660000D02*
X6566805Y-44320000D01*
X11706805Y-41660000D02*
X6566805Y-41660000D01*
X11706805Y-41660000D02*
X11706805Y-44320000D01*
X11706805Y-44320000D02*
X6566805Y-44320000D01*
X12976805Y-41660000D02*
X14306805Y-41660000D01*
X14306805Y-41660000D02*
X14306805Y-42990000D01*
%TD*%
M02*
